<svg width="16" height="23" viewBox="0 0 16 23" fill="none" xmlns="http://www.w3.org/2000/svg">
<path d="M10.8668 9.88013L14.7502 1.08325M5.70433 10.0749L1.2085 1.08325M9.29287 9.46659L5.20329 1.08325M10.9585 1.08325L9.87516 3.68742M2.25016 15.6666C2.25016 17.3242 2.90864 18.9139 4.08075 20.086C5.25285 21.2581 6.84256 21.9166 8.50016 21.9166C10.1578 21.9166 11.7475 21.2581 12.9196 20.086C14.0917 18.9139 14.7502 17.3242 14.7502 15.6666C14.7502 14.009 14.0917 12.4193 12.9196 11.2472C11.7475 10.0751 10.1578 9.41658 8.50016 9.41658C6.84256 9.41658 5.25285 10.0751 4.08075 11.2472C2.90864 12.4193 2.25016 14.009 2.25016 15.6666Z" stroke="black" stroke-width="1.5" stroke-linecap="round" stroke-linejoin="round"/>
<g clip-path="url(#clip0_0_1)">
<path d="M9.01812 16.448H7.97781C7.83423 16.448 7.71164 16.5243 7.61005 16.6769C7.50845 16.8295 7.45766 17.0136 7.45766 17.2292V17.8152C7.45766 17.8681 7.47052 17.9139 7.49626 17.9525C7.522 17.9912 7.55248 18.0105 7.5877 18.0105H9.80242C9.87286 18.0105 9.93382 18.0492 9.98529 18.1265C10.0368 18.2038 10.0625 18.2963 10.0625 18.4042C10.0625 18.512 10.0368 18.6036 9.98529 18.6788C9.93382 18.7541 9.87286 18.7917 9.80242 18.7917H7.19758C7.12714 18.7917 7.06618 18.7541 7.01471 18.6788C6.96324 18.6036 6.9375 18.511 6.9375 18.4011V17.2292C6.9375 16.7979 7.03909 16.4297 7.24228 16.1245C7.44546 15.8193 7.69064 15.6667 7.97781 15.6667H9.01812C9.16171 15.6667 9.28498 15.5905 9.38792 15.4379C9.49087 15.2853 9.54234 15.1012 9.54234 14.8855V14.1042C9.54234 13.8886 9.49155 13.7045 9.38995 13.5519C9.28836 13.3993 9.16442 13.323 9.01812 13.323H7.97781C7.83423 13.323 7.71164 13.3993 7.61005 13.5519C7.50845 13.7045 7.45766 13.8886 7.45766 14.1042C7.45766 14.2141 7.4326 14.3067 7.38248 14.382C7.33236 14.4572 7.2714 14.4949 7.19961 14.4949C7.12782 14.4949 7.06618 14.4572 7.01471 14.382C6.96324 14.3067 6.9375 14.2141 6.9375 14.1042C6.9375 13.6729 7.03909 13.3047 7.24228 12.9995C7.44546 12.6943 7.69064 12.5417 7.97781 12.5417H9.01812C9.308 12.5417 9.55453 12.6943 9.75772 12.9995C9.96091 13.3047 10.0625 13.6729 10.0625 14.1042V14.8855C10.0625 15.3168 9.96091 15.6851 9.75772 15.9902C9.55453 16.2954 9.308 16.448 9.01812 16.448Z" fill="black"/>
</g>
<defs>
<clipPath id="clip0_0_1">
<rect width="3.125" height="6.25" fill="white" transform="translate(6.9375 12.5417)"/>
</clipPath>
</defs>
</svg>
