<svg width="25" height="25" viewBox="0 0 25 25" fill="none" xmlns="http://www.w3.org/2000/svg">
<path d="M14.8668 10.8801L18.7502 2.08325M9.70433 11.0749L5.2085 2.08325M13.2929 10.4666L9.20329 2.08325M14.9585 2.08325L13.8752 4.68742M6.25016 16.6666C6.25016 18.3242 6.90864 19.9139 8.08075 21.086C9.25285 22.2581 10.8426 22.9166 12.5002 22.9166C14.1578 22.9166 15.7475 22.2581 16.9196 21.086C18.0917 19.9139 18.7502 18.3242 18.7502 16.6666C18.7502 15.009 18.0917 13.4193 16.9196 12.2472C15.7475 11.0751 14.1578 10.4166 12.5002 10.4166C10.8426 10.4166 9.25285 11.0751 8.08075 12.2472C6.90864 13.4193 6.25016 15.009 6.25016 16.6666Z" stroke="black" stroke-width="1.5" stroke-linecap="round" stroke-linejoin="round"/>
<path d="M6.25016 16.6666C6.25016 18.3242 6.90864 19.9139 8.08075 21.086C9.25285 22.2581 10.8426 22.9166 12.5002 22.9166C14.1578 22.9166 15.7475 22.2581 16.9196 21.086C18.0917 19.9139 18.7502 18.3242 18.7502 16.6666C18.7502 15.009 18.0917 13.4193 16.9196 12.2472C15.7475 11.0751 14.1578 10.4166 12.5002 10.4166C10.8426 10.4166 9.25285 11.0751 8.08075 12.2472C6.90864 13.4193 6.25016 15.009 6.25016 16.6666Z" stroke="#ce8946" stroke-width="1.5" stroke-linecap="round" stroke-linejoin="round"/>
<g clip-path="url(#clip0_423_1835)">
<path d="M14.0625 17.8386V18.2292C14.0625 18.6606 13.9608 19.0288 13.7573 19.334C13.5539 19.6392 13.3084 19.7917 13.0208 19.7917H11.9792C11.6916 19.7917 11.4461 19.6392 11.2427 19.334C11.0392 19.0288 10.9375 18.6606 10.9375 18.2292C10.9375 18.1235 10.9626 18.0319 11.0128 17.9546C11.063 17.8773 11.124 17.8386 11.1959 17.8386C11.2678 17.8386 11.3295 17.8773 11.381 17.9546C11.4326 18.0319 11.4583 18.1235 11.4583 18.2292C11.4583 18.4449 11.5092 18.629 11.6109 18.7816C11.7126 18.9342 11.8354 19.0105 11.9792 19.0105H13.0208C13.1646 19.0105 13.2874 18.9342 13.3891 18.7816C13.4908 18.629 13.5417 18.4449 13.5417 18.2292V17.8386C13.5417 17.623 13.4908 17.4388 13.3891 17.2863C13.2874 17.1337 13.1646 17.0574 13.0208 17.0574H12.7604C12.6872 17.0574 12.6255 17.0197 12.5753 16.9445C12.5251 16.8692 12.5 16.7776 12.5 16.6698C12.5 16.562 12.5251 16.4694 12.5753 16.3921C12.6255 16.3148 12.6872 16.2761 12.7604 16.2761H13.0208C13.1646 16.2761 13.2874 16.1998 13.3891 16.0472C13.4908 15.8947 13.5417 15.7105 13.5417 15.4949V15.1042C13.5417 14.8886 13.4908 14.7045 13.3891 14.5519C13.2874 14.3993 13.1646 14.323 13.0208 14.323H11.9792C11.8354 14.323 11.7126 14.3993 11.6109 14.5519C11.5092 14.7045 11.4583 14.8886 11.4583 15.1042C11.4583 15.2141 11.4326 15.3067 11.381 15.382C11.3295 15.4572 11.2678 15.4949 11.1959 15.4949C11.124 15.4949 11.063 15.4572 11.0128 15.382C10.9626 15.3067 10.9375 15.2141 10.9375 15.1042C10.9375 14.6729 11.0392 14.3047 11.2427 13.9995C11.4461 13.6943 11.6916 13.5417 11.9792 13.5417H13.0208C13.3084 13.5417 13.5539 13.6943 13.7573 13.9995C13.9608 14.3047 14.0625 14.6729 14.0625 15.1042V15.4949C14.0625 15.7227 14.0306 15.9384 13.9669 16.1418C13.9031 16.3453 13.817 16.5203 13.7085 16.6667C13.817 16.8132 13.9031 16.9882 13.9669 17.1917C14.0306 17.3951 14.0625 17.6108 14.0625 17.8386Z" fill="black"/>
</g>
<defs>
<clipPath id="clip0_423_1835">
<rect width="3.125" height="6.25" fill="white" transform="translate(10.9375 13.5417)"/>
</clipPath>
</defs>
</svg>
