<svg width="35" height="35" viewBox="0 0 35 35" fill="none" xmlns="http://www.w3.org/2000/svg">
<path d="M4.375 0C3.21468 0 2.10188 0.460936 1.28141 1.28141C0.460936 2.10188 0 3.21468 0 4.375L0 30.625C0 31.7853 0.460936 32.8981 1.28141 33.7186C2.10188 34.5391 3.21468 35 4.375 35H30.625C31.7853 35 32.8981 34.5391 33.7186 33.7186C34.5391 32.8981 35 31.7853 35 30.625V4.375C35 3.21468 34.5391 2.10188 33.7186 1.28141C32.8981 0.460936 31.7853 0 30.625 0L4.375 0ZM18.5938 9.84375V16.4062H25.1562C25.4463 16.4062 25.7245 16.5215 25.9296 16.7266C26.1348 16.9317 26.25 17.2099 26.25 17.5C26.25 17.7901 26.1348 18.0683 25.9296 18.2734C25.7245 18.4785 25.4463 18.5938 25.1562 18.5938H18.5938V25.1562C18.5938 25.4463 18.4785 25.7245 18.2734 25.9296C18.0683 26.1348 17.7901 26.25 17.5 26.25C17.2099 26.25 16.9317 26.1348 16.7266 25.9296C16.5215 25.7245 16.4062 25.4463 16.4062 25.1562V18.5938H9.84375C9.55367 18.5938 9.27547 18.4785 9.07035 18.2734C8.86523 18.0683 8.75 17.7901 8.75 17.5C8.75 17.2099 8.86523 16.9317 9.07035 16.7266C9.27547 16.5215 9.55367 16.4062 9.84375 16.4062H16.4062V9.84375C16.4062 9.55367 16.5215 9.27547 16.7266 9.07035C16.9317 8.86523 17.2099 8.75 17.5 8.75C17.7901 8.75 18.0683 8.86523 18.2734 9.07035C18.4785 9.27547 18.5938 9.55367 18.5938 9.84375Z" fill="#4F4F4F"/>
</svg>
