<svg width="338" height="164" viewBox="0 0 338 164" fill="none" xmlns="http://www.w3.org/2000/svg">
<path d="M306.094 26.7903C302.7 25.6541 298.975 27.3835 297.793 30.6448C297.158 32.3958 297.405 34.2275 298.274 35.7344L270.183 57.3555C269.523 56.7585 268.739 56.3006 267.884 56.0109C266.103 55.4147 264.241 55.623 262.692 56.4112L248.18 38.8508C248.792 38.2288 249.288 37.4837 249.6 36.624C250.782 33.3627 248.982 29.7841 245.588 28.6479C242.194 27.5117 238.469 29.2411 237.287 32.5024C236.64 34.2849 236.908 36.1479 237.816 37.6679L226.818 46.1199L221.319 50.3459L215.82 54.5718C215.181 54.0224 214.436 53.5994 213.627 53.3271C210.233 52.1909 206.508 53.9203 205.326 57.1816C204.143 60.443 205.943 64.0216 209.338 65.1578C212.732 66.2939 216.456 64.5645 217.639 61.3032C218.274 59.5523 218.028 57.7232 217.159 56.2163L229.428 46.9492L239.184 39.289C239.79 39.7967 240.496 40.21 241.298 40.4786C243.061 41.0686 244.904 40.8739 246.441 40.1061L260.961 57.6758C260.35 58.3068 259.88 59.0522 259.583 59.8655C258.4 63.1268 260.2 66.7054 263.594 67.8416C266.989 68.9778 270.713 67.2484 271.896 63.9871C272.513 62.2854 272.304 60.5064 271.493 59.0233L299.615 37.3795C300.236 37.9126 300.971 38.3421 301.804 38.6209C305.199 39.7571 308.923 38.0277 310.106 34.7664C311.288 31.5051 309.488 27.9264 306.094 26.7903ZM215.587 60.6163C214.798 62.7912 212.316 63.9437 210.053 63.186C207.789 62.4283 206.59 60.0434 207.378 57.8686C208.167 55.6937 210.649 54.5412 212.912 55.2989C215.176 56.0565 216.375 58.4414 215.587 60.6163ZM242.013 38.5068C239.75 37.7491 238.55 35.3642 239.339 33.1894C240.127 31.0145 242.609 29.862 244.873 30.6197C247.137 31.3774 248.336 33.7622 247.548 35.9371C246.759 38.112 244.277 39.2645 242.013 38.5068ZM264.309 65.8698C262.046 65.1122 260.846 62.7273 261.635 60.5524C262.423 58.3775 264.905 57.225 267.169 57.9827C269.433 58.7404 270.632 61.1253 269.843 63.3001C269.055 65.475 266.573 66.6275 264.309 65.8698ZM302.519 36.6492C300.256 35.8915 299.056 33.5066 299.845 31.3317C300.633 29.1569 303.115 28.0044 305.379 28.762C307.642 29.5197 308.842 31.9046 308.053 34.0795C307.265 36.2543 304.783 37.4069 302.519 36.6492Z" fill="black"/>
<path d="M213.913 53.4643C210.519 52.3282 206.794 54.0576 205.612 57.3189C204.977 59.0698 205.224 60.9015 206.093 62.4085L178.003 84.0295C177.342 83.4326 176.559 82.9746 175.703 82.685C173.922 82.0888 172.061 82.2971 170.512 83.0853L155.999 65.5249C156.612 64.9028 157.107 64.1578 157.419 63.2981C158.602 60.0368 156.802 56.4581 153.407 55.322C150.013 54.1858 146.288 55.9152 145.106 59.1765C144.46 60.959 144.728 62.822 145.636 64.342L123.639 81.2459C123.001 80.6965 122.256 80.2735 121.447 80.0012C118.052 78.865 114.328 80.5944 113.145 83.8557C111.963 87.117 113.763 90.6957 117.157 91.8318C120.551 92.968 124.276 91.2386 125.458 87.9773C126.093 86.2263 125.847 84.3973 124.978 82.8904L147.004 65.9631C147.609 66.4708 148.315 66.8841 149.118 67.1526C150.88 67.7427 152.723 67.548 154.26 66.7801L168.78 84.3499C168.169 84.9808 167.7 85.7263 167.402 86.5396C166.219 89.8009 168.019 93.3795 171.414 94.5157C174.808 95.6519 178.533 93.9225 179.715 90.6611C180.332 88.9595 180.123 87.1805 179.312 85.6974L207.434 64.0536C208.056 64.5866 208.79 65.0161 209.624 65.295C213.018 66.4312 216.742 64.7018 217.925 61.4405C219.107 58.1791 217.307 54.6005 213.913 53.4643ZM123.406 87.2904C122.618 89.4652 120.135 90.6177 117.872 89.8601C115.608 89.1024 114.409 86.7175 115.197 84.5426C115.986 82.3678 118.468 81.2152 120.732 81.9729C122.995 82.7306 124.195 85.1155 123.406 87.2904ZM149.833 65.1809C147.569 64.4232 146.37 62.0383 147.158 59.8634C147.947 57.6886 150.429 56.5361 152.692 57.2937C154.956 58.0514 156.155 60.4363 155.367 62.6112C154.578 64.786 152.096 65.9386 149.833 65.1809ZM172.129 92.5439C169.865 91.7862 168.666 89.4014 169.454 87.2265C170.243 85.0516 172.725 83.8991 174.988 84.6568C177.252 85.4145 178.451 87.7993 177.663 89.9742C176.874 92.1491 174.392 93.3016 172.129 92.5439ZM210.338 63.3232C208.075 62.5656 206.875 60.1807 207.664 58.0058C208.453 55.8309 210.935 54.6784 213.198 55.4361C215.462 56.1938 216.661 58.5787 215.873 60.7535C215.084 62.9284 212.602 64.0809 210.338 63.3232Z" fill="black"/>
<path d="M121.62 80.125C118.225 78.9322 114.547 80.6156 113.42 83.8769C112.815 85.6278 113.089 87.4731 113.977 89.0011L86.3626 110.321C85.6961 109.711 84.91 109.239 84.0545 108.935C82.2732 108.309 80.4246 108.491 78.8955 109.26L64.1886 91.3893C64.788 90.773 65.2697 90.0313 65.5666 89.1716C66.693 85.9103 64.8474 82.2856 61.4531 81.0928C58.0588 79.9 54.38 81.5834 53.2536 84.8447C52.638 86.6272 52.9332 88.5042 53.8597 90.0459L32.2359 106.714C31.5921 106.152 30.8443 105.716 30.0353 105.43C26.641 104.237 22.9621 105.92 21.8357 109.182C20.7093 112.443 22.5549 116.068 25.9492 117.26C29.3435 118.453 33.0224 116.77 34.1488 113.509C34.7535 111.758 34.4809 109.915 33.5934 108.387L55.2458 91.696C55.8558 92.2155 56.5647 92.6415 57.3671 92.9235C59.1299 93.543 60.96 93.3746 62.4775 92.6254L77.1927 110.506C76.5941 111.131 76.1387 111.874 75.8549 112.687C74.7285 115.948 76.5741 119.573 79.9684 120.766C83.3627 121.958 87.0416 120.275 88.168 117.014C88.7557 115.312 88.5207 113.52 87.6914 112.017L115.336 90.675C115.963 91.2202 116.7 91.6629 117.534 91.9557C120.928 93.1485 124.607 91.4651 125.733 88.2038C126.86 84.9425 125.014 81.3178 121.62 80.125ZM32.0966 112.787C31.3454 114.962 28.8938 116.084 26.6302 115.289C24.3667 114.493 23.1368 112.078 23.8879 109.903C24.6391 107.728 27.0907 106.606 29.3543 107.402C31.6178 108.197 32.8477 110.613 32.0966 112.787ZM58.0481 90.9517C55.7845 90.1563 54.5546 87.7407 55.3058 85.5658C56.0569 83.391 58.5086 82.2692 60.7721 83.0646C63.0357 83.86 64.2656 86.2756 63.5145 88.4505C62.7633 90.6253 60.3116 91.7471 58.0481 90.9517ZM80.6494 118.794C78.3859 117.998 77.156 115.583 77.9071 113.408C78.6583 111.233 81.1099 110.111 83.3735 110.907C85.637 111.702 86.867 114.118 86.1158 116.293C85.3646 118.468 82.913 119.589 80.6494 118.794ZM118.215 89.9839C115.951 89.1885 114.721 86.7729 115.472 84.598C116.223 82.4232 118.675 81.3013 120.939 82.0968C123.202 82.8922 124.432 85.3078 123.681 87.4826C122.93 89.6575 120.478 90.7793 118.215 89.9839Z" fill="black"/>
<path d="M26.9203 134.047L26.5161 123.985" stroke="#4F4F4F"/>
<path d="M173.644 134.047L173.24 123.985" stroke="#4F4F4F"/>
<path d="M4.92139 129.505H333.069" stroke="#4F4F4F"/>
<path d="M160.908 143.872C162.236 143.872 162.9 142.852 162.9 140.812C162.9 138.772 162.236 137.752 160.908 137.752C160.332 137.752 159.828 137.84 159.396 138.016C159.028 138.784 158.844 139.676 158.844 140.692C158.844 141.7 158.996 142.484 159.3 143.044C159.604 143.596 160.14 143.872 160.908 143.872ZM160.908 136.456C162.244 136.456 163.184 136.808 163.728 137.512C164.272 138.208 164.544 139.276 164.544 140.716C164.544 141.62 164.428 142.392 164.196 143.032C163.964 143.672 163.572 144.184 163.02 144.568C162.468 144.952 161.764 145.144 160.908 145.144C159.604 145.144 158.656 144.78 158.064 144.052C157.48 143.324 157.188 142.264 157.188 140.872C157.188 137.928 158.428 136.456 160.908 136.456ZM168.401 139.756L168.209 139.744C167.761 139.744 167.401 139.9 167.129 140.212C166.865 140.516 166.733 141.032 166.733 141.76C166.733 142.48 166.833 143.028 167.033 143.404C167.241 143.78 167.637 143.968 168.221 143.968C168.493 143.968 169.069 143.784 169.949 143.416C170.149 143.696 170.257 143.988 170.273 144.292C169.833 144.564 169.401 144.776 168.977 144.928C168.561 145.08 168.265 145.156 168.089 145.156C167.105 145.156 166.369 144.888 165.881 144.352C165.393 143.808 165.149 143.048 165.149 142.072C165.149 139.864 166.145 138.76 168.137 138.76C168.481 138.76 168.833 138.804 169.193 138.892C169.561 138.972 169.849 139.076 170.057 139.204C170.033 140.004 169.945 140.584 169.793 140.944C169.529 141.008 169.157 141.04 168.677 141.04L168.401 139.756ZM172.201 145.144L171.937 145.132C171.889 145.044 171.825 144.88 171.745 144.64C171.665 144.4 171.621 144.22 171.613 144.1C171.573 143.308 171.529 141.936 171.481 139.984H170.641L170.677 139.3C170.861 139.172 171.081 139.056 171.337 138.952L172.309 137.416C172.621 137.448 172.865 137.532 173.041 137.668L173.029 138.808C173.533 138.824 174.001 138.872 174.433 138.952C174.433 139.272 174.333 139.616 174.133 139.984H173.017C172.985 141.664 172.965 142.924 172.957 143.764C173.277 143.796 173.713 143.888 174.265 144.04L174.253 144.664C174.117 144.752 173.813 144.856 173.341 144.976C172.877 145.088 172.497 145.144 172.201 145.144ZM178.089 139.72C177.801 139.72 177.473 139.792 177.105 139.936C177.001 140.096 176.901 140.38 176.805 140.788C176.717 141.188 176.673 141.592 176.673 142C176.673 142.752 176.785 143.288 177.009 143.608C177.233 143.92 177.593 144.076 178.089 144.076C178.593 144.076 178.957 143.92 179.181 143.608C179.405 143.288 179.517 142.744 179.517 141.976C179.517 141.2 179.401 140.632 179.169 140.272C178.945 139.904 178.585 139.72 178.089 139.72ZM178.089 138.76C179.025 138.76 179.777 139.048 180.345 139.624C180.921 140.192 181.209 140.988 181.209 142.012C181.209 143.028 180.925 143.804 180.357 144.34C179.789 144.876 179.033 145.144 178.089 145.144C177.145 145.144 176.389 144.876 175.821 144.34C175.261 143.804 174.981 143.028 174.981 142.012C174.981 140.988 175.265 140.192 175.833 139.624C176.401 139.048 177.153 138.76 178.089 138.76ZM183.514 136.084C183.706 136.084 183.83 136.088 183.886 136.096C183.886 136.512 183.834 136.876 183.73 137.188L183.694 139.204C184.438 138.908 184.95 138.76 185.23 138.76C186.022 138.76 186.606 139.056 186.982 139.648C187.366 140.232 187.558 140.992 187.558 141.928C187.558 142.864 187.346 143.636 186.922 144.244C186.498 144.844 185.882 145.144 185.074 145.144C184.546 145.144 183.99 144.944 183.406 144.544C183.374 144.728 183.326 144.896 183.262 145.048C183.118 145.064 182.974 145.072 182.83 145.072C182.686 145.072 182.506 145.048 182.29 145L182.038 137.32C181.662 137.28 181.346 137.22 181.09 137.14C181.09 136.844 181.118 136.556 181.174 136.276C181.638 136.148 182.418 136.084 183.514 136.084ZM185.026 140.02C184.506 140.02 184.058 140.112 183.682 140.296C183.666 141.64 183.65 142.656 183.634 143.344C183.826 143.504 184.046 143.648 184.294 143.776C184.542 143.904 184.754 143.968 184.93 143.968C185.626 143.968 185.974 143.328 185.974 142.048C185.974 141.504 185.898 141.032 185.746 140.632C185.602 140.224 185.362 140.02 185.026 140.02ZM190.922 143.968C191.194 143.968 191.746 143.78 192.578 143.404C192.754 143.66 192.886 143.956 192.974 144.292C192.534 144.564 192.102 144.776 191.678 144.928C191.262 145.072 190.966 145.144 190.79 145.144C189.822 145.144 189.086 144.876 188.582 144.34C188.086 143.804 187.838 143.044 187.838 142.06C187.838 141.068 188.086 140.272 188.582 139.672C189.078 139.064 189.814 138.76 190.79 138.76C191.566 138.76 192.158 139.012 192.566 139.516C192.974 140.02 193.178 140.676 193.178 141.484C193.178 141.652 193.082 141.844 192.89 142.06L189.434 142C189.45 142.64 189.57 143.128 189.794 143.464C190.018 143.8 190.394 143.968 190.922 143.968ZM190.682 139.756C190.378 139.756 190.094 139.816 189.83 139.936C189.646 140.32 189.53 140.676 189.482 141.004C190.106 140.98 190.814 140.964 191.606 140.956C191.566 140.156 191.258 139.756 190.682 139.756ZM197.41 140.056C197.394 140.016 197.314 139.996 197.17 139.996C197.026 139.996 196.778 140.104 196.426 140.32C196.394 141.888 196.374 143.064 196.366 143.848L197.302 143.968C197.302 144.312 197.21 144.656 197.026 145H194.038L193.93 144.34C194.426 144.156 194.786 144.036 195.01 143.98L194.878 140.092C194.462 140.06 194.114 140 193.834 139.912L193.918 139.048C194.134 138.952 194.914 138.888 196.258 138.856C196.33 138.928 196.366 139.068 196.366 139.276C197.07 138.932 197.514 138.76 197.698 138.76C197.89 138.76 198.122 138.808 198.394 138.904C198.674 138.992 198.886 139.088 199.03 139.192V139.396C199.03 140.052 198.95 140.66 198.79 141.22C198.654 141.276 198.474 141.304 198.25 141.304C198.026 141.304 197.818 141.292 197.626 141.268C197.602 141.164 197.53 140.76 197.41 140.056ZM163.08 155.132C163.08 155.228 163.04 156.8 162.96 159.848L163.956 159.956C163.956 160.308 163.864 160.656 163.68 161H160.344L160.236 160.34C160.828 160.116 161.276 159.972 161.58 159.908C161.508 157.396 161.472 156.128 161.472 156.104C160.976 156.296 160.588 156.408 160.308 156.44C160.1 156.072 159.992 155.72 159.984 155.384L162.516 154.508C162.796 154.66 162.984 154.868 163.08 155.132ZM166.012 156.908L165.58 156.92C165.436 156.92 165.204 156.892 164.884 156.836C164.732 156.42 164.652 155.896 164.644 155.264C164.86 155.048 165.168 154.848 165.568 154.664C165.976 154.472 166.36 154.376 166.72 154.376C167.456 154.376 168.048 154.564 168.496 154.94C168.952 155.316 169.18 155.752 169.18 156.248C169.18 156.744 169.072 157.18 168.856 157.556C168.64 157.932 168.256 158.36 167.704 158.84L166.444 159.932H167.752C167.84 159.3 167.896 158.944 167.92 158.864C168.016 158.848 168.164 158.84 168.364 158.84C168.564 158.84 168.772 158.884 168.988 158.972C169.1 159.532 169.156 160.068 169.156 160.58L169.144 161H164.764C164.628 160.712 164.56 160.404 164.56 160.076C166.304 158.396 167.264 157.4 167.44 157.088C167.544 156.904 167.596 156.636 167.596 156.284C167.596 156.092 167.516 155.904 167.356 155.72C167.196 155.536 166.952 155.444 166.624 155.444C166.472 155.444 166.36 155.448 166.288 155.456C166.248 155.632 166.196 155.9 166.132 156.26C166.068 156.612 166.028 156.828 166.012 156.908ZM174.567 156.908L174.135 156.92C173.991 156.92 173.759 156.892 173.439 156.836C173.287 156.42 173.207 155.896 173.199 155.264C173.415 155.048 173.723 154.848 174.123 154.664C174.531 154.472 174.915 154.376 175.275 154.376C176.011 154.376 176.603 154.564 177.051 154.94C177.507 155.316 177.735 155.752 177.735 156.248C177.735 156.744 177.627 157.18 177.411 157.556C177.195 157.932 176.811 158.36 176.259 158.84L174.999 159.932H176.307C176.395 159.3 176.451 158.944 176.475 158.864C176.571 158.848 176.719 158.84 176.919 158.84C177.119 158.84 177.327 158.884 177.543 158.972C177.655 159.532 177.711 160.068 177.711 160.58L177.699 161H173.319C173.183 160.712 173.115 160.404 173.115 160.076C174.859 158.396 175.819 157.4 175.995 157.088C176.099 156.904 176.151 156.636 176.151 156.284C176.151 156.092 176.071 155.904 175.911 155.72C175.751 155.536 175.507 155.444 175.179 155.444C175.027 155.444 174.915 155.448 174.843 155.456C174.803 155.632 174.751 155.9 174.687 156.26C174.623 156.612 174.583 156.828 174.567 156.908ZM181.336 154.376C182.328 154.376 183.052 154.664 183.508 155.24C183.964 155.808 184.192 156.62 184.192 157.676C184.192 158.724 183.964 159.564 183.508 160.196C183.052 160.828 182.324 161.144 181.324 161.144C180.324 161.144 179.608 160.864 179.176 160.304C178.744 159.736 178.528 158.88 178.528 157.736C178.528 155.496 179.464 154.376 181.336 154.376ZM180.724 159.92C180.892 160.008 181.096 160.052 181.336 160.052C181.576 160.052 181.776 160.008 181.936 159.92C182.104 159.832 182.228 159.724 182.308 159.596C182.396 159.468 182.464 159.288 182.512 159.056C182.576 158.752 182.608 158.308 182.608 157.724C182.608 156.22 182.184 155.468 181.336 155.468C181.104 155.468 180.904 155.516 180.736 155.612C180.568 155.708 180.44 155.82 180.352 155.948C180.264 156.076 180.196 156.248 180.148 156.464C180.084 156.752 180.052 157.096 180.052 157.496C180.052 157.888 180.056 158.184 180.064 158.384C180.08 158.576 180.108 158.792 180.148 159.032C180.196 159.264 180.264 159.448 180.352 159.584C180.44 159.712 180.564 159.824 180.724 159.92ZM186.332 156.908L185.9 156.92C185.756 156.92 185.524 156.892 185.204 156.836C185.052 156.42 184.972 155.896 184.964 155.264C185.18 155.048 185.488 154.848 185.888 154.664C186.296 154.472 186.68 154.376 187.04 154.376C187.776 154.376 188.368 154.564 188.816 154.94C189.272 155.316 189.5 155.752 189.5 156.248C189.5 156.744 189.392 157.18 189.176 157.556C188.96 157.932 188.576 158.36 188.024 158.84L186.764 159.932H188.072C188.16 159.3 188.216 158.944 188.24 158.864C188.336 158.848 188.484 158.84 188.684 158.84C188.884 158.84 189.092 158.884 189.308 158.972C189.42 159.532 189.476 160.068 189.476 160.58L189.464 161H185.084C184.948 160.712 184.88 160.404 184.88 160.076C186.624 158.396 187.584 157.4 187.76 157.088C187.864 156.904 187.916 156.636 187.916 156.284C187.916 156.092 187.836 155.904 187.676 155.72C187.516 155.536 187.272 155.444 186.944 155.444C186.792 155.444 186.68 155.448 186.608 155.456C186.568 155.632 186.516 155.9 186.452 156.26C186.388 156.612 186.348 156.828 186.332 156.908ZM196.066 159.584L196.078 159.86C196.078 160.172 196.01 160.444 195.874 160.676H194.842L194.758 162.548C194.622 162.58 194.438 162.596 194.206 162.596C193.974 162.596 193.762 162.584 193.57 162.56L193.486 160.676H190.186C190.026 160.444 189.946 160.2 189.946 159.944C189.946 159.88 189.954 159.832 189.97 159.8L193.03 154.52H194.974C194.974 154.552 194.938 156.236 194.866 159.572L196.066 159.584ZM193.462 159.56L193.378 156.548L191.59 159.584C192.006 159.584 192.63 159.576 193.462 159.56Z" fill="black"/>
<path d="M286.813 143.872C288.141 143.872 288.805 142.852 288.805 140.812C288.805 138.772 288.141 137.752 286.813 137.752C286.237 137.752 285.733 137.84 285.301 138.016C284.933 138.784 284.749 139.676 284.749 140.692C284.749 141.7 284.901 142.484 285.205 143.044C285.509 143.596 286.045 143.872 286.813 143.872ZM286.813 136.456C288.149 136.456 289.089 136.808 289.633 137.512C290.177 138.208 290.449 139.276 290.449 140.716C290.449 141.62 290.333 142.392 290.101 143.032C289.869 143.672 289.477 144.184 288.925 144.568C288.373 144.952 287.669 145.144 286.813 145.144C285.509 145.144 284.561 144.78 283.969 144.052C283.385 143.324 283.093 142.264 283.093 140.872C283.093 137.928 284.333 136.456 286.813 136.456ZM294.306 139.756L294.114 139.744C293.666 139.744 293.306 139.9 293.034 140.212C292.77 140.516 292.638 141.032 292.638 141.76C292.638 142.48 292.738 143.028 292.938 143.404C293.146 143.78 293.542 143.968 294.126 143.968C294.398 143.968 294.974 143.784 295.854 143.416C296.054 143.696 296.162 143.988 296.178 144.292C295.738 144.564 295.306 144.776 294.882 144.928C294.466 145.08 294.17 145.156 293.994 145.156C293.01 145.156 292.274 144.888 291.786 144.352C291.298 143.808 291.054 143.048 291.054 142.072C291.054 139.864 292.05 138.76 294.042 138.76C294.386 138.76 294.738 138.804 295.098 138.892C295.466 138.972 295.754 139.076 295.962 139.204C295.938 140.004 295.85 140.584 295.698 140.944C295.434 141.008 295.062 141.04 294.582 141.04L294.306 139.756ZM298.106 145.144L297.842 145.132C297.794 145.044 297.73 144.88 297.65 144.64C297.57 144.4 297.526 144.22 297.518 144.1C297.478 143.308 297.434 141.936 297.386 139.984H296.546L296.582 139.3C296.766 139.172 296.986 139.056 297.242 138.952L298.214 137.416C298.526 137.448 298.77 137.532 298.946 137.668L298.934 138.808C299.438 138.824 299.906 138.872 300.338 138.952C300.338 139.272 300.238 139.616 300.038 139.984H298.922C298.89 141.664 298.87 142.924 298.862 143.764C299.182 143.796 299.618 143.888 300.17 144.04L300.158 144.664C300.022 144.752 299.718 144.856 299.246 144.976C298.782 145.088 298.402 145.144 298.106 145.144ZM303.994 139.72C303.706 139.72 303.378 139.792 303.01 139.936C302.906 140.096 302.806 140.38 302.71 140.788C302.622 141.188 302.578 141.592 302.578 142C302.578 142.752 302.69 143.288 302.914 143.608C303.138 143.92 303.498 144.076 303.994 144.076C304.498 144.076 304.862 143.92 305.086 143.608C305.31 143.288 305.422 142.744 305.422 141.976C305.422 141.2 305.306 140.632 305.074 140.272C304.85 139.904 304.49 139.72 303.994 139.72ZM303.994 138.76C304.93 138.76 305.682 139.048 306.25 139.624C306.826 140.192 307.114 140.988 307.114 142.012C307.114 143.028 306.83 143.804 306.262 144.34C305.694 144.876 304.938 145.144 303.994 145.144C303.05 145.144 302.294 144.876 301.726 144.34C301.166 143.804 300.886 143.028 300.886 142.012C300.886 140.988 301.17 140.192 301.738 139.624C302.306 139.048 303.058 138.76 303.994 138.76ZM309.419 136.084C309.611 136.084 309.735 136.088 309.791 136.096C309.791 136.512 309.739 136.876 309.635 137.188L309.599 139.204C310.343 138.908 310.855 138.76 311.135 138.76C311.927 138.76 312.511 139.056 312.887 139.648C313.271 140.232 313.463 140.992 313.463 141.928C313.463 142.864 313.251 143.636 312.827 144.244C312.403 144.844 311.787 145.144 310.979 145.144C310.451 145.144 309.895 144.944 309.311 144.544C309.279 144.728 309.231 144.896 309.167 145.048C309.023 145.064 308.879 145.072 308.735 145.072C308.591 145.072 308.411 145.048 308.195 145L307.943 137.32C307.567 137.28 307.251 137.22 306.995 137.14C306.995 136.844 307.023 136.556 307.079 136.276C307.543 136.148 308.323 136.084 309.419 136.084ZM310.931 140.02C310.411 140.02 309.963 140.112 309.587 140.296C309.571 141.64 309.555 142.656 309.539 143.344C309.731 143.504 309.951 143.648 310.199 143.776C310.447 143.904 310.659 143.968 310.835 143.968C311.531 143.968 311.879 143.328 311.879 142.048C311.879 141.504 311.803 141.032 311.651 140.632C311.507 140.224 311.267 140.02 310.931 140.02ZM316.827 143.968C317.099 143.968 317.651 143.78 318.483 143.404C318.659 143.66 318.791 143.956 318.879 144.292C318.439 144.564 318.007 144.776 317.583 144.928C317.167 145.072 316.871 145.144 316.695 145.144C315.727 145.144 314.991 144.876 314.487 144.34C313.991 143.804 313.743 143.044 313.743 142.06C313.743 141.068 313.991 140.272 314.487 139.672C314.983 139.064 315.719 138.76 316.695 138.76C317.471 138.76 318.063 139.012 318.471 139.516C318.879 140.02 319.083 140.676 319.083 141.484C319.083 141.652 318.987 141.844 318.795 142.06L315.339 142C315.355 142.64 315.475 143.128 315.699 143.464C315.923 143.8 316.299 143.968 316.827 143.968ZM316.587 139.756C316.283 139.756 315.999 139.816 315.735 139.936C315.551 140.32 315.435 140.676 315.387 141.004C316.011 140.98 316.719 140.964 317.511 140.956C317.471 140.156 317.163 139.756 316.587 139.756ZM323.316 140.056C323.3 140.016 323.22 139.996 323.076 139.996C322.932 139.996 322.684 140.104 322.332 140.32C322.3 141.888 322.28 143.064 322.272 143.848L323.208 143.968C323.208 144.312 323.116 144.656 322.932 145H319.944L319.836 144.34C320.332 144.156 320.692 144.036 320.916 143.98L320.784 140.092C320.368 140.06 320.02 140 319.74 139.912L319.824 139.048C320.04 138.952 320.82 138.888 322.164 138.856C322.236 138.928 322.272 139.068 322.272 139.276C322.976 138.932 323.42 138.76 323.604 138.76C323.796 138.76 324.028 138.808 324.3 138.904C324.58 138.992 324.792 139.088 324.936 139.192V139.396C324.936 140.052 324.856 140.66 324.696 141.22C324.56 141.276 324.38 141.304 324.156 141.304C323.932 141.304 323.724 141.292 323.532 141.268C323.508 141.164 323.436 140.76 323.316 140.056ZM287.036 156.908L286.604 156.92C286.46 156.92 286.228 156.892 285.908 156.836C285.756 156.42 285.676 155.896 285.668 155.264C285.884 155.048 286.192 154.848 286.592 154.664C287 154.472 287.384 154.376 287.744 154.376C288.48 154.376 289.072 154.564 289.52 154.94C289.976 155.316 290.204 155.752 290.204 156.248C290.204 156.744 290.096 157.18 289.88 157.556C289.664 157.932 289.28 158.36 288.728 158.84L287.468 159.932H288.776C288.864 159.3 288.92 158.944 288.944 158.864C289.04 158.848 289.188 158.84 289.388 158.84C289.588 158.84 289.796 158.884 290.012 158.972C290.124 159.532 290.18 160.068 290.18 160.58L290.168 161H285.788C285.652 160.712 285.584 160.404 285.584 160.076C287.328 158.396 288.288 157.4 288.464 157.088C288.568 156.904 288.62 156.636 288.62 156.284C288.62 156.092 288.54 155.904 288.38 155.72C288.22 155.536 287.976 155.444 287.648 155.444C287.496 155.444 287.384 155.448 287.312 155.456C287.272 155.632 287.22 155.9 287.156 156.26C287.092 156.612 287.052 156.828 287.036 156.908ZM292.474 156.908L292.042 156.92C291.898 156.92 291.666 156.892 291.346 156.836C291.194 156.42 291.114 155.896 291.106 155.264C291.322 155.048 291.63 154.848 292.03 154.664C292.438 154.472 292.822 154.376 293.182 154.376C293.918 154.376 294.51 154.564 294.958 154.94C295.414 155.316 295.642 155.752 295.642 156.248C295.642 156.744 295.534 157.18 295.318 157.556C295.102 157.932 294.718 158.36 294.166 158.84L292.906 159.932H294.214C294.302 159.3 294.358 158.944 294.382 158.864C294.478 158.848 294.626 158.84 294.826 158.84C295.026 158.84 295.234 158.884 295.45 158.972C295.562 159.532 295.618 160.068 295.618 160.58L295.606 161H291.226C291.09 160.712 291.022 160.404 291.022 160.076C292.766 158.396 293.726 157.4 293.902 157.088C294.006 156.904 294.058 156.636 294.058 156.284C294.058 156.092 293.978 155.904 293.818 155.72C293.658 155.536 293.414 155.444 293.086 155.444C292.934 155.444 292.822 155.448 292.75 155.456C292.71 155.632 292.658 155.9 292.594 156.26C292.53 156.612 292.49 156.828 292.474 156.908ZM301.029 156.908L300.597 156.92C300.453 156.92 300.221 156.892 299.901 156.836C299.749 156.42 299.669 155.896 299.661 155.264C299.877 155.048 300.185 154.848 300.585 154.664C300.993 154.472 301.377 154.376 301.737 154.376C302.473 154.376 303.065 154.564 303.513 154.94C303.969 155.316 304.197 155.752 304.197 156.248C304.197 156.744 304.089 157.18 303.873 157.556C303.657 157.932 303.273 158.36 302.721 158.84L301.461 159.932H302.769C302.857 159.3 302.913 158.944 302.937 158.864C303.033 158.848 303.181 158.84 303.381 158.84C303.581 158.84 303.789 158.884 304.005 158.972C304.117 159.532 304.173 160.068 304.173 160.58L304.161 161H299.781C299.645 160.712 299.577 160.404 299.577 160.076C301.321 158.396 302.281 157.4 302.457 157.088C302.561 156.904 302.613 156.636 302.613 156.284C302.613 156.092 302.533 155.904 302.373 155.72C302.213 155.536 301.969 155.444 301.641 155.444C301.489 155.444 301.377 155.448 301.305 155.456C301.265 155.632 301.213 155.9 301.149 156.26C301.085 156.612 301.045 156.828 301.029 156.908ZM307.798 154.376C308.79 154.376 309.514 154.664 309.97 155.24C310.426 155.808 310.654 156.62 310.654 157.676C310.654 158.724 310.426 159.564 309.97 160.196C309.514 160.828 308.786 161.144 307.786 161.144C306.786 161.144 306.07 160.864 305.638 160.304C305.206 159.736 304.99 158.88 304.99 157.736C304.99 155.496 305.926 154.376 307.798 154.376ZM307.186 159.92C307.354 160.008 307.558 160.052 307.798 160.052C308.038 160.052 308.238 160.008 308.398 159.92C308.566 159.832 308.69 159.724 308.77 159.596C308.858 159.468 308.926 159.288 308.974 159.056C309.038 158.752 309.07 158.308 309.07 157.724C309.07 156.22 308.646 155.468 307.798 155.468C307.566 155.468 307.366 155.516 307.198 155.612C307.03 155.708 306.902 155.82 306.814 155.948C306.726 156.076 306.658 156.248 306.61 156.464C306.546 156.752 306.514 157.096 306.514 157.496C306.514 157.888 306.518 158.184 306.526 158.384C306.542 158.576 306.57 158.792 306.61 159.032C306.658 159.264 306.726 159.448 306.814 159.584C306.902 159.712 307.026 159.824 307.186 159.92ZM312.794 156.908L312.362 156.92C312.218 156.92 311.986 156.892 311.666 156.836C311.514 156.42 311.434 155.896 311.426 155.264C311.642 155.048 311.95 154.848 312.35 154.664C312.758 154.472 313.142 154.376 313.502 154.376C314.238 154.376 314.83 154.564 315.278 154.94C315.734 155.316 315.962 155.752 315.962 156.248C315.962 156.744 315.854 157.18 315.638 157.556C315.422 157.932 315.038 158.36 314.486 158.84L313.226 159.932H314.534C314.622 159.3 314.678 158.944 314.702 158.864C314.798 158.848 314.946 158.84 315.146 158.84C315.346 158.84 315.554 158.884 315.77 158.972C315.882 159.532 315.938 160.068 315.938 160.58L315.926 161H311.546C311.41 160.712 311.342 160.404 311.342 160.076C313.086 158.396 314.046 157.4 314.222 157.088C314.326 156.904 314.378 156.636 314.378 156.284C314.378 156.092 314.298 155.904 314.138 155.72C313.978 155.536 313.734 155.444 313.406 155.444C313.254 155.444 313.142 155.448 313.07 155.456C313.03 155.632 312.978 155.9 312.914 156.26C312.85 156.612 312.81 156.828 312.794 156.908ZM322.528 159.584L322.54 159.86C322.54 160.172 322.472 160.444 322.336 160.676H321.304L321.22 162.548C321.084 162.58 320.9 162.596 320.668 162.596C320.436 162.596 320.224 162.584 320.032 162.56L319.948 160.676H316.648C316.488 160.444 316.408 160.2 316.408 159.944C316.408 159.88 316.416 159.832 316.432 159.8L319.492 154.52H321.436C321.436 154.552 321.4 156.236 321.328 159.572L322.528 159.584ZM319.924 159.56L319.84 156.548L318.052 159.584C318.468 159.584 319.092 159.576 319.924 159.56Z" fill="black"/>
<path d="M8.27632 144.848C9.20432 144.848 9.66832 144.452 9.66832 143.66C9.66832 143.324 9.49232 143.04 9.14032 142.808C8.88432 142.632 8.53232 142.444 8.08432 142.244C7.64432 142.036 7.31232 141.872 7.08832 141.752C6.87232 141.632 6.62032 141.464 6.33232 141.248C5.78032 140.824 5.50432 140.296 5.50432 139.664C5.50432 139.032 5.74832 138.508 6.23632 138.092C6.73232 137.668 7.40032 137.456 8.24032 137.456C9.08032 137.456 9.97632 137.724 10.9283 138.26C10.9283 138.836 10.8683 139.46 10.7483 140.132C10.4923 140.212 10.1123 140.252 9.60832 140.252L9.26032 138.824C8.96432 138.736 8.64032 138.692 8.28832 138.692C7.93632 138.692 7.66432 138.768 7.47232 138.92C7.28032 139.072 7.18432 139.3 7.18432 139.604C7.18432 139.9 7.33232 140.168 7.62832 140.408C7.93232 140.64 8.29632 140.856 8.72032 141.056C9.14432 141.248 9.43632 141.384 9.59632 141.464C9.75632 141.544 9.96032 141.664 10.2083 141.824C10.4563 141.984 10.6443 142.136 10.7723 142.28C11.1003 142.664 11.2643 143.092 11.2643 143.564C11.2643 144.396 10.9883 145.036 10.4363 145.484C9.88432 145.932 9.16432 146.156 8.27632 146.156C7.80432 146.156 7.28432 146.076 6.71632 145.916C6.15632 145.748 5.68032 145.536 5.28832 145.28C5.30432 144.792 5.36832 144.132 5.48032 143.3C5.80032 143.236 6.18432 143.204 6.63232 143.204L6.88432 144.644C7.32432 144.78 7.78832 144.848 8.27632 144.848ZM15.1912 144.968C15.4632 144.968 16.0152 144.78 16.8472 144.404C17.0232 144.66 17.1552 144.956 17.2432 145.292C16.8032 145.564 16.3712 145.776 15.9472 145.928C15.5312 146.072 15.2352 146.144 15.0592 146.144C14.0912 146.144 13.3552 145.876 12.8512 145.34C12.3552 144.804 12.1072 144.044 12.1072 143.06C12.1072 142.068 12.3552 141.272 12.8512 140.672C13.3472 140.064 14.0832 139.76 15.0592 139.76C15.8352 139.76 16.4272 140.012 16.8352 140.516C17.2432 141.02 17.4472 141.676 17.4472 142.484C17.4472 142.652 17.3512 142.844 17.1592 143.06L13.7032 143C13.7192 143.64 13.8392 144.128 14.0632 144.464C14.2872 144.8 14.6632 144.968 15.1912 144.968ZM14.9512 140.756C14.6472 140.756 14.3632 140.816 14.0992 140.936C13.9152 141.32 13.7992 141.676 13.7512 142.004C14.3752 141.98 15.0832 141.964 15.8752 141.956C15.8352 141.156 15.5272 140.756 14.9512 140.756ZM21.9678 146.144C21.5038 146.144 21.0158 145.992 20.5038 145.688C20.4878 146.536 20.4798 147.176 20.4798 147.608L21.4158 147.716C21.4158 148.068 21.3238 148.416 21.1398 148.76H18.1518L18.0438 148.1C18.5558 147.908 18.9158 147.788 19.1238 147.74L18.8958 141.08C18.5198 141.048 18.2038 140.988 17.9478 140.9C17.9478 140.604 17.9758 140.316 18.0318 140.036C18.3678 139.964 19.1118 139.9 20.2638 139.844C20.3278 139.948 20.3998 140.124 20.4798 140.372C21.3118 139.964 21.8598 139.76 22.1238 139.76C22.9158 139.76 23.5038 140.04 23.8878 140.6C24.2718 141.152 24.4638 141.896 24.4638 142.832C24.4638 143.768 24.2478 144.556 23.8158 145.196C23.3918 145.828 22.7758 146.144 21.9678 146.144ZM20.5758 141.428L20.5278 144.464C20.7118 144.632 20.9278 144.78 21.1758 144.908C21.4318 145.028 21.6478 145.088 21.8238 145.088C22.5278 145.088 22.8798 144.412 22.8798 143.06C22.8798 142.556 22.8278 142.152 22.7238 141.848C22.6278 141.544 22.5118 141.332 22.3758 141.212C22.2478 141.084 22.0958 141.02 21.9198 141.02C21.5678 141.02 21.1198 141.156 20.5758 141.428ZM26.084 146.144L25.82 146.132C25.772 146.044 25.708 145.88 25.628 145.64C25.548 145.4 25.504 145.22 25.496 145.1C25.456 144.308 25.412 142.936 25.364 140.984H24.524L24.56 140.3C24.744 140.172 24.964 140.056 25.22 139.952L26.192 138.416C26.504 138.448 26.748 138.532 26.924 138.668L26.912 139.808C27.416 139.824 27.884 139.872 28.316 139.952C28.316 140.272 28.216 140.616 28.016 140.984H26.9C26.868 142.664 26.848 143.924 26.84 144.764C27.16 144.796 27.596 144.888 28.148 145.04L28.136 145.664C28 145.752 27.696 145.856 27.224 145.976C26.76 146.088 26.38 146.144 26.084 146.144ZM31.9959 144.968C32.2679 144.968 32.8199 144.78 33.6519 144.404C33.8279 144.66 33.9599 144.956 34.0479 145.292C33.6079 145.564 33.1759 145.776 32.7519 145.928C32.3359 146.072 32.0399 146.144 31.8639 146.144C30.8959 146.144 30.1599 145.876 29.6559 145.34C29.1599 144.804 28.9119 144.044 28.9119 143.06C28.9119 142.068 29.1599 141.272 29.6559 140.672C30.1519 140.064 30.8879 139.76 31.8639 139.76C32.6399 139.76 33.2319 140.012 33.6399 140.516C34.0479 141.02 34.2519 141.676 34.2519 142.484C34.2519 142.652 34.1559 142.844 33.9639 143.06L30.5079 143C30.5239 143.64 30.6439 144.128 30.8679 144.464C31.0919 144.8 31.4679 144.968 31.9959 144.968ZM31.7559 140.756C31.4519 140.756 31.1679 140.816 30.9039 140.936C30.7199 141.32 30.6039 141.676 30.5559 142.004C31.1799 141.98 31.8879 141.964 32.6799 141.956C32.6399 141.156 32.3319 140.756 31.7559 140.756ZM43.3925 142.532C43.3765 141.972 43.3085 141.584 43.1885 141.368C43.0765 141.152 42.8125 141.044 42.3965 141.044C41.9885 141.044 41.6085 141.132 41.2565 141.308C41.2565 142.332 41.2045 143.512 41.1005 144.848L42.0485 144.956C42.0485 145.284 41.9565 145.632 41.7725 146H38.7845L38.6765 145.34C39.0925 145.188 39.4565 145.068 39.7685 144.98L39.6725 142.484C39.6565 141.964 39.5925 141.596 39.4805 141.38C39.3765 141.156 39.1725 141.044 38.8685 141.044C38.7085 141.044 38.4765 141.072 38.1725 141.128C37.8685 141.184 37.6365 141.244 37.4765 141.308C37.4765 141.332 37.4405 142.512 37.3685 144.848L38.3045 144.956C38.3045 145.308 38.2125 145.656 38.0285 146H35.0405L34.9325 145.34C35.4045 145.156 35.7645 145.036 36.0125 144.98L35.8565 141.104C35.5285 141.072 35.2125 141.012 34.9085 140.924L34.9685 140.06C35.1045 140.02 35.3965 139.972 35.8445 139.916C36.2925 139.86 36.6325 139.832 36.8645 139.832C36.8965 139.856 36.9565 139.932 37.0445 140.06C37.1325 140.18 37.1925 140.276 37.2245 140.348C37.4965 140.212 37.8245 140.08 38.2085 139.952C38.6005 139.824 38.8405 139.76 38.9285 139.76C39.7765 139.76 40.3965 139.98 40.7885 140.42C41.0925 140.26 41.4605 140.112 41.8925 139.976C42.3245 139.832 42.5925 139.76 42.6965 139.76C43.4565 139.76 44.0245 139.94 44.4005 140.3C44.7765 140.66 44.9645 141.26 44.9645 142.1C44.9645 142.564 44.9285 143.48 44.8565 144.848L45.7925 144.956C45.7925 145.308 45.7005 145.656 45.5165 146H42.5405L42.4325 145.34C42.8085 145.188 43.1525 145.068 43.4645 144.98C43.4565 144.796 43.4485 144.536 43.4405 144.2C43.4245 143.648 43.4085 143.092 43.3925 142.532ZM48.2133 137.084C48.4053 137.084 48.5293 137.088 48.5853 137.096C48.5853 137.512 48.5333 137.876 48.4293 138.188L48.3933 140.204C49.1373 139.908 49.6493 139.76 49.9293 139.76C50.7213 139.76 51.3053 140.056 51.6813 140.648C52.0653 141.232 52.2573 141.992 52.2573 142.928C52.2573 143.864 52.0453 144.636 51.6213 145.244C51.1973 145.844 50.5813 146.144 49.7733 146.144C49.2453 146.144 48.6893 145.944 48.1053 145.544C48.0733 145.728 48.0253 145.896 47.9613 146.048C47.8173 146.064 47.6733 146.072 47.5293 146.072C47.3853 146.072 47.2053 146.048 46.9893 146L46.7373 138.32C46.3613 138.28 46.0453 138.22 45.7893 138.14C45.7893 137.844 45.8173 137.556 45.8733 137.276C46.3373 137.148 47.1173 137.084 48.2133 137.084ZM49.7253 141.02C49.2053 141.02 48.7573 141.112 48.3813 141.296C48.3653 142.64 48.3493 143.656 48.3333 144.344C48.5253 144.504 48.7453 144.648 48.9933 144.776C49.2413 144.904 49.4533 144.968 49.6293 144.968C50.3253 144.968 50.6733 144.328 50.6733 143.048C50.6733 142.504 50.5973 142.032 50.4453 141.632C50.3013 141.224 50.0613 141.02 49.7253 141.02ZM55.6209 144.968C55.8929 144.968 56.4449 144.78 57.2769 144.404C57.4529 144.66 57.5849 144.956 57.6729 145.292C57.2329 145.564 56.8009 145.776 56.3769 145.928C55.9609 146.072 55.6649 146.144 55.4889 146.144C54.5209 146.144 53.7849 145.876 53.2809 145.34C52.7849 144.804 52.5369 144.044 52.5369 143.06C52.5369 142.068 52.7849 141.272 53.2809 140.672C53.7769 140.064 54.5129 139.76 55.4889 139.76C56.2649 139.76 56.8569 140.012 57.2649 140.516C57.6729 141.02 57.8769 141.676 57.8769 142.484C57.8769 142.652 57.7809 142.844 57.5889 143.06L54.1329 143C54.1489 143.64 54.2689 144.128 54.4929 144.464C54.7169 144.8 55.0929 144.968 55.6209 144.968ZM55.3809 140.756C55.0769 140.756 54.7929 140.816 54.5289 140.936C54.3449 141.32 54.2289 141.676 54.1809 142.004C54.8049 141.98 55.5129 141.964 56.3049 141.956C56.2649 141.156 55.9569 140.756 55.3809 140.756ZM62.1095 141.056C62.0935 141.016 62.0135 140.996 61.8695 140.996C61.7255 140.996 61.4775 141.104 61.1255 141.32C61.0935 142.888 61.0735 144.064 61.0655 144.848L62.0015 144.968C62.0015 145.312 61.9095 145.656 61.7255 146H58.7375L58.6295 145.34C59.1255 145.156 59.4855 145.036 59.7095 144.98L59.5775 141.092C59.1615 141.06 58.8135 141 58.5335 140.912L58.6175 140.048C58.8335 139.952 59.6135 139.888 60.9575 139.856C61.0295 139.928 61.0655 140.068 61.0655 140.276C61.7695 139.932 62.2135 139.76 62.3975 139.76C62.5895 139.76 62.8215 139.808 63.0935 139.904C63.3735 139.992 63.5855 140.088 63.7295 140.192V140.396C63.7295 141.052 63.6495 141.66 63.4895 142.22C63.3535 142.276 63.1735 142.304 62.9495 142.304C62.7255 142.304 62.5175 142.292 62.3255 142.268C62.3015 142.164 62.2295 141.76 62.1095 141.056ZM17.3812 157.908L16.9492 157.92C16.8052 157.92 16.5732 157.892 16.2532 157.836C16.1012 157.42 16.0212 156.896 16.0132 156.264C16.2292 156.048 16.5372 155.848 16.9372 155.664C17.3452 155.472 17.7292 155.376 18.0892 155.376C18.8252 155.376 19.4172 155.564 19.8652 155.94C20.3212 156.316 20.5492 156.752 20.5492 157.248C20.5492 157.744 20.4412 158.18 20.2252 158.556C20.0092 158.932 19.6252 159.36 19.0732 159.84L17.8132 160.932H19.1212C19.2092 160.3 19.2652 159.944 19.2892 159.864C19.3852 159.848 19.5332 159.84 19.7332 159.84C19.9332 159.84 20.1412 159.884 20.3572 159.972C20.4692 160.532 20.5252 161.068 20.5252 161.58L20.5132 162H16.1332C15.9972 161.712 15.9292 161.404 15.9292 161.076C17.6732 159.396 18.6332 158.4 18.8092 158.088C18.9132 157.904 18.9652 157.636 18.9652 157.284C18.9652 157.092 18.8852 156.904 18.7252 156.72C18.5652 156.536 18.3212 156.444 17.9932 156.444C17.8412 156.444 17.7292 156.448 17.6572 156.456C17.6172 156.632 17.5652 156.9 17.5012 157.26C17.4372 157.612 17.3972 157.828 17.3812 157.908ZM22.8187 157.908L22.3867 157.92C22.2427 157.92 22.0107 157.892 21.6907 157.836C21.5387 157.42 21.4587 156.896 21.4507 156.264C21.6667 156.048 21.9747 155.848 22.3747 155.664C22.7827 155.472 23.1667 155.376 23.5267 155.376C24.2627 155.376 24.8547 155.564 25.3027 155.94C25.7587 156.316 25.9867 156.752 25.9867 157.248C25.9867 157.744 25.8787 158.18 25.6627 158.556C25.4467 158.932 25.0627 159.36 24.5107 159.84L23.2507 160.932H24.5587C24.6467 160.3 24.7027 159.944 24.7267 159.864C24.8227 159.848 24.9707 159.84 25.1707 159.84C25.3707 159.84 25.5787 159.884 25.7947 159.972C25.9067 160.532 25.9627 161.068 25.9627 161.58L25.9507 162H21.5707C21.4347 161.712 21.3667 161.404 21.3667 161.076C23.1107 159.396 24.0707 158.4 24.2467 158.088C24.3507 157.904 24.4027 157.636 24.4027 157.284C24.4027 157.092 24.3227 156.904 24.1627 156.72C24.0027 156.536 23.7587 156.444 23.4307 156.444C23.2787 156.444 23.1667 156.448 23.0947 156.456C23.0547 156.632 23.0027 156.9 22.9387 157.26C22.8747 157.612 22.8347 157.828 22.8187 157.908ZM31.3734 157.908L30.9414 157.92C30.7974 157.92 30.5654 157.892 30.2454 157.836C30.0934 157.42 30.0134 156.896 30.0054 156.264C30.2214 156.048 30.5294 155.848 30.9294 155.664C31.3374 155.472 31.7214 155.376 32.0814 155.376C32.8174 155.376 33.4094 155.564 33.8574 155.94C34.3134 156.316 34.5414 156.752 34.5414 157.248C34.5414 157.744 34.4334 158.18 34.2174 158.556C34.0014 158.932 33.6174 159.36 33.0654 159.84L31.8054 160.932H33.1134C33.2014 160.3 33.2574 159.944 33.2814 159.864C33.3774 159.848 33.5254 159.84 33.7254 159.84C33.9254 159.84 34.1334 159.884 34.3494 159.972C34.4614 160.532 34.5174 161.068 34.5174 161.58L34.5054 162H30.1254C29.9894 161.712 29.9214 161.404 29.9214 161.076C31.6654 159.396 32.6254 158.4 32.8014 158.088C32.9054 157.904 32.9574 157.636 32.9574 157.284C32.9574 157.092 32.8774 156.904 32.7174 156.72C32.5574 156.536 32.3134 156.444 31.9854 156.444C31.8334 156.444 31.7214 156.448 31.6494 156.456C31.6094 156.632 31.5574 156.9 31.4934 157.26C31.4294 157.612 31.3894 157.828 31.3734 157.908ZM38.1429 155.376C39.1349 155.376 39.8589 155.664 40.3149 156.24C40.7709 156.808 40.9989 157.62 40.9989 158.676C40.9989 159.724 40.7709 160.564 40.3149 161.196C39.8589 161.828 39.1309 162.144 38.1309 162.144C37.1309 162.144 36.4149 161.864 35.9829 161.304C35.5509 160.736 35.3349 159.88 35.3349 158.736C35.3349 156.496 36.2709 155.376 38.1429 155.376ZM37.5309 160.92C37.6989 161.008 37.9029 161.052 38.1429 161.052C38.3829 161.052 38.5829 161.008 38.7429 160.92C38.9109 160.832 39.0349 160.724 39.1149 160.596C39.2029 160.468 39.2709 160.288 39.3189 160.056C39.3829 159.752 39.4149 159.308 39.4149 158.724C39.4149 157.22 38.9909 156.468 38.1429 156.468C37.9109 156.468 37.7109 156.516 37.5429 156.612C37.3749 156.708 37.2469 156.82 37.1589 156.948C37.0709 157.076 37.0029 157.248 36.9549 157.464C36.8909 157.752 36.8589 158.096 36.8589 158.496C36.8589 158.888 36.8629 159.184 36.8709 159.384C36.8869 159.576 36.9149 159.792 36.9549 160.032C37.0029 160.264 37.0709 160.448 37.1589 160.584C37.2469 160.712 37.3709 160.824 37.5309 160.92ZM43.139 157.908L42.707 157.92C42.563 157.92 42.331 157.892 42.011 157.836C41.859 157.42 41.779 156.896 41.771 156.264C41.987 156.048 42.295 155.848 42.695 155.664C43.103 155.472 43.487 155.376 43.847 155.376C44.583 155.376 45.175 155.564 45.623 155.94C46.079 156.316 46.307 156.752 46.307 157.248C46.307 157.744 46.199 158.18 45.983 158.556C45.767 158.932 45.383 159.36 44.831 159.84L43.571 160.932H44.879C44.967 160.3 45.023 159.944 45.047 159.864C45.143 159.848 45.291 159.84 45.491 159.84C45.691 159.84 45.899 159.884 46.115 159.972C46.227 160.532 46.283 161.068 46.283 161.58L46.271 162H41.891C41.755 161.712 41.687 161.404 41.687 161.076C43.431 159.396 44.391 158.4 44.567 158.088C44.671 157.904 44.723 157.636 44.723 157.284C44.723 157.092 44.643 156.904 44.483 156.72C44.323 156.536 44.079 156.444 43.751 156.444C43.599 156.444 43.487 156.448 43.415 156.456C43.375 156.632 43.323 156.9 43.259 157.26C43.195 157.612 43.155 157.828 43.139 157.908ZM52.8725 160.584L52.8845 160.86C52.8845 161.172 52.8165 161.444 52.6805 161.676H51.6485L51.5645 163.548C51.4285 163.58 51.2445 163.596 51.0125 163.596C50.7805 163.596 50.5685 163.584 50.3765 163.56L50.2925 161.676H46.9925C46.8325 161.444 46.7525 161.2 46.7525 160.944C46.7525 160.88 46.7605 160.832 46.7765 160.8L49.8365 155.52H51.7805C51.7805 155.552 51.7445 157.236 51.6725 160.572L52.8725 160.584ZM50.2685 160.56L50.1845 157.548L48.3965 160.584C48.8125 160.584 49.4365 160.576 50.2685 160.56Z" fill="black"/>
<path d="M302.523 134.047L302.119 123.985" stroke="#4F4F4F"/>
</svg>
