<svg width="325" height="173" viewBox="0 0 325 173" fill="none" xmlns="http://www.w3.org/2000/svg">
<rect x="306" width="19" height="155" rx="9.5" fill="#F3F3F3"/>
<rect x="245" width="19" height="155" rx="9.5" fill="#F3F3F3"/>
<rect x="183" width="19" height="155" rx="9.5" fill="#F3F3F3"/>
<rect x="119" width="19" height="155" rx="9.5" fill="#F3F3F3"/>
<rect x="60" width="19" height="155" rx="9.5" fill="#F3F3F3"/>
<rect width="19" height="155" rx="9.5" fill="#F3F3F3"/>
<path opacity="0.5" d="M4.58008 167.717V162.18H5.61133V167.717C5.61133 168.233 5.5057 168.668 5.29443 169.022C5.08317 169.377 4.79134 169.647 4.41895 169.833C4.05013 170.016 3.62581 170.107 3.146 170.107C2.66618 170.107 2.24007 170.025 1.86768 169.86C1.49528 169.696 1.20345 169.445 0.992188 169.108C0.780924 168.772 0.675293 168.347 0.675293 167.835H1.71191C1.71191 168.165 1.77279 168.435 1.89453 168.646C2.01628 168.858 2.18457 169.014 2.39941 169.114C2.61784 169.214 2.8667 169.264 3.146 169.264C3.41813 169.264 3.66162 169.207 3.87646 169.092C4.09489 168.974 4.26676 168.8 4.39209 168.571C4.51742 168.339 4.58008 168.054 4.58008 167.717ZM10.7729 168.657V164.188H11.772V170H10.8213L10.7729 168.657ZM10.9609 167.433L11.3745 167.422C11.3745 167.809 11.3333 168.167 11.251 168.496C11.1722 168.822 11.0433 169.105 10.8643 169.345C10.6852 169.585 10.4507 169.773 10.1606 169.909C9.87061 170.041 9.5179 170.107 9.10254 170.107C8.81966 170.107 8.56006 170.066 8.32373 169.984C8.09098 169.902 7.89046 169.774 7.72217 169.603C7.55387 169.431 7.42318 169.207 7.33008 168.931C7.24056 168.655 7.1958 168.324 7.1958 167.938V164.188H8.18945V167.948C8.18945 168.21 8.2181 168.426 8.27539 168.598C8.33626 168.766 8.41683 168.901 8.51709 169.001C8.62093 169.098 8.73551 169.166 8.86084 169.205C8.98975 169.244 9.12223 169.264 9.2583 169.264C9.68083 169.264 10.0156 169.184 10.2627 169.022C10.5098 168.858 10.687 168.638 10.7944 168.362C10.9054 168.083 10.9609 167.773 10.9609 167.433ZM14.2803 165.429V170H13.2866V164.188H14.2266L14.2803 165.429ZM14.0439 166.874L13.6304 166.858C13.634 166.46 13.693 166.093 13.8076 165.757C13.9222 165.417 14.0833 165.121 14.291 164.871C14.4987 164.62 14.7458 164.427 15.0322 164.291C15.3223 164.151 15.6427 164.081 15.9937 164.081C16.2801 164.081 16.5379 164.12 16.7671 164.199C16.9963 164.274 17.1914 164.396 17.3525 164.564C17.5173 164.733 17.6426 164.951 17.7285 165.22C17.8145 165.485 17.8574 165.809 17.8574 166.192V170H16.8584V166.181C16.8584 165.877 16.8136 165.633 16.7241 165.451C16.6346 165.264 16.5039 165.13 16.332 165.048C16.1602 164.962 15.9489 164.919 15.6982 164.919C15.4512 164.919 15.2256 164.971 15.0215 165.075C14.821 165.179 14.6473 165.322 14.5005 165.504C14.3573 165.687 14.2445 165.896 14.1621 166.133C14.0833 166.366 14.0439 166.613 14.0439 166.874Z" fill="black"/>
<path opacity="0.5" d="M65.4829 167.717V162.18H66.5142V167.717C66.5142 168.233 66.4085 168.668 66.1973 169.022C65.986 169.377 65.6942 169.647 65.3218 169.833C64.953 170.016 64.5286 170.107 64.0488 170.107C63.569 170.107 63.1429 170.025 62.7705 169.86C62.3981 169.696 62.1063 169.445 61.895 169.108C61.6838 168.772 61.5781 168.347 61.5781 167.835H62.6147C62.6147 168.165 62.6756 168.435 62.7974 168.646C62.9191 168.858 63.0874 169.014 63.3022 169.114C63.5207 169.214 63.7695 169.264 64.0488 169.264C64.321 169.264 64.5645 169.207 64.7793 169.092C64.9977 168.974 65.1696 168.8 65.2949 168.571C65.4202 168.339 65.4829 168.054 65.4829 167.717ZM71.6758 168.657V164.188H72.6748V170H71.7241L71.6758 168.657ZM71.8638 167.433L72.2773 167.422C72.2773 167.809 72.2362 168.167 72.1538 168.496C72.075 168.822 71.9461 169.105 71.7671 169.345C71.5881 169.585 71.3535 169.773 71.0635 169.909C70.7734 170.041 70.4207 170.107 70.0054 170.107C69.7225 170.107 69.4629 170.066 69.2266 169.984C68.9938 169.902 68.7933 169.774 68.625 169.603C68.4567 169.431 68.326 169.207 68.2329 168.931C68.1434 168.655 68.0986 168.324 68.0986 167.938V164.188H69.0923V167.948C69.0923 168.21 69.1209 168.426 69.1782 168.598C69.2391 168.766 69.3197 168.901 69.4199 169.001C69.5238 169.098 69.6383 169.166 69.7637 169.205C69.8926 169.244 70.0251 169.264 70.1611 169.264C70.5837 169.264 70.9185 169.184 71.1655 169.022C71.4126 168.858 71.5898 168.638 71.6973 168.362C71.8083 168.083 71.8638 167.773 71.8638 167.433ZM75.269 161.75V170H74.27V161.75H75.269Z" fill="black"/>
<path opacity="0.5" d="M122.524 162.873L119.935 170H118.877L121.858 162.18H122.54L122.524 162.873ZM124.694 170L122.1 162.873L122.083 162.18H122.766L125.757 170H124.694ZM124.56 167.105V167.954H120.166V167.105H124.56ZM130.146 168.657V164.188H131.145V170H130.194L130.146 168.657ZM130.333 167.433L130.747 167.422C130.747 167.809 130.706 168.167 130.624 168.496C130.545 168.822 130.416 169.105 130.237 169.345C130.058 169.585 129.823 169.773 129.533 169.909C129.243 170.041 128.89 170.107 128.475 170.107C128.192 170.107 127.933 170.066 127.696 169.984C127.464 169.902 127.263 169.774 127.095 169.603C126.926 169.431 126.796 169.207 126.703 168.931C126.613 168.655 126.568 168.324 126.568 167.938V164.188H127.562V167.948C127.562 168.21 127.591 168.426 127.648 168.598C127.709 168.766 127.789 168.901 127.89 169.001C127.993 169.098 128.108 169.166 128.233 169.205C128.362 169.244 128.495 169.264 128.631 169.264C129.053 169.264 129.388 169.184 129.635 169.022C129.882 168.858 130.06 168.638 130.167 168.362C130.278 168.083 130.333 167.773 130.333 167.433ZM136.424 164.188H137.327V169.876C137.327 170.389 137.223 170.825 137.015 171.187C136.807 171.549 136.517 171.823 136.145 172.009C135.776 172.199 135.35 172.293 134.867 172.293C134.666 172.293 134.43 172.261 134.158 172.197C133.889 172.136 133.624 172.03 133.363 171.88C133.105 171.733 132.888 171.534 132.713 171.284L133.234 170.693C133.477 170.986 133.732 171.191 133.997 171.305C134.265 171.42 134.53 171.477 134.792 171.477C135.107 171.477 135.379 171.418 135.608 171.3C135.837 171.182 136.014 171.006 136.14 170.773C136.269 170.544 136.333 170.261 136.333 169.925V165.467L136.424 164.188ZM132.423 167.159V167.046C132.423 166.602 132.475 166.199 132.579 165.837C132.686 165.472 132.838 165.159 133.035 164.897C133.236 164.636 133.477 164.436 133.76 164.296C134.043 164.153 134.362 164.081 134.716 164.081C135.082 164.081 135.4 164.146 135.672 164.274C135.948 164.4 136.181 164.584 136.371 164.828C136.564 165.068 136.716 165.358 136.827 165.698C136.938 166.038 137.015 166.423 137.058 166.853V167.347C137.019 167.773 136.942 168.156 136.827 168.496C136.716 168.836 136.564 169.126 136.371 169.366C136.181 169.606 135.948 169.791 135.672 169.919C135.397 170.045 135.074 170.107 134.706 170.107C134.358 170.107 134.043 170.034 133.76 169.887C133.481 169.74 133.241 169.535 133.041 169.27C132.84 169.005 132.686 168.693 132.579 168.335C132.475 167.973 132.423 167.581 132.423 167.159ZM133.417 167.046V167.159C133.417 167.449 133.445 167.721 133.502 167.975C133.563 168.229 133.655 168.453 133.776 168.646C133.902 168.84 134.061 168.992 134.254 169.103C134.448 169.21 134.679 169.264 134.947 169.264C135.277 169.264 135.549 169.194 135.764 169.055C135.979 168.915 136.149 168.731 136.274 168.501C136.403 168.272 136.503 168.023 136.575 167.755V166.46C136.535 166.264 136.474 166.074 136.392 165.891C136.313 165.705 136.209 165.54 136.081 165.397C135.955 165.25 135.799 165.134 135.613 165.048C135.427 164.962 135.209 164.919 134.958 164.919C134.686 164.919 134.451 164.976 134.254 165.091C134.061 165.202 133.902 165.356 133.776 165.553C133.655 165.746 133.563 165.972 133.502 166.229C133.445 166.484 133.417 166.756 133.417 167.046Z" fill="black"/>
<path opacity="0.5" d="M186.106 168.023C186.106 167.841 186.077 167.68 186.02 167.54C185.966 167.397 185.87 167.268 185.73 167.153C185.594 167.039 185.404 166.93 185.161 166.826C184.921 166.722 184.616 166.616 184.248 166.509C183.861 166.394 183.512 166.267 183.2 166.127C182.889 165.984 182.622 165.821 182.4 165.639C182.178 165.456 182.008 165.247 181.89 165.01C181.771 164.774 181.712 164.504 181.712 164.199C181.712 163.895 181.775 163.614 181.9 163.356C182.026 163.098 182.205 162.874 182.438 162.685C182.674 162.491 182.955 162.341 183.281 162.233C183.607 162.126 183.97 162.072 184.371 162.072C184.958 162.072 185.456 162.185 185.864 162.411C186.276 162.633 186.589 162.924 186.804 163.286C187.019 163.644 187.126 164.027 187.126 164.436H186.095C186.095 164.142 186.033 163.882 185.907 163.657C185.782 163.428 185.592 163.249 185.338 163.12C185.084 162.987 184.761 162.921 184.371 162.921C184.002 162.921 183.698 162.976 183.458 163.087C183.218 163.198 183.039 163.349 182.921 163.539C182.806 163.728 182.749 163.945 182.749 164.188C182.749 164.353 182.783 164.504 182.851 164.64C182.923 164.772 183.032 164.896 183.179 165.01C183.329 165.125 183.519 165.23 183.748 165.327C183.981 165.424 184.258 165.517 184.581 165.606C185.025 165.732 185.408 165.871 185.73 166.025C186.052 166.179 186.317 166.353 186.525 166.546C186.736 166.736 186.892 166.953 186.992 167.196C187.096 167.436 187.148 167.708 187.148 168.013C187.148 168.331 187.083 168.62 186.955 168.877C186.826 169.135 186.641 169.355 186.401 169.538C186.161 169.721 185.873 169.862 185.537 169.962C185.204 170.059 184.831 170.107 184.419 170.107C184.058 170.107 183.701 170.057 183.351 169.957C183.003 169.857 182.686 169.706 182.4 169.506C182.117 169.305 181.89 169.058 181.718 168.765C181.549 168.467 181.465 168.124 181.465 167.733H182.497C182.497 168.002 182.549 168.233 182.652 168.426C182.756 168.616 182.898 168.774 183.077 168.899C183.259 169.024 183.465 169.117 183.694 169.178C183.927 169.236 184.169 169.264 184.419 169.264C184.781 169.264 185.087 169.214 185.338 169.114C185.589 169.014 185.778 168.87 185.907 168.684C186.04 168.498 186.106 168.278 186.106 168.023ZM190.73 170.107C190.326 170.107 189.959 170.039 189.629 169.903C189.304 169.764 189.022 169.569 188.786 169.318C188.553 169.067 188.374 168.77 188.249 168.426C188.124 168.083 188.061 167.707 188.061 167.298V167.073C188.061 166.6 188.131 166.179 188.271 165.811C188.41 165.438 188.6 165.123 188.84 164.865C189.08 164.607 189.352 164.412 189.656 164.28C189.961 164.147 190.276 164.081 190.602 164.081C191.017 164.081 191.375 164.153 191.676 164.296C191.98 164.439 192.229 164.64 192.422 164.897C192.616 165.152 192.759 165.452 192.852 165.8C192.945 166.144 192.992 166.52 192.992 166.928V167.374H188.652V166.562H191.998V166.487C191.984 166.229 191.93 165.979 191.837 165.735C191.747 165.492 191.604 165.291 191.407 165.134C191.21 164.976 190.942 164.897 190.602 164.897C190.376 164.897 190.168 164.946 189.979 165.042C189.789 165.136 189.626 165.275 189.49 165.461C189.354 165.648 189.248 165.875 189.173 166.144C189.098 166.412 189.06 166.722 189.06 167.073V167.298C189.06 167.574 189.098 167.834 189.173 168.077C189.252 168.317 189.364 168.528 189.511 168.711C189.662 168.894 189.842 169.037 190.054 169.141C190.269 169.244 190.512 169.296 190.784 169.296C191.135 169.296 191.432 169.225 191.676 169.082C191.919 168.938 192.132 168.747 192.315 168.507L192.917 168.985C192.791 169.175 192.632 169.355 192.438 169.527C192.245 169.699 192.007 169.839 191.724 169.946C191.445 170.054 191.114 170.107 190.73 170.107ZM195.146 165.306V172.234H194.146V164.188H195.06L195.146 165.306ZM199.061 167.046V167.159C199.061 167.581 199.011 167.973 198.911 168.335C198.81 168.693 198.664 169.005 198.47 169.27C198.28 169.535 198.046 169.74 197.767 169.887C197.487 170.034 197.167 170.107 196.805 170.107C196.436 170.107 196.111 170.047 195.828 169.925C195.545 169.803 195.305 169.626 195.108 169.393C194.911 169.16 194.753 168.881 194.635 168.555C194.521 168.229 194.442 167.862 194.399 167.454V166.853C194.442 166.423 194.522 166.038 194.641 165.698C194.759 165.358 194.915 165.068 195.108 164.828C195.305 164.584 195.543 164.4 195.822 164.274C196.102 164.146 196.424 164.081 196.789 164.081C197.154 164.081 197.478 164.153 197.761 164.296C198.044 164.436 198.282 164.636 198.476 164.897C198.669 165.159 198.814 165.472 198.911 165.837C199.011 166.199 199.061 166.602 199.061 167.046ZM198.062 167.159V167.046C198.062 166.756 198.032 166.484 197.971 166.229C197.91 165.972 197.815 165.746 197.686 165.553C197.561 165.356 197.4 165.202 197.203 165.091C197.006 164.976 196.771 164.919 196.499 164.919C196.248 164.919 196.03 164.962 195.844 165.048C195.661 165.134 195.505 165.25 195.376 165.397C195.248 165.54 195.142 165.705 195.06 165.891C194.981 166.074 194.922 166.264 194.882 166.46V167.852C194.954 168.102 195.054 168.339 195.183 168.561C195.312 168.779 195.484 168.956 195.699 169.092C195.914 169.225 196.184 169.291 196.51 169.291C196.778 169.291 197.009 169.236 197.203 169.125C197.4 169.01 197.561 168.854 197.686 168.657C197.815 168.46 197.91 168.235 197.971 167.98C198.032 167.723 198.062 167.449 198.062 167.159ZM202.762 164.188V164.951H199.62V164.188H202.762ZM200.683 162.776H201.677V168.561C201.677 168.757 201.707 168.906 201.768 169.006C201.829 169.107 201.908 169.173 202.004 169.205C202.101 169.237 202.205 169.253 202.316 169.253C202.398 169.253 202.484 169.246 202.574 169.232C202.667 169.214 202.737 169.2 202.783 169.189L202.789 170C202.71 170.025 202.606 170.048 202.477 170.07C202.352 170.095 202.2 170.107 202.021 170.107C201.777 170.107 201.553 170.059 201.349 169.962C201.145 169.866 200.982 169.705 200.86 169.479C200.742 169.25 200.683 168.942 200.683 168.555V162.776Z" fill="black"/>
<path opacity="0.5" d="M252.764 165.843V166.337C252.764 166.924 252.69 167.451 252.543 167.916C252.397 168.382 252.185 168.777 251.91 169.103C251.634 169.429 251.303 169.678 250.916 169.85C250.533 170.021 250.103 170.107 249.627 170.107C249.165 170.107 248.741 170.021 248.354 169.85C247.971 169.678 247.638 169.429 247.355 169.103C247.076 168.777 246.859 168.382 246.705 167.916C246.551 167.451 246.474 166.924 246.474 166.337V165.843C246.474 165.256 246.549 164.731 246.7 164.269C246.854 163.804 247.07 163.408 247.35 163.082C247.629 162.753 247.96 162.502 248.343 162.33C248.73 162.158 249.154 162.072 249.616 162.072C250.092 162.072 250.522 162.158 250.905 162.33C251.292 162.502 251.623 162.753 251.899 163.082C252.178 163.408 252.391 163.804 252.538 164.269C252.688 164.731 252.764 165.256 252.764 165.843ZM251.738 166.337V165.832C251.738 165.367 251.689 164.955 251.593 164.597C251.5 164.239 251.362 163.938 251.179 163.694C250.997 163.451 250.773 163.266 250.508 163.141C250.246 163.016 249.949 162.953 249.616 162.953C249.294 162.953 249.002 163.016 248.741 163.141C248.483 163.266 248.261 163.451 248.075 163.694C247.892 163.938 247.751 164.239 247.65 164.597C247.55 164.955 247.5 165.367 247.5 165.832V166.337C247.5 166.806 247.55 167.221 247.65 167.583C247.751 167.941 247.894 168.244 248.08 168.491C248.27 168.734 248.494 168.919 248.751 169.044C249.013 169.169 249.305 169.232 249.627 169.232C249.964 169.232 250.263 169.169 250.524 169.044C250.785 168.919 251.006 168.734 251.185 168.491C251.367 168.244 251.505 167.941 251.598 167.583C251.691 167.221 251.738 166.806 251.738 166.337ZM256.491 169.291C256.728 169.291 256.946 169.243 257.146 169.146C257.347 169.049 257.512 168.917 257.641 168.749C257.77 168.577 257.843 168.382 257.861 168.163H258.806C258.788 168.507 258.672 168.827 258.457 169.125C258.246 169.418 257.968 169.656 257.625 169.839C257.281 170.018 256.903 170.107 256.491 170.107C256.054 170.107 255.673 170.03 255.347 169.876C255.025 169.722 254.756 169.511 254.542 169.243C254.33 168.974 254.171 168.666 254.063 168.319C253.96 167.968 253.908 167.597 253.908 167.207V166.981C253.908 166.591 253.96 166.222 254.063 165.875C254.171 165.524 254.33 165.214 254.542 164.946C254.756 164.677 255.025 164.466 255.347 164.312C255.673 164.158 256.054 164.081 256.491 164.081C256.946 164.081 257.343 164.174 257.684 164.36C258.024 164.543 258.291 164.794 258.484 165.112C258.681 165.427 258.788 165.785 258.806 166.187H257.861C257.843 165.947 257.775 165.73 257.657 165.537C257.542 165.343 257.385 165.189 257.184 165.075C256.987 164.957 256.756 164.897 256.491 164.897C256.187 164.897 255.931 164.958 255.723 165.08C255.519 165.198 255.356 165.359 255.234 165.563C255.116 165.764 255.03 165.988 254.977 166.235C254.926 166.478 254.901 166.727 254.901 166.981V167.207C254.901 167.461 254.926 167.712 254.977 167.959C255.027 168.206 255.111 168.43 255.229 168.63C255.351 168.831 255.514 168.992 255.718 169.114C255.925 169.232 256.183 169.291 256.491 169.291ZM262.356 164.188V164.951H259.214V164.188H262.356ZM260.278 162.776H261.271V168.561C261.271 168.757 261.302 168.906 261.363 169.006C261.424 169.107 261.502 169.173 261.599 169.205C261.696 169.237 261.8 169.253 261.911 169.253C261.993 169.253 262.079 169.246 262.168 169.232C262.262 169.214 262.331 169.2 262.378 169.189L262.383 170C262.305 170.025 262.201 170.048 262.072 170.07C261.946 170.095 261.794 170.107 261.615 170.107C261.372 170.107 261.148 170.059 260.944 169.962C260.74 169.866 260.577 169.705 260.455 169.479C260.337 169.25 260.278 168.942 260.278 168.555V162.776Z" fill="black"/>
<path opacity="0.5" d="M312.239 162.18V170H311.197L307.26 163.968V170H306.224V162.18H307.26L311.213 168.228V162.18H312.239ZM313.663 167.159V167.035C313.663 166.616 313.723 166.228 313.845 165.87C313.967 165.508 314.142 165.195 314.372 164.93C314.601 164.661 314.878 164.453 315.204 164.307C315.53 164.156 315.895 164.081 316.3 164.081C316.708 164.081 317.075 164.156 317.401 164.307C317.73 164.453 318.01 164.661 318.239 164.93C318.472 165.195 318.649 165.508 318.771 165.87C318.892 166.228 318.953 166.616 318.953 167.035V167.159C318.953 167.578 318.892 167.966 318.771 168.324C318.649 168.682 318.472 168.996 318.239 169.264C318.01 169.529 317.732 169.737 317.406 169.887C317.084 170.034 316.719 170.107 316.311 170.107C315.902 170.107 315.535 170.034 315.209 169.887C314.884 169.737 314.604 169.529 314.372 169.264C314.142 168.996 313.967 168.682 313.845 168.324C313.723 167.966 313.663 167.578 313.663 167.159ZM314.656 167.035V167.159C314.656 167.449 314.69 167.723 314.758 167.98C314.826 168.235 314.928 168.46 315.064 168.657C315.204 168.854 315.378 169.01 315.585 169.125C315.793 169.236 316.035 169.291 316.311 169.291C316.583 169.291 316.821 169.236 317.025 169.125C317.233 169.01 317.404 168.854 317.541 168.657C317.677 168.46 317.779 168.235 317.847 167.98C317.918 167.723 317.954 167.449 317.954 167.159V167.035C317.954 166.749 317.918 166.478 317.847 166.224C317.779 165.966 317.675 165.739 317.535 165.542C317.399 165.341 317.227 165.184 317.02 165.069C316.815 164.955 316.576 164.897 316.3 164.897C316.028 164.897 315.788 164.955 315.58 165.069C315.376 165.184 315.204 165.341 315.064 165.542C314.928 165.739 314.826 165.966 314.758 166.224C314.69 166.478 314.656 166.749 314.656 167.035ZM321.88 169.103L323.47 164.188H324.485L322.396 170H321.73L321.88 169.103ZM320.554 164.188L322.192 169.13L322.305 170H321.639L319.533 164.188H320.554Z" fill="black"/>
<path d="M308.125 105.125H322.875V145.5C322.875 149.573 319.573 152.875 315.5 152.875C311.427 152.875 308.125 149.573 308.125 145.5V105.125Z" fill="#B7E9A0" stroke="#A2D989" stroke-width="0.25"/>
<rect x="308.125" y="37.125" width="14.75" height="67.75" fill="#A8D8EA" stroke="#84B7CA" stroke-width="0.25"/>
<rect x="247.125" y="35.125" width="14.75" height="56.75" fill="#A8D8EA" stroke="#7AA9BA" stroke-width="0.25"/>
<rect x="308.125" y="19.125" width="14.75" height="17.75" fill="#F4C3A5" stroke="#C49C83" stroke-width="0.25"/>
<path d="M308.125 9.5C308.125 5.4269 311.427 2.125 315.5 2.125C319.573 2.125 322.875 5.4269 322.875 9.5V18.875H308.125V9.5Z" fill="#F6E89D" stroke="#DCCE82" stroke-width="0.25"/>
<path d="M247.125 92.125H261.875V145.5C261.875 149.573 258.573 152.875 254.5 152.875C250.427 152.875 247.125 149.573 247.125 145.5V92.125Z" fill="#B7E9A0" stroke="#B7E9A0" stroke-width="0.25"/>
<path d="M247.125 9.5C247.125 5.4269 250.427 2.125 254.5 2.125C258.573 2.125 261.875 5.4269 261.875 9.5V18.875H247.125V9.5Z" fill="#F6E89D" stroke="#D4C885" stroke-width="0.25"/>
<rect x="247.125" y="19.125" width="14.75" height="15.75" fill="#F4C3A5" stroke="#BE9073" stroke-width="0.25"/>
<rect x="185.125" y="51.125" width="14.75" height="56.75" fill="#A8D8EA" stroke="#7AA9BA" stroke-width="0.25"/>
<path d="M185.125 108.125H199.875V145.5C199.875 149.573 196.573 152.875 192.5 152.875C188.427 152.875 185.125 149.573 185.125 145.5V108.125Z" fill="#B7E9A0" stroke="#B7E9A0" stroke-width="0.25"/>
<path d="M185.125 9.5C185.125 5.4269 188.427 2.125 192.5 2.125C196.573 2.125 199.875 5.4269 199.875 9.5V29.875H185.125V9.5Z" fill="#F6E89D" stroke="#D4C885" stroke-width="0.25"/>
<rect x="185.125" y="30.125" width="14.75" height="20.75" fill="#F4C3A5" stroke="#BE9073" stroke-width="0.25"/>
<rect x="121.125" y="86.125" width="14.75" height="42.75" fill="#A8D8EA" stroke="#7AA9BA" stroke-width="0.25"/>
<path d="M121.125 129.125H135.875V145.5C135.875 149.573 132.573 152.875 128.5 152.875C124.427 152.875 121.125 149.573 121.125 145.5V129.125Z" fill="#B7E9A0" stroke="#B7E9A0" stroke-width="0.25"/>
<path d="M121.125 9.5C121.125 5.4269 124.427 2.125 128.5 2.125C132.573 2.125 135.875 5.4269 135.875 9.5V46.875H121.125V9.5Z" fill="#F6E89D" stroke="#D4C885" stroke-width="0.25"/>
<rect x="121.125" y="47.125" width="14.75" height="38.75" fill="#F4C3A5" stroke="#BE9073" stroke-width="0.25"/>
<rect x="62.125" y="102.125" width="14.75" height="34.75" fill="#A8D8EA" stroke="#7AA9BA" stroke-width="0.25"/>
<path d="M62.125 137.125H76.875V145.5C76.875 149.573 73.5731 152.875 69.5 152.875C65.4269 152.875 62.125 149.573 62.125 145.5V137.125Z" fill="#B7E9A0" stroke="#B7E9A0" stroke-width="0.25"/>
<path d="M62.125 9.5C62.125 5.4269 65.4269 2.125 69.5 2.125C73.5731 2.125 76.875 5.4269 76.875 9.5V36.875H62.125V9.5Z" fill="#F6E89D" stroke="#D4C885" stroke-width="0.25"/>
<rect x="62.125" y="37.125" width="14.75" height="64.75" fill="#F4C3A5" stroke="#BE9073" stroke-width="0.25"/>
<rect x="2.125" y="107.125" width="14.75" height="29.75" fill="#A8D8EA" stroke="#7AA9BA" stroke-width="0.25"/>
<path d="M2.125 137.125H16.875V145.5C16.875 149.573 13.5731 152.875 9.5 152.875C5.4269 152.875 2.125 149.573 2.125 145.5V137.125Z" fill="#B7E9A0" stroke="#B7E9A0" stroke-width="0.25"/>
<path d="M2.125 9.5C2.125 5.4269 5.4269 2.125 9.5 2.125C13.5731 2.125 16.875 5.4269 16.875 9.5V25.875H2.125V9.5Z" fill="#F6E89D" stroke="#D4C885" stroke-width="0.25"/>
<rect x="2.125" y="26.125" width="14.75" height="80.75" fill="#F4C3A5" stroke="#BE9073" stroke-width="0.25"/>
</svg>
