<svg width="27" height="27" viewBox="0 0 27 27" fill="none" xmlns="http://www.w3.org/2000/svg">
<path fill-rule="evenodd" clip-rule="evenodd" d="M13.3353 26.625C15.0355 26.625 16.7191 26.2855 18.2898 25.6259C19.8606 24.9663 21.2878 23.9995 22.49 22.7808C23.6922 21.562 24.6459 20.1151 25.2965 18.5227C25.9471 16.9303 26.282 15.2236 26.282 13.5C26.282 11.7764 25.9471 10.0697 25.2965 8.47728C24.6459 6.88488 23.6922 5.43799 22.49 4.21922C21.2878 3.00045 19.8606 2.03367 18.2898 1.37408C16.7191 0.714488 15.0355 0.375 13.3353 0.375C9.90167 0.375 6.60864 1.75781 4.18066 4.21922C1.75269 6.68064 0.388672 10.019 0.388672 13.5C0.388672 16.981 1.75269 20.3194 4.18066 22.7808C6.60864 25.2422 9.90167 26.625 13.3353 26.625ZM13.0016 18.8083L20.1942 10.0583L17.9846 8.19167L11.799 15.7152L8.5983 12.469L6.56423 14.531L10.8798 18.906L11.9932 20.0348L13.0016 18.8083Z" fill="#4F4F4F"/>
</svg>
