<svg width="46" height="39" viewBox="0 0 46 39" fill="none" xmlns="http://www.w3.org/2000/svg">
<path d="M4.33313 13.7735C4.33312 13.4075 4.22476 13.0497 4.02169 12.7452C3.81863 12.4407 3.52996 12.2032 3.19208 12.0625C2.85421 11.9219 2.48225 11.8844 2.12311 11.9548C1.76396 12.0253 1.43372 12.2004 1.174 12.4583C0.914284 12.7162 0.736727 13.0452 0.663717 13.4038C0.590708 13.7624 0.625513 14.1346 0.763745 14.4735C0.901977 14.8124 1.13745 15.1027 1.44047 15.308C1.74349 15.5132 2.10049 15.6242 2.46647 15.6268C2.71097 15.6285 2.9534 15.5819 3.1798 15.4896C3.4062 15.3972 3.61209 15.261 3.7856 15.0887C3.95911 14.9164 4.09682 14.7115 4.19079 14.4858C4.28476 14.2601 4.33314 14.018 4.33313 13.7735Z" fill="#FFD700"/>
<path d="M41.413 17.12C39.3094 17.5125 37.2596 18.1525 35.3064 19.0267C33.6791 19.8194 32.1262 20.7565 30.6664 21.8267C29.7739 20.6577 28.9927 19.4078 28.333 18.0933C26.7969 14.7889 25.5478 11.3585 24.5997 7.83999C24.5216 7.5491 24.3473 7.29325 24.1052 7.11408C23.863 6.93492 23.5674 6.84301 23.2664 6.85332C22.9654 6.84301 22.6697 6.93492 22.4276 7.11408C22.1855 7.29325 22.0112 7.5491 21.933 7.83999C20.991 11.3604 19.7417 14.7914 18.1997 18.0933C17.5407 19.4111 16.7547 20.6614 15.853 21.8267C14.3932 20.7565 12.8403 19.8194 11.213 19.0267C9.25845 18.1561 7.20908 17.5162 5.10638 17.12C4.85769 17.071 4.60018 17.0938 4.36403 17.1859C4.12789 17.278 3.92288 17.4355 3.77305 17.64C3.6247 17.839 3.53486 18.0756 3.51366 18.3229C3.49246 18.5702 3.54073 18.8186 3.65305 19.04C6.46786 24.8997 8.41279 31.1388 9.42638 37.56C9.48035 37.873 9.64433 38.1565 9.88877 38.3594C10.1332 38.5623 10.4421 38.6713 10.7597 38.6667H35.8264C36.144 38.6713 36.4529 38.5623 36.6973 38.3594C36.9418 38.1565 37.1057 37.873 37.1597 37.56C38.1441 31.1437 40.0575 24.9049 42.8397 19.04C42.952 18.8186 43.0003 18.5702 42.9791 18.3229C42.9579 18.0756 42.8681 17.839 42.7197 17.64C42.572 17.4402 42.3714 17.2856 42.1405 17.1937C41.9096 17.1018 41.6577 17.0763 41.413 17.12ZM34.7197 36H11.853C10.9183 30.6452 9.39806 25.4094 7.31971 20.3867C8.27202 20.667 9.20324 21.0146 10.1064 21.4267C11.9365 22.3161 13.6588 23.4121 15.2397 24.6933C15.5036 24.9182 15.8447 25.0315 16.1907 25.0091C16.5367 24.9867 16.8604 24.8304 17.093 24.5733C18.4977 22.9511 19.6936 21.1594 20.653 19.24C21.6733 17.1227 22.5639 14.9454 23.3197 12.72C24.07 14.9475 24.9607 17.1251 25.9864 19.24C26.9491 21.1543 28.14 22.9451 29.533 24.5733C29.7662 24.8343 30.0926 24.9931 30.4418 25.0156C30.791 25.038 31.1351 24.9223 31.3997 24.6933C32.975 23.4043 34.6982 22.3077 36.5331 21.4267C37.4344 21.0102 38.3659 20.6626 39.3197 20.3867C37.2125 25.4045 35.6697 30.6411 34.7197 36Z" fill="#FFD700"/>
<path d="M44.1063 15.6268C45.1298 15.6268 45.9596 14.7971 45.9596 13.7735C45.9596 12.7499 45.1298 11.9202 44.1063 11.9202C43.0827 11.9202 42.2529 12.7499 42.2529 13.7735C42.2529 14.7971 43.0827 15.6268 44.1063 15.6268Z" fill="#FFD700"/>
<path d="M23.2931 4.5201C23.6602 4.52274 24.0199 4.41629 24.3264 4.21426C24.6329 4.01222 24.8725 3.7237 25.0149 3.38529C25.1572 3.04688 25.1958 2.67382 25.1258 2.31344C25.0558 1.95305 24.8803 1.62157 24.6217 1.36105C24.363 1.10052 24.0328 0.922675 23.673 0.850077C23.3131 0.777478 22.9398 0.813393 22.6003 0.953267C22.2609 1.09314 21.9707 1.33067 21.7664 1.63573C21.5622 1.94079 21.4531 2.29964 21.4531 2.66676C21.4531 3.156 21.6465 3.62539 21.9912 3.97258C22.3359 4.31976 22.8039 4.51658 23.2931 4.5201Z" fill="#FFD700"/>
<path d="M23.3063 31.1202C23.0124 31.1175 22.7245 31.2024 22.479 31.364C22.2336 31.5256 22.0419 31.7566 21.9282 32.0276C21.8145 32.2986 21.7841 32.5973 21.8408 32.8856C21.8975 33.1739 22.0387 33.4389 22.2465 33.6466C22.4543 33.8544 22.7192 33.9956 23.0075 34.0523C23.2958 34.109 23.5945 34.0786 23.8655 33.9649C24.1365 33.8512 24.3675 33.6595 24.5291 33.4141C24.6907 33.1686 24.7756 32.8807 24.7729 32.5868C24.7729 32.1979 24.6184 31.8248 24.3434 31.5498C24.0683 31.2747 23.6952 31.1202 23.3063 31.1202Z" fill="#FFD700"/>
<path d="M15.7731 31.1202C15.4792 31.1175 15.1913 31.2024 14.9458 31.364C14.7004 31.5256 14.5087 31.7566 14.395 32.0276C14.2813 32.2986 14.2509 32.5973 14.3076 32.8856C14.3643 33.1739 14.5055 33.4389 14.7133 33.6466C14.921 33.8544 15.186 33.9956 15.4743 34.0523C15.7626 34.109 16.0613 34.0786 16.3323 33.9649C16.6033 33.8512 16.8343 33.6595 16.9959 33.4141C17.1575 33.1686 17.2424 32.8807 17.2397 32.5868C17.2397 32.1979 17.0852 31.8248 16.8101 31.5498C16.5351 31.2747 16.162 31.1202 15.7731 31.1202Z" fill="#FFD700"/>
<path d="M30.8531 31.1202C30.5593 31.1175 30.2713 31.2024 30.0259 31.364C29.7805 31.5256 29.5887 31.7566 29.4751 32.0276C29.3614 32.2986 29.331 32.5973 29.3877 32.8856C29.4443 33.1739 29.5856 33.4389 29.7933 33.6466C30.0011 33.8544 30.2661 33.9956 30.5544 34.0523C30.8427 34.109 31.1414 34.0786 31.4124 33.9649C31.6833 33.8512 31.9143 33.6595 32.0759 33.4141C32.2375 33.1686 32.3224 32.8807 32.3198 32.5868C32.3198 32.1979 32.1653 31.8248 31.8902 31.5498C31.6152 31.2747 31.2421 31.1202 30.8531 31.1202Z" fill="#FFD700"/>
</svg>
