<svg width="35" height="35" viewBox="0 0 35 35" fill="none" xmlns="http://www.w3.org/2000/svg">
<g clip-path="url(#clip0_171_2267)">
<path d="M30.9784 18.1544L30.125 17.3018V18.5081V32.8147C30.125 33.2732 29.9672 33.661 29.6346 34.0023C29.3091 34.3362 28.9207 34.5 28.4375 34.5H22.375V25.1663C22.375 24.7327 22.2104 24.3508 21.9037 24.0443C21.5969 23.7379 21.2148 23.5737 20.7812 23.5737H14.2188C13.7852 23.5737 13.4031 23.7379 13.0963 24.0443C12.7895 24.3508 12.625 24.7327 12.625 25.1663V34.5H6.5625C6.07926 34.5 5.69086 34.3362 5.36538 34.0023C5.03276 33.661 4.875 33.2732 4.875 32.8147V18.5081V17.3018L4.02163 18.1544L3.50893 18.6665C3.17223 19.0029 2.77062 19.169 2.27295 19.169C1.77918 19.169 1.3707 18.9999 1.01988 18.6494C0.669068 18.299 0.5 17.8912 0.5 17.3984C0.5 16.9017 0.666107 16.5007 1.00279 16.1644L16.1786 1.00411C16.5334 0.649619 16.9563 0.483192 17.4828 0.50133L17.5 0.501922L17.5172 0.50133C18.0437 0.483192 18.4666 0.649619 18.8214 1.00411L33.9972 16.1644C34.3339 16.5007 34.5 16.9017 34.5 17.3984C34.5 17.8912 34.3309 18.299 33.9801 18.6494C33.6293 18.9999 33.2208 19.169 32.7271 19.169C32.2294 19.169 31.8278 19.0029 31.4911 18.6665L30.9784 18.1544Z" fill="#4F4F4F" stroke="#4F4F4F"/>
</g>
<defs>
<clipPath id="clip0_171_2267">
<rect width="35" height="35" fill="white"/>
</clipPath>
</defs>
</svg>
