<svg width="35" height="35" viewBox="0 0 35 35" fill="none" xmlns="http://www.w3.org/2000/svg">
<g clip-path="url(#clip0_236_1920)">
<path d="M31.1551 17.9775L29.875 16.6987V18.5081V32.8147C29.875 33.2066 29.7437 33.5321 29.4556 33.8278C29.1782 34.1124 28.8547 34.25 28.4375 34.25H22.625V25.1663C22.625 24.6639 22.4323 24.219 22.0804 23.8675C21.7284 23.5159 21.2835 23.3237 20.7812 23.3237H14.2188C13.7165 23.3237 13.2716 23.5159 12.9196 23.8675C12.5677 24.219 12.375 24.6639 12.375 25.1663V34.25H6.5625C6.14526 34.25 5.82185 34.1124 5.54441 33.8278C5.25626 33.5321 5.125 33.2066 5.125 32.8147V18.5081V16.6987L3.84494 17.9775L3.33225 18.4897C3.04367 18.7779 2.70614 18.919 2.27295 18.919C1.84561 18.919 1.50063 18.7763 1.19656 18.4726C0.892518 18.1688 0.75 17.8246 0.75 17.3984C0.75 16.9663 0.890925 16.6295 1.17947 16.3412L16.3553 1.18098C16.6597 0.876873 17.0148 0.735356 17.4742 0.751181L17.5 0.752071L17.5258 0.751181C17.9852 0.735356 18.3403 0.876873 18.6447 1.18098L33.8205 16.3412C34.1091 16.6295 34.25 16.9663 34.25 17.3984C34.25 17.8246 34.1075 18.1688 33.8034 18.4726C33.4994 18.7763 33.1544 18.919 32.7271 18.919C32.2939 18.919 31.9563 18.7779 31.6678 18.4897L31.1551 17.9775Z" fill="#FEFDF5" fill-opacity="0.996078" stroke="#4F4F4F" stroke-width="1.5"/>
</g>
<defs>
<clipPath id="clip0_236_1920">
<rect width="35" height="35" fill="white"/>
</clipPath>
</defs>
</svg>
