<svg width="35" height="35" viewBox="0 0 35 35" fill="none" xmlns="http://www.w3.org/2000/svg">
<path d="M6.50006 24.4925L6.49771 24.649L6.58498 24.7788C8.93113 28.2708 12.951 30.6 17.5 30.6C22.049 30.6 26.0689 28.2708 28.415 24.7788L28.5023 24.649L28.4999 24.4925C28.4841 23.4389 27.9472 22.5425 27.1724 21.812C26.3999 21.0835 25.3582 20.4866 24.2369 20.0142C21.9966 19.0705 19.3189 18.575 17.5 18.575C15.6811 18.575 13.0034 19.0705 10.7631 20.0142C9.64184 20.4866 8.60015 21.0835 7.82757 21.812C7.05283 22.5425 6.51586 23.4389 6.50006 24.4925ZM21.5659 6.43414C20.4875 5.3558 19.025 4.75 17.5 4.75C15.975 4.75 14.5125 5.3558 13.4341 6.43414C12.3558 7.51247 11.75 8.97501 11.75 10.5C11.75 12.025 12.3558 13.4875 13.4341 14.5659C14.5125 15.6442 15.975 16.25 17.5 16.25C19.025 16.25 20.4875 15.6442 21.5659 14.5659C22.6442 13.4875 23.25 12.025 23.25 10.5C23.25 8.97501 22.6442 7.51247 21.5659 6.43414ZM10.9944 1.79405C13.0569 0.939718 15.2675 0.5 17.5 0.5C26.8498 0.5 34.5 8.09962 34.5 17.5C34.5 22.0087 32.7089 26.3327 29.5208 29.5208C26.3327 32.7089 22.0087 34.5 17.5 34.5C15.2675 34.5 13.0569 34.0603 10.9944 33.206C8.93185 32.3516 7.05778 31.0994 5.47918 29.5208C2.29107 26.3327 0.5 22.0087 0.5 17.5C0.5 12.9913 2.29107 8.6673 5.47918 5.47918C7.05778 3.90059 8.93185 2.64838 10.9944 1.79405Z" fill="#4F4F4F" fill-opacity="0.996078" stroke="#4F4F4F"/>
</svg>
