<svg width="35" height="35" viewBox="0 0 35 35" fill="none" xmlns="http://www.w3.org/2000/svg">
<path d="M6.25008 24.4888L6.24656 24.7234L6.37746 24.9183C8.76795 28.4762 12.8641 30.85 17.5 30.85C22.1359 30.85 26.232 28.4762 28.6225 24.9183L28.7534 24.7234L28.7499 24.4888C28.7328 23.3459 28.1493 22.3895 27.3439 21.6301C26.5418 20.8737 25.4706 20.2626 24.334 19.7838C22.064 18.8276 19.3534 18.325 17.5 18.325C15.6466 18.325 12.936 18.8276 10.666 19.7838C9.5294 20.2626 8.45823 20.8737 7.65607 21.6301C6.85065 22.3895 6.26723 23.3459 6.25008 24.4888ZM21.7426 6.25736C20.6174 5.13214 19.0913 4.5 17.5 4.5C15.9087 4.5 14.3826 5.13214 13.2574 6.25736C12.1321 7.38258 11.5 8.9087 11.5 10.5C11.5 12.0913 12.1321 13.6174 13.2574 14.7426C14.3826 15.8679 15.9087 16.5 17.5 16.5C19.0913 16.5 20.6174 15.8679 21.7426 14.7426C22.8679 13.6174 23.5 12.0913 23.5 10.5C23.5 8.9087 22.8679 7.38258 21.7426 6.25736ZM11.0901 2.02502C13.1223 1.18325 15.3004 0.75 17.5 0.75C26.7123 0.75 34.25 8.23818 34.25 17.5C34.25 21.9424 32.4853 26.2028 29.344 29.344C26.2028 32.4853 21.9424 34.25 17.5 34.25C15.3004 34.25 13.1223 33.8167 11.0901 32.975C9.05785 32.1332 7.21134 30.8994 5.65596 29.344C2.51473 26.2028 0.75 21.9424 0.75 17.5C0.75 13.0576 2.51473 8.7972 5.65596 5.65596C7.21134 4.10058 9.05785 2.86678 11.0901 2.02502Z" fill="#FEFDF5" fill-opacity="0.996078" stroke="#4F4F4F" stroke-width="1.5"/>
</svg>
