<svg width="175" height="175" viewBox="0 0 175 175" fill="none" xmlns="http://www.w3.org/2000/svg">
<path d="M84.3368 152.946L127.585 130.999C128.476 130.547 129.052 129.943 129.052 129.15C129.052 128.356 128.476 127.753 127.585 127.301L121.741 124.335C120.832 123.874 119.766 123.65 118.554 123.65C117.342 123.65 116.276 123.874 115.367 124.335L98.1794 133.057L81.1499 141.699L67.3349 134.689C66.4258 134.227 65.3597 134.004 64.148 134.004C62.9363 134.004 61.8702 134.227 60.9612 134.689L55.1168 137.654C54.2262 138.106 53.65 138.71 53.65 139.503C53.65 140.297 54.2262 140.901 55.1168 141.352L77.963 152.946C78.8721 153.408 79.9382 153.631 81.1499 153.631C82.3616 153.631 83.4277 153.408 84.3368 152.946Z" fill="#262626" stroke="#262626" stroke-width="0.7"/>
<path d="M82.85 69.48V86.12V100.2V110.44L72.61 113V81.128C71.7567 81.0427 70.9033 81 70.05 81C66.5513 81 63.522 79.8907 60.962 77.672C58.4873 75.368 57.25 72.6373 57.25 69.48C57.25 65.64 58.4873 62.7813 60.962 60.904C63.522 58.9413 66.5513 57.96 70.05 57.96C72.61 57.96 75.042 57.6613 77.346 57.064C79.7353 56.4667 81.57 55.0587 82.85 52.84V69.48ZM70.05 66.92C69.3673 66.92 68.77 67.176 68.258 67.688C67.746 68.2 67.49 68.7973 67.49 69.48C67.49 70.1627 67.746 70.76 68.258 71.272C68.77 71.784 69.3673 72.04 70.05 72.04C70.7327 72.04 71.33 71.784 71.842 71.272C72.354 70.76 72.61 70.1627 72.61 69.48C72.61 68.7973 72.354 68.2 71.842 67.688C71.33 67.176 70.7327 66.92 70.05 66.92ZM100.8 81C92.2667 81 88 77.16 88 69.48V52.84V11.88L98.24 9.32V57.832C99.0933 57.9173 99.9467 57.96 100.8 57.96C104.299 57.96 107.285 59.0693 109.76 61.288C112.32 63.5067 113.6 66.2373 113.6 69.48C113.6 73.32 112.32 76.2213 109.76 78.184C107.285 80.0613 104.299 81 100.8 81ZM100.8 72.04C101.483 72.04 102.08 71.784 102.592 71.272C103.104 70.76 103.36 70.1627 103.36 69.48C103.36 68.7973 103.104 68.2 102.592 67.688C102.08 67.176 101.483 66.92 100.8 66.92C100.117 66.92 99.52 67.176 99.008 67.688C98.496 68.2 98.24 68.7973 98.24 69.48C98.24 70.1627 98.496 70.76 99.008 71.272C99.52 71.784 100.117 72.04 100.8 72.04Z" fill="#262626"/>
<path d="M125 12.5C134.946 12.5 144.484 16.4509 151.517 23.4835C158.549 30.5161 162.5 40.0544 162.5 50V125C162.5 134.946 158.549 144.484 151.517 151.517C144.484 158.549 134.946 162.5 125 162.5H50C40.0544 162.5 30.5161 158.549 23.4835 151.517C16.4509 144.484 12.5 134.946 12.5 125V50C12.5 40.0544 16.4509 30.5161 23.4835 23.4835C30.5161 16.4509 40.0544 12.5 50 12.5H125ZM50 0C36.7392 0 24.0215 5.26784 14.6447 14.6447C5.26784 24.0215 0 36.7392 0 50V125C0 138.261 5.26784 150.979 14.6447 160.355C24.0215 169.732 36.7392 175 50 175H125C138.261 175 150.979 169.732 160.355 160.355C169.732 150.979 175 138.261 175 125V50C175 36.7392 169.732 24.0215 160.355 14.6447C150.979 5.26784 138.261 0 125 0H50Z" fill="#262626"/>
<path d="M41.8304 49C49.944 34.849 66 32.7746 74.0005 45.7747" stroke="#262626" stroke-width="6"/>
<path d="M109 46C122.002 46 135 59.7617 135 68.8809" stroke="#262626" stroke-width="6"/>
</svg>
