<svg width="266" height="198" viewBox="0 0 266 198" fill="none" xmlns="http://www.w3.org/2000/svg">
<path d="M172.532 81.657V105.699C172.532 111.697 170.621 116.825 166.798 121.084C162.975 125.343 158.372 127.473 152.988 127.473H96.5274C91.1438 127.473 86.5405 125.343 82.7177 121.084C78.8948 116.825 76.9834 111.697 76.9834 105.699V42.7968C76.9834 36.7989 78.8948 31.6704 82.7177 27.4114C86.5405 23.1524 91.1438 21.0229 96.5274 21.0229H152.988C155.838 21.0229 158.485 21.653 160.928 22.913C161.606 23.2659 162.014 23.8455 162.149 24.6519C162.285 25.5088 162.081 26.2396 161.539 26.8444L158.213 30.549C157.761 31.053 157.241 31.305 156.653 31.305C156.517 31.305 156.313 31.2546 156.042 31.1538C155.001 30.8514 153.983 30.7002 152.988 30.7002H96.5274C93.5415 30.7002 90.9854 31.8847 88.8591 34.2536C86.7328 36.6225 85.6696 39.4702 85.6696 42.7968V105.699C85.6696 109.025 86.7328 111.873 88.8591 114.242C90.9854 116.611 93.5415 117.795 96.5274 117.795H152.988C155.974 117.795 158.53 116.611 160.656 114.242C162.783 111.873 163.846 109.025 163.846 105.699V86.4956C163.846 85.8404 164.049 85.286 164.457 84.8323L168.8 79.9937C169.252 79.4897 169.772 79.2377 170.361 79.2377C170.632 79.2377 170.903 79.3133 171.175 79.4645C172.08 79.8677 172.532 80.5985 172.532 81.657ZM188.208 44.6869L132.969 106.228C131.883 107.438 130.594 108.043 129.101 108.043C127.608 108.043 126.319 107.438 125.233 106.228L96.0524 73.7186C94.9666 72.509 94.4237 71.0725 94.4237 69.4092C94.4237 67.7459 94.9666 66.3095 96.0524 65.0998L103.517 56.7834C104.603 55.5738 105.892 54.9689 107.385 54.9689C108.878 54.9689 110.168 55.5738 111.253 56.7834L129.101 76.6672L173.007 27.7517C174.093 26.542 175.382 25.9372 176.875 25.9372C178.368 25.9372 179.658 26.542 180.743 27.7517L188.208 36.0681C189.294 37.2777 189.837 38.7142 189.837 40.3775C189.837 42.0407 189.294 43.4772 188.208 44.6869Z" fill="#262626"/>
<mask id="path-2-outside-1_329_1392" maskUnits="userSpaceOnUse" x="21" y="157.497" width="226" height="39" fill="black">
<rect fill="white" x="21" y="157.497" width="226" height="39"/>
<path d="M28.2817 174.037C28.2817 175.623 28.4951 177.05 28.9217 178.317C29.3484 179.57 29.9551 180.637 30.7417 181.517C31.5417 182.383 32.5017 183.05 33.6217 183.517C34.7551 183.983 36.0284 184.217 37.4417 184.217C38.8551 184.217 40.1217 183.983 41.2417 183.517C42.3751 183.05 43.3351 182.383 44.1217 181.517C44.9084 180.637 45.5151 179.57 45.9417 178.317C46.3684 177.05 46.5817 175.623 46.5817 174.037C46.5817 172.45 46.3684 171.03 45.9417 169.777C45.5151 168.51 44.9084 167.437 44.1217 166.557C43.3351 165.677 42.3751 165.003 41.2417 164.537C40.1217 164.07 38.8551 163.837 37.4417 163.837C36.0284 163.837 34.7551 164.07 33.6217 164.537C32.5017 165.003 31.5417 165.677 30.7417 166.557C29.9551 167.437 29.3484 168.51 28.9217 169.777C28.4951 171.03 28.2817 172.45 28.2817 174.037ZM53.5817 194.157H49.1417C48.5017 194.157 47.9217 194.07 47.4017 193.897C46.8951 193.723 46.4284 193.403 46.0017 192.937L41.7617 188.257C41.0817 188.443 40.3817 188.583 39.6617 188.677C38.9551 188.77 38.2151 188.817 37.4417 188.817C35.2551 188.817 33.2617 188.45 31.4617 187.717C29.6617 186.97 28.1151 185.937 26.8217 184.617C25.5417 183.297 24.5484 181.737 23.8417 179.937C23.1351 178.123 22.7817 176.157 22.7817 174.037C22.7817 171.917 23.1351 169.957 23.8417 168.157C24.5484 166.343 25.5417 164.777 26.8217 163.457C28.1151 162.137 29.6617 161.11 31.4617 160.377C33.2617 159.63 35.2551 159.257 37.4417 159.257C38.9084 159.257 40.2884 159.43 41.5817 159.777C42.8751 160.11 44.0617 160.59 45.1417 161.217C46.2217 161.83 47.1884 162.583 48.0417 163.477C48.9084 164.357 49.6417 165.343 50.2417 166.437C50.8417 167.53 51.2951 168.717 51.6017 169.997C51.9217 171.277 52.0817 172.623 52.0817 174.037C52.0817 175.33 51.9484 176.57 51.6817 177.757C51.4151 178.93 51.0284 180.03 50.5217 181.057C50.0284 182.083 49.4217 183.03 48.7017 183.897C47.9817 184.75 47.1617 185.503 46.2417 186.157L53.5817 194.157ZM73.413 167.977V188.497H70.393C69.7396 188.497 69.3263 188.197 69.153 187.597L68.813 185.957C67.973 186.81 67.0463 187.503 66.033 188.037C65.0196 188.557 63.8263 188.817 62.453 188.817C61.333 188.817 60.3396 188.63 59.473 188.257C58.6196 187.87 57.8996 187.33 57.313 186.637C56.7263 185.943 56.2796 185.123 55.973 184.177C55.6796 183.217 55.533 182.163 55.533 181.017V167.977H60.473V181.017C60.473 182.27 60.7596 183.243 61.333 183.937C61.9196 184.617 62.793 184.957 63.953 184.957C64.8063 184.957 65.6063 184.77 66.353 184.397C67.0996 184.01 67.8063 183.483 68.473 182.817V167.977H73.413ZM91.5311 175.877C91.5311 175.237 91.4378 174.637 91.2511 174.077C91.0778 173.503 90.8111 173.003 90.4511 172.577C90.0911 172.15 89.6311 171.817 89.0711 171.577C88.5244 171.323 87.8844 171.197 87.1511 171.197C85.7244 171.197 84.5978 171.603 83.7711 172.417C82.9578 173.23 82.4378 174.383 82.2111 175.877H91.5311ZM82.1111 178.857C82.1911 179.91 82.3778 180.823 82.6711 181.597C82.9644 182.357 83.3511 182.99 83.8311 183.497C84.3111 183.99 84.8778 184.363 85.5311 184.617C86.1978 184.857 86.9311 184.977 87.7311 184.977C88.5311 184.977 89.2178 184.883 89.7911 184.697C90.3778 184.51 90.8844 184.303 91.3111 184.077C91.7511 183.85 92.1311 183.643 92.4511 183.457C92.7844 183.27 93.1044 183.177 93.4111 183.177C93.8244 183.177 94.1311 183.33 94.3311 183.637L95.7511 185.437C95.2044 186.077 94.5911 186.617 93.9111 187.057C93.2311 187.483 92.5178 187.83 91.7711 188.097C91.0378 188.35 90.2844 188.53 89.5111 188.637C88.7511 188.743 88.0111 188.797 87.2911 188.797C85.8644 188.797 84.5378 188.563 83.3111 188.097C82.0844 187.617 81.0178 186.917 80.1111 185.997C79.2044 185.063 78.4911 183.917 77.9711 182.557C77.4511 181.183 77.1911 179.597 77.1911 177.797C77.1911 176.397 77.4178 175.083 77.8711 173.857C78.3244 172.617 78.9711 171.543 79.8111 170.637C80.6644 169.717 81.6978 168.99 82.9111 168.457C84.1378 167.923 85.5178 167.657 87.0511 167.657C88.3444 167.657 89.5378 167.863 90.6311 168.277C91.7244 168.69 92.6644 169.297 93.4511 170.097C94.2378 170.883 94.8511 171.857 95.2911 173.017C95.7444 174.163 95.9711 175.477 95.9711 176.957C95.9711 177.703 95.8911 178.21 95.7311 178.477C95.5711 178.73 95.2644 178.857 94.8111 178.857H82.1111ZM112.198 171.977C112.065 172.19 111.925 172.343 111.778 172.437C111.632 172.517 111.445 172.557 111.218 172.557C110.978 172.557 110.718 172.49 110.438 172.357C110.172 172.223 109.858 172.077 109.498 171.917C109.138 171.743 108.725 171.59 108.258 171.457C107.805 171.323 107.265 171.257 106.638 171.257C105.665 171.257 104.898 171.463 104.338 171.877C103.792 172.29 103.518 172.83 103.518 173.497C103.518 173.937 103.658 174.31 103.938 174.617C104.232 174.91 104.612 175.17 105.078 175.397C105.558 175.623 106.098 175.83 106.698 176.017C107.298 176.19 107.905 176.383 108.518 176.597C109.145 176.81 109.758 177.057 110.358 177.337C110.958 177.603 111.492 177.95 111.958 178.377C112.438 178.79 112.818 179.29 113.098 179.877C113.392 180.463 113.538 181.17 113.538 181.997C113.538 182.983 113.358 183.897 112.998 184.737C112.652 185.563 112.132 186.283 111.438 186.897C110.745 187.497 109.885 187.97 108.858 188.317C107.845 188.65 106.672 188.817 105.338 188.817C104.632 188.817 103.938 188.75 103.258 188.617C102.592 188.497 101.945 188.323 101.318 188.097C100.705 187.87 100.132 187.603 99.5983 187.297C99.0783 186.99 98.6183 186.657 98.2183 186.297L99.3583 184.417C99.5049 184.19 99.6783 184.017 99.8783 183.897C100.078 183.777 100.332 183.717 100.638 183.717C100.945 183.717 101.232 183.803 101.498 183.977C101.778 184.15 102.098 184.337 102.458 184.537C102.818 184.737 103.238 184.923 103.718 185.097C104.212 185.27 104.832 185.357 105.578 185.357C106.165 185.357 106.665 185.29 107.078 185.157C107.505 185.01 107.852 184.823 108.118 184.597C108.398 184.37 108.598 184.11 108.718 183.817C108.852 183.51 108.918 183.197 108.918 182.877C108.918 182.397 108.772 182.003 108.478 181.697C108.198 181.39 107.818 181.123 107.338 180.897C106.872 180.67 106.332 180.47 105.718 180.297C105.118 180.11 104.498 179.91 103.858 179.697C103.232 179.483 102.612 179.237 101.998 178.957C101.398 178.663 100.858 178.297 100.378 177.857C99.9116 177.417 99.5316 176.877 99.2383 176.237C98.9583 175.597 98.8183 174.823 98.8183 173.917C98.8183 173.077 98.9849 172.277 99.3183 171.517C99.6516 170.757 100.138 170.097 100.778 169.537C101.432 168.963 102.238 168.51 103.198 168.177C104.172 167.83 105.292 167.657 106.558 167.657C107.972 167.657 109.258 167.89 110.418 168.357C111.578 168.823 112.545 169.437 113.318 170.197L112.198 171.977ZM124.096 188.817C122.31 188.817 120.936 188.317 119.976 187.317C119.03 186.303 118.556 184.91 118.556 183.137V171.677H116.456C116.19 171.677 115.963 171.59 115.776 171.417C115.59 171.243 115.496 170.983 115.496 170.637V168.677L118.796 168.137L119.836 162.537C119.903 162.27 120.03 162.063 120.216 161.917C120.403 161.77 120.643 161.697 120.936 161.697H123.496V168.157H128.976V171.677H123.496V182.797C123.496 183.437 123.65 183.937 123.956 184.297C124.276 184.657 124.71 184.837 125.256 184.837C125.563 184.837 125.816 184.803 126.016 184.737C126.23 184.657 126.41 184.577 126.556 184.497C126.716 184.417 126.856 184.343 126.976 184.277C127.096 184.197 127.216 184.157 127.336 184.157C127.483 184.157 127.603 184.197 127.696 184.277C127.79 184.343 127.89 184.45 127.996 184.597L129.476 186.997C128.756 187.597 127.93 188.05 126.996 188.357C126.063 188.663 125.096 188.817 124.096 188.817ZM143.739 184.297C144.739 184.297 145.579 184.177 146.259 183.937C146.939 183.697 147.479 183.377 147.879 182.977C148.293 182.577 148.586 182.11 148.759 181.577C148.946 181.043 149.039 180.477 149.039 179.877C149.039 179.25 148.939 178.69 148.739 178.197C148.539 177.69 148.226 177.263 147.799 176.917C147.373 176.557 146.819 176.283 146.139 176.097C145.473 175.91 144.666 175.817 143.719 175.817H138.299V184.297H143.739ZM138.299 163.737V172.097H142.579C144.419 172.097 145.806 171.763 146.739 171.097C147.686 170.43 148.159 169.37 148.159 167.917C148.159 166.41 147.733 165.337 146.879 164.697C146.026 164.057 144.693 163.737 142.879 163.737H138.299ZM142.879 159.577C144.773 159.577 146.393 159.757 147.739 160.117C149.086 160.477 150.186 160.99 151.039 161.657C151.906 162.323 152.539 163.13 152.939 164.077C153.339 165.023 153.539 166.09 153.539 167.277C153.539 167.957 153.439 168.61 153.239 169.237C153.039 169.85 152.726 170.43 152.299 170.977C151.886 171.51 151.353 171.997 150.699 172.437C150.059 172.877 149.293 173.25 148.399 173.557C152.373 174.45 154.359 176.597 154.359 179.997C154.359 181.223 154.126 182.357 153.659 183.397C153.193 184.437 152.513 185.337 151.619 186.097C150.726 186.843 149.626 187.43 148.319 187.857C147.013 188.283 145.519 188.497 143.839 188.497H132.919V159.577H142.879ZM175.796 167.977V188.497H172.776C172.122 188.497 171.709 188.197 171.536 187.597L171.196 185.957C170.356 186.81 169.429 187.503 168.416 188.037C167.402 188.557 166.209 188.817 164.836 188.817C163.716 188.817 162.722 188.63 161.856 188.257C161.002 187.87 160.282 187.33 159.696 186.637C159.109 185.943 158.662 185.123 158.356 184.177C158.062 183.217 157.916 182.163 157.916 181.017V167.977H162.856V181.017C162.856 182.27 163.142 183.243 163.716 183.937C164.302 184.617 165.176 184.957 166.336 184.957C167.189 184.957 167.989 184.77 168.736 184.397C169.482 184.01 170.189 183.483 170.856 182.817V167.977H175.796ZM193.574 173.217C193.014 172.537 192.401 172.057 191.734 171.777C191.081 171.497 190.374 171.357 189.614 171.357C188.867 171.357 188.194 171.497 187.594 171.777C186.994 172.057 186.481 172.483 186.054 173.057C185.627 173.617 185.301 174.337 185.074 175.217C184.847 176.083 184.734 177.11 184.734 178.297C184.734 179.497 184.827 180.517 185.014 181.357C185.214 182.183 185.494 182.863 185.854 183.397C186.214 183.917 186.654 184.297 187.174 184.537C187.694 184.763 188.274 184.877 188.914 184.877C189.941 184.877 190.814 184.663 191.534 184.237C192.254 183.81 192.934 183.203 193.574 182.417V173.217ZM198.514 158.777V188.497H195.494C194.841 188.497 194.427 188.197 194.254 187.597L193.834 185.617C193.007 186.563 192.054 187.33 190.974 187.917C189.907 188.503 188.661 188.797 187.234 188.797C186.114 188.797 185.087 188.563 184.154 188.097C183.221 187.63 182.414 186.957 181.734 186.077C181.067 185.183 180.547 184.083 180.174 182.777C179.814 181.47 179.634 179.977 179.634 178.297C179.634 176.777 179.841 175.363 180.254 174.057C180.667 172.75 181.261 171.617 182.034 170.657C182.807 169.697 183.734 168.95 184.814 168.417C185.894 167.87 187.107 167.597 188.454 167.597C189.601 167.597 190.581 167.777 191.394 168.137C192.207 168.497 192.934 168.983 193.574 169.597V158.777H198.514ZM216.269 173.217C215.709 172.537 215.096 172.057 214.429 171.777C213.776 171.497 213.069 171.357 212.309 171.357C211.563 171.357 210.889 171.497 210.289 171.777C209.689 172.057 209.176 172.483 208.749 173.057C208.323 173.617 207.996 174.337 207.769 175.217C207.543 176.083 207.429 177.11 207.429 178.297C207.429 179.497 207.523 180.517 207.709 181.357C207.909 182.183 208.189 182.863 208.549 183.397C208.909 183.917 209.349 184.297 209.869 184.537C210.389 184.763 210.969 184.877 211.609 184.877C212.636 184.877 213.509 184.663 214.229 184.237C214.949 183.81 215.629 183.203 216.269 182.417V173.217ZM221.209 158.777V188.497H218.189C217.536 188.497 217.123 188.197 216.949 187.597L216.529 185.617C215.703 186.563 214.749 187.33 213.669 187.917C212.603 188.503 211.356 188.797 209.929 188.797C208.809 188.797 207.783 188.563 206.849 188.097C205.916 187.63 205.109 186.957 204.429 186.077C203.763 185.183 203.243 184.083 202.869 182.777C202.509 181.47 202.329 179.977 202.329 178.297C202.329 176.777 202.536 175.363 202.949 174.057C203.363 172.75 203.956 171.617 204.729 170.657C205.503 169.697 206.429 168.95 207.509 168.417C208.589 167.87 209.803 167.597 211.149 167.597C212.296 167.597 213.276 167.777 214.089 168.137C214.903 168.497 215.629 168.983 216.269 169.597V158.777H221.209ZM244.725 167.977L233.545 194.137C233.398 194.483 233.205 194.743 232.965 194.917C232.738 195.103 232.385 195.197 231.905 195.197H228.225L232.065 186.957L223.765 167.977H228.105C228.491 167.977 228.791 168.07 229.005 168.257C229.231 168.443 229.398 168.657 229.505 168.897L233.865 179.537C234.011 179.897 234.131 180.257 234.225 180.617C234.331 180.977 234.431 181.343 234.525 181.717C234.645 181.343 234.765 180.977 234.885 180.617C235.005 180.243 235.138 179.877 235.285 179.517L239.405 168.897C239.511 168.63 239.685 168.41 239.925 168.237C240.178 168.063 240.458 167.977 240.765 167.977H244.725Z"/>
</mask>
<path d="M28.2817 174.037C28.2817 175.623 28.4951 177.05 28.9217 178.317C29.3484 179.57 29.9551 180.637 30.7417 181.517C31.5417 182.383 32.5017 183.05 33.6217 183.517C34.7551 183.983 36.0284 184.217 37.4417 184.217C38.8551 184.217 40.1217 183.983 41.2417 183.517C42.3751 183.05 43.3351 182.383 44.1217 181.517C44.9084 180.637 45.5151 179.57 45.9417 178.317C46.3684 177.05 46.5817 175.623 46.5817 174.037C46.5817 172.45 46.3684 171.03 45.9417 169.777C45.5151 168.51 44.9084 167.437 44.1217 166.557C43.3351 165.677 42.3751 165.003 41.2417 164.537C40.1217 164.07 38.8551 163.837 37.4417 163.837C36.0284 163.837 34.7551 164.07 33.6217 164.537C32.5017 165.003 31.5417 165.677 30.7417 166.557C29.9551 167.437 29.3484 168.51 28.9217 169.777C28.4951 171.03 28.2817 172.45 28.2817 174.037ZM53.5817 194.157H49.1417C48.5017 194.157 47.9217 194.07 47.4017 193.897C46.8951 193.723 46.4284 193.403 46.0017 192.937L41.7617 188.257C41.0817 188.443 40.3817 188.583 39.6617 188.677C38.9551 188.77 38.2151 188.817 37.4417 188.817C35.2551 188.817 33.2617 188.45 31.4617 187.717C29.6617 186.97 28.1151 185.937 26.8217 184.617C25.5417 183.297 24.5484 181.737 23.8417 179.937C23.1351 178.123 22.7817 176.157 22.7817 174.037C22.7817 171.917 23.1351 169.957 23.8417 168.157C24.5484 166.343 25.5417 164.777 26.8217 163.457C28.1151 162.137 29.6617 161.11 31.4617 160.377C33.2617 159.63 35.2551 159.257 37.4417 159.257C38.9084 159.257 40.2884 159.43 41.5817 159.777C42.8751 160.11 44.0617 160.59 45.1417 161.217C46.2217 161.83 47.1884 162.583 48.0417 163.477C48.9084 164.357 49.6417 165.343 50.2417 166.437C50.8417 167.53 51.2951 168.717 51.6017 169.997C51.9217 171.277 52.0817 172.623 52.0817 174.037C52.0817 175.33 51.9484 176.57 51.6817 177.757C51.4151 178.93 51.0284 180.03 50.5217 181.057C50.0284 182.083 49.4217 183.03 48.7017 183.897C47.9817 184.75 47.1617 185.503 46.2417 186.157L53.5817 194.157ZM73.413 167.977V188.497H70.393C69.7396 188.497 69.3263 188.197 69.153 187.597L68.813 185.957C67.973 186.81 67.0463 187.503 66.033 188.037C65.0196 188.557 63.8263 188.817 62.453 188.817C61.333 188.817 60.3396 188.63 59.473 188.257C58.6196 187.87 57.8996 187.33 57.313 186.637C56.7263 185.943 56.2796 185.123 55.973 184.177C55.6796 183.217 55.533 182.163 55.533 181.017V167.977H60.473V181.017C60.473 182.27 60.7596 183.243 61.333 183.937C61.9196 184.617 62.793 184.957 63.953 184.957C64.8063 184.957 65.6063 184.77 66.353 184.397C67.0996 184.01 67.8063 183.483 68.473 182.817V167.977H73.413ZM91.5311 175.877C91.5311 175.237 91.4378 174.637 91.2511 174.077C91.0778 173.503 90.8111 173.003 90.4511 172.577C90.0911 172.15 89.6311 171.817 89.0711 171.577C88.5244 171.323 87.8844 171.197 87.1511 171.197C85.7244 171.197 84.5978 171.603 83.7711 172.417C82.9578 173.23 82.4378 174.383 82.2111 175.877H91.5311ZM82.1111 178.857C82.1911 179.91 82.3778 180.823 82.6711 181.597C82.9644 182.357 83.3511 182.99 83.8311 183.497C84.3111 183.99 84.8778 184.363 85.5311 184.617C86.1978 184.857 86.9311 184.977 87.7311 184.977C88.5311 184.977 89.2178 184.883 89.7911 184.697C90.3778 184.51 90.8844 184.303 91.3111 184.077C91.7511 183.85 92.1311 183.643 92.4511 183.457C92.7844 183.27 93.1044 183.177 93.4111 183.177C93.8244 183.177 94.1311 183.33 94.3311 183.637L95.7511 185.437C95.2044 186.077 94.5911 186.617 93.9111 187.057C93.2311 187.483 92.5178 187.83 91.7711 188.097C91.0378 188.35 90.2844 188.53 89.5111 188.637C88.7511 188.743 88.0111 188.797 87.2911 188.797C85.8644 188.797 84.5378 188.563 83.3111 188.097C82.0844 187.617 81.0178 186.917 80.1111 185.997C79.2044 185.063 78.4911 183.917 77.9711 182.557C77.4511 181.183 77.1911 179.597 77.1911 177.797C77.1911 176.397 77.4178 175.083 77.8711 173.857C78.3244 172.617 78.9711 171.543 79.8111 170.637C80.6644 169.717 81.6978 168.99 82.9111 168.457C84.1378 167.923 85.5178 167.657 87.0511 167.657C88.3444 167.657 89.5378 167.863 90.6311 168.277C91.7244 168.69 92.6644 169.297 93.4511 170.097C94.2378 170.883 94.8511 171.857 95.2911 173.017C95.7444 174.163 95.9711 175.477 95.9711 176.957C95.9711 177.703 95.8911 178.21 95.7311 178.477C95.5711 178.73 95.2644 178.857 94.8111 178.857H82.1111ZM112.198 171.977C112.065 172.19 111.925 172.343 111.778 172.437C111.632 172.517 111.445 172.557 111.218 172.557C110.978 172.557 110.718 172.49 110.438 172.357C110.172 172.223 109.858 172.077 109.498 171.917C109.138 171.743 108.725 171.59 108.258 171.457C107.805 171.323 107.265 171.257 106.638 171.257C105.665 171.257 104.898 171.463 104.338 171.877C103.792 172.29 103.518 172.83 103.518 173.497C103.518 173.937 103.658 174.31 103.938 174.617C104.232 174.91 104.612 175.17 105.078 175.397C105.558 175.623 106.098 175.83 106.698 176.017C107.298 176.19 107.905 176.383 108.518 176.597C109.145 176.81 109.758 177.057 110.358 177.337C110.958 177.603 111.492 177.95 111.958 178.377C112.438 178.79 112.818 179.29 113.098 179.877C113.392 180.463 113.538 181.17 113.538 181.997C113.538 182.983 113.358 183.897 112.998 184.737C112.652 185.563 112.132 186.283 111.438 186.897C110.745 187.497 109.885 187.97 108.858 188.317C107.845 188.65 106.672 188.817 105.338 188.817C104.632 188.817 103.938 188.75 103.258 188.617C102.592 188.497 101.945 188.323 101.318 188.097C100.705 187.87 100.132 187.603 99.5983 187.297C99.0783 186.99 98.6183 186.657 98.2183 186.297L99.3583 184.417C99.5049 184.19 99.6783 184.017 99.8783 183.897C100.078 183.777 100.332 183.717 100.638 183.717C100.945 183.717 101.232 183.803 101.498 183.977C101.778 184.15 102.098 184.337 102.458 184.537C102.818 184.737 103.238 184.923 103.718 185.097C104.212 185.27 104.832 185.357 105.578 185.357C106.165 185.357 106.665 185.29 107.078 185.157C107.505 185.01 107.852 184.823 108.118 184.597C108.398 184.37 108.598 184.11 108.718 183.817C108.852 183.51 108.918 183.197 108.918 182.877C108.918 182.397 108.772 182.003 108.478 181.697C108.198 181.39 107.818 181.123 107.338 180.897C106.872 180.67 106.332 180.47 105.718 180.297C105.118 180.11 104.498 179.91 103.858 179.697C103.232 179.483 102.612 179.237 101.998 178.957C101.398 178.663 100.858 178.297 100.378 177.857C99.9116 177.417 99.5316 176.877 99.2383 176.237C98.9583 175.597 98.8183 174.823 98.8183 173.917C98.8183 173.077 98.9849 172.277 99.3183 171.517C99.6516 170.757 100.138 170.097 100.778 169.537C101.432 168.963 102.238 168.51 103.198 168.177C104.172 167.83 105.292 167.657 106.558 167.657C107.972 167.657 109.258 167.89 110.418 168.357C111.578 168.823 112.545 169.437 113.318 170.197L112.198 171.977ZM124.096 188.817C122.31 188.817 120.936 188.317 119.976 187.317C119.03 186.303 118.556 184.91 118.556 183.137V171.677H116.456C116.19 171.677 115.963 171.59 115.776 171.417C115.59 171.243 115.496 170.983 115.496 170.637V168.677L118.796 168.137L119.836 162.537C119.903 162.27 120.03 162.063 120.216 161.917C120.403 161.77 120.643 161.697 120.936 161.697H123.496V168.157H128.976V171.677H123.496V182.797C123.496 183.437 123.65 183.937 123.956 184.297C124.276 184.657 124.71 184.837 125.256 184.837C125.563 184.837 125.816 184.803 126.016 184.737C126.23 184.657 126.41 184.577 126.556 184.497C126.716 184.417 126.856 184.343 126.976 184.277C127.096 184.197 127.216 184.157 127.336 184.157C127.483 184.157 127.603 184.197 127.696 184.277C127.79 184.343 127.89 184.45 127.996 184.597L129.476 186.997C128.756 187.597 127.93 188.05 126.996 188.357C126.063 188.663 125.096 188.817 124.096 188.817ZM143.739 184.297C144.739 184.297 145.579 184.177 146.259 183.937C146.939 183.697 147.479 183.377 147.879 182.977C148.293 182.577 148.586 182.11 148.759 181.577C148.946 181.043 149.039 180.477 149.039 179.877C149.039 179.25 148.939 178.69 148.739 178.197C148.539 177.69 148.226 177.263 147.799 176.917C147.373 176.557 146.819 176.283 146.139 176.097C145.473 175.91 144.666 175.817 143.719 175.817H138.299V184.297H143.739ZM138.299 163.737V172.097H142.579C144.419 172.097 145.806 171.763 146.739 171.097C147.686 170.43 148.159 169.37 148.159 167.917C148.159 166.41 147.733 165.337 146.879 164.697C146.026 164.057 144.693 163.737 142.879 163.737H138.299ZM142.879 159.577C144.773 159.577 146.393 159.757 147.739 160.117C149.086 160.477 150.186 160.99 151.039 161.657C151.906 162.323 152.539 163.13 152.939 164.077C153.339 165.023 153.539 166.09 153.539 167.277C153.539 167.957 153.439 168.61 153.239 169.237C153.039 169.85 152.726 170.43 152.299 170.977C151.886 171.51 151.353 171.997 150.699 172.437C150.059 172.877 149.293 173.25 148.399 173.557C152.373 174.45 154.359 176.597 154.359 179.997C154.359 181.223 154.126 182.357 153.659 183.397C153.193 184.437 152.513 185.337 151.619 186.097C150.726 186.843 149.626 187.43 148.319 187.857C147.013 188.283 145.519 188.497 143.839 188.497H132.919V159.577H142.879ZM175.796 167.977V188.497H172.776C172.122 188.497 171.709 188.197 171.536 187.597L171.196 185.957C170.356 186.81 169.429 187.503 168.416 188.037C167.402 188.557 166.209 188.817 164.836 188.817C163.716 188.817 162.722 188.63 161.856 188.257C161.002 187.87 160.282 187.33 159.696 186.637C159.109 185.943 158.662 185.123 158.356 184.177C158.062 183.217 157.916 182.163 157.916 181.017V167.977H162.856V181.017C162.856 182.27 163.142 183.243 163.716 183.937C164.302 184.617 165.176 184.957 166.336 184.957C167.189 184.957 167.989 184.77 168.736 184.397C169.482 184.01 170.189 183.483 170.856 182.817V167.977H175.796ZM193.574 173.217C193.014 172.537 192.401 172.057 191.734 171.777C191.081 171.497 190.374 171.357 189.614 171.357C188.867 171.357 188.194 171.497 187.594 171.777C186.994 172.057 186.481 172.483 186.054 173.057C185.627 173.617 185.301 174.337 185.074 175.217C184.847 176.083 184.734 177.11 184.734 178.297C184.734 179.497 184.827 180.517 185.014 181.357C185.214 182.183 185.494 182.863 185.854 183.397C186.214 183.917 186.654 184.297 187.174 184.537C187.694 184.763 188.274 184.877 188.914 184.877C189.941 184.877 190.814 184.663 191.534 184.237C192.254 183.81 192.934 183.203 193.574 182.417V173.217ZM198.514 158.777V188.497H195.494C194.841 188.497 194.427 188.197 194.254 187.597L193.834 185.617C193.007 186.563 192.054 187.33 190.974 187.917C189.907 188.503 188.661 188.797 187.234 188.797C186.114 188.797 185.087 188.563 184.154 188.097C183.221 187.63 182.414 186.957 181.734 186.077C181.067 185.183 180.547 184.083 180.174 182.777C179.814 181.47 179.634 179.977 179.634 178.297C179.634 176.777 179.841 175.363 180.254 174.057C180.667 172.75 181.261 171.617 182.034 170.657C182.807 169.697 183.734 168.95 184.814 168.417C185.894 167.87 187.107 167.597 188.454 167.597C189.601 167.597 190.581 167.777 191.394 168.137C192.207 168.497 192.934 168.983 193.574 169.597V158.777H198.514ZM216.269 173.217C215.709 172.537 215.096 172.057 214.429 171.777C213.776 171.497 213.069 171.357 212.309 171.357C211.563 171.357 210.889 171.497 210.289 171.777C209.689 172.057 209.176 172.483 208.749 173.057C208.323 173.617 207.996 174.337 207.769 175.217C207.543 176.083 207.429 177.11 207.429 178.297C207.429 179.497 207.523 180.517 207.709 181.357C207.909 182.183 208.189 182.863 208.549 183.397C208.909 183.917 209.349 184.297 209.869 184.537C210.389 184.763 210.969 184.877 211.609 184.877C212.636 184.877 213.509 184.663 214.229 184.237C214.949 183.81 215.629 183.203 216.269 182.417V173.217ZM221.209 158.777V188.497H218.189C217.536 188.497 217.123 188.197 216.949 187.597L216.529 185.617C215.703 186.563 214.749 187.33 213.669 187.917C212.603 188.503 211.356 188.797 209.929 188.797C208.809 188.797 207.783 188.563 206.849 188.097C205.916 187.63 205.109 186.957 204.429 186.077C203.763 185.183 203.243 184.083 202.869 182.777C202.509 181.47 202.329 179.977 202.329 178.297C202.329 176.777 202.536 175.363 202.949 174.057C203.363 172.75 203.956 171.617 204.729 170.657C205.503 169.697 206.429 168.95 207.509 168.417C208.589 167.87 209.803 167.597 211.149 167.597C212.296 167.597 213.276 167.777 214.089 168.137C214.903 168.497 215.629 168.983 216.269 169.597V158.777H221.209ZM244.725 167.977L233.545 194.137C233.398 194.483 233.205 194.743 232.965 194.917C232.738 195.103 232.385 195.197 231.905 195.197H228.225L232.065 186.957L223.765 167.977H228.105C228.491 167.977 228.791 168.07 229.005 168.257C229.231 168.443 229.398 168.657 229.505 168.897L233.865 179.537C234.011 179.897 234.131 180.257 234.225 180.617C234.331 180.977 234.431 181.343 234.525 181.717C234.645 181.343 234.765 180.977 234.885 180.617C235.005 180.243 235.138 179.877 235.285 179.517L239.405 168.897C239.511 168.63 239.685 168.41 239.925 168.237C240.178 168.063 240.458 167.977 240.765 167.977H244.725Z" fill="#262626"/>
<path d="M28.9217 178.317L27.974 178.636L27.9751 178.639L28.9217 178.317ZM30.7417 181.517L29.9962 182.183L30.0015 182.189L30.0069 182.195L30.7417 181.517ZM33.6217 183.517L33.2371 184.44L33.241 184.442L33.6217 183.517ZM41.2417 183.517L40.861 182.592L40.8571 182.594L41.2417 183.517ZM44.1217 181.517L44.8622 182.189L44.8673 182.183L44.1217 181.517ZM45.9417 178.317L46.8884 178.639L46.8894 178.636L45.9417 178.317ZM45.9417 169.777L44.994 170.096L44.9951 170.099L45.9417 169.777ZM44.1217 166.557L43.3762 167.223L43.3762 167.223L44.1217 166.557ZM41.2417 164.537L40.8571 165.46L40.861 165.462L41.2417 164.537ZM33.6217 164.537L33.241 163.612L33.2371 163.614L33.6217 164.537ZM30.7417 166.557L30.0018 165.884L29.9962 165.89L30.7417 166.557ZM28.9217 169.777L29.8684 170.099L29.8694 170.096L28.9217 169.777ZM53.5817 194.157V195.157H55.8564L54.3186 193.481L53.5817 194.157ZM47.4017 193.897L47.078 194.843L47.0855 194.846L47.4017 193.897ZM46.0017 192.937L45.2606 193.608L45.2637 193.612L46.0017 192.937ZM41.7617 188.257L42.5028 187.585L42.09 187.13L41.497 187.292L41.7617 188.257ZM39.6617 188.677L39.5332 187.685L39.5308 187.685L39.6617 188.677ZM31.4617 187.717L31.0786 188.641L31.0844 188.643L31.4617 187.717ZM26.8217 184.617L26.1038 185.313L26.1074 185.317L26.8217 184.617ZM23.8417 179.937L22.91 180.3L22.9109 180.302L23.8417 179.937ZM23.8417 168.157L24.7726 168.522L24.7735 168.52L23.8417 168.157ZM26.8217 163.457L26.1074 162.757L26.1038 162.761L26.8217 163.457ZM31.4617 160.377L31.839 161.303L31.8449 161.301L31.4617 160.377ZM41.5817 159.777L41.3228 160.743L41.3321 160.745L41.5817 159.777ZM45.1417 161.217L44.6398 162.082L44.6479 162.086L45.1417 161.217ZM48.0417 163.477L47.3186 164.168L47.3239 164.173L47.3292 164.179L48.0417 163.477ZM50.2417 166.437L51.1184 165.956L51.1184 165.956L50.2417 166.437ZM51.6017 169.997L50.6292 170.23L50.6316 170.239L51.6017 169.997ZM51.6817 177.757L52.6569 177.978L52.6574 177.976L51.6817 177.757ZM50.5217 181.057L49.6249 180.614L49.6204 180.624L50.5217 181.057ZM48.7017 183.897L49.466 184.542L49.4709 184.536L48.7017 183.897ZM46.2417 186.157L45.6627 185.341L44.7386 185.998L45.5049 186.833L46.2417 186.157ZM27.2817 174.037C27.2817 175.712 27.5069 177.249 27.974 178.636L29.8694 177.998C29.4832 176.851 29.2817 175.535 29.2817 174.037H27.2817ZM27.9751 178.639C28.4397 180.004 29.1098 181.192 29.9962 182.183L31.4873 180.85C30.8003 180.082 30.257 179.136 29.8684 177.995L27.9751 178.639ZM30.0069 182.195C30.9075 183.171 31.988 183.919 33.2371 184.44L34.0063 182.594C33.0154 182.181 32.1759 181.596 31.4765 180.839L30.0069 182.195ZM33.241 184.442C34.5121 184.965 35.9176 185.217 37.4417 185.217V183.217C36.1392 183.217 34.998 183.002 34.0025 182.592L33.241 184.442ZM37.4417 185.217C38.9656 185.217 40.3661 184.965 41.6263 184.44L40.8571 182.594C39.8774 183.002 38.7445 183.217 37.4417 183.217V185.217ZM41.6225 184.442C42.8863 183.921 43.9711 183.171 44.8622 182.189L43.3813 180.845C42.699 181.596 41.8638 182.179 40.861 182.592L41.6225 184.442ZM44.8673 182.183C45.7537 181.192 46.4237 180.004 46.8884 178.639L44.9951 177.995C44.6064 179.136 44.0631 180.082 43.3762 180.85L44.8673 182.183ZM46.8894 178.636C47.3565 177.249 47.5817 175.712 47.5817 174.037H45.5817C45.5817 175.535 45.3803 176.851 44.994 177.998L46.8894 178.636ZM47.5817 174.037C47.5817 172.362 47.3566 170.83 46.8884 169.455L44.9951 170.099C45.3802 171.23 45.5817 172.539 45.5817 174.037H47.5817ZM46.8894 169.458C46.4252 168.08 45.7553 166.884 44.8673 165.89L43.3762 167.223C44.0615 167.99 44.6049 168.941 44.994 170.096L46.8894 169.458ZM44.8673 165.89C43.9761 164.894 42.8898 164.134 41.6225 163.612L40.861 165.462C41.8603 165.873 42.694 166.46 43.3762 167.223L44.8673 165.89ZM41.6263 163.614C40.3661 163.089 38.9656 162.837 37.4417 162.837V164.837C38.7445 164.837 39.8774 165.052 40.8571 165.46L41.6263 163.614ZM37.4417 162.837C35.9176 162.837 34.5121 163.089 33.241 163.612L34.0025 165.462C34.998 165.052 36.1392 164.837 37.4417 164.837V162.837ZM33.2371 163.614C31.9846 164.136 30.9025 164.893 30.0018 165.884L31.4817 167.229C32.181 166.46 33.0189 165.871 34.0063 165.46L33.2371 163.614ZM29.9962 165.89C29.1081 166.884 28.4382 168.08 27.974 169.458L29.8694 170.096C30.2586 168.941 30.802 167.99 31.4873 167.223L29.9962 165.89ZM27.9751 169.455C27.5069 170.83 27.2817 172.362 27.2817 174.037H29.2817C29.2817 172.539 29.4832 171.23 29.8684 170.099L27.9751 169.455ZM53.5817 193.157H49.1417V195.157H53.5817V193.157ZM49.1417 193.157C48.5916 193.157 48.1205 193.082 47.7179 192.948L47.0855 194.846C47.7229 195.058 48.4118 195.157 49.1417 195.157V193.157ZM47.7254 192.951C47.4039 192.841 47.0737 192.627 46.7398 192.262L45.2637 193.612C45.783 194.18 46.3862 194.606 47.078 194.843L47.7254 192.951ZM46.7428 192.265L42.5028 187.585L41.0206 188.928L45.2606 193.608L46.7428 192.265ZM41.497 187.292C40.863 187.467 40.2086 187.598 39.5332 187.685L39.7903 189.669C40.5549 189.569 41.3004 189.42 42.0264 189.221L41.497 187.292ZM39.5308 187.685C38.871 187.773 38.1749 187.817 37.4417 187.817V189.817C38.2552 189.817 39.0391 189.768 39.7927 189.668L39.5308 187.685ZM37.4417 187.817C35.3683 187.817 33.5051 187.47 31.839 186.791L31.0844 188.643C33.0183 189.431 35.1418 189.817 37.4417 189.817V187.817ZM31.8449 186.793C30.1623 186.095 28.7301 185.136 27.536 183.917L26.1074 185.317C27.5 186.738 29.1611 187.845 31.0786 188.641L31.8449 186.793ZM27.5396 183.921C26.3565 182.701 25.4334 181.255 24.7726 179.571L22.9109 180.302C23.6634 182.219 24.7269 183.893 26.1038 185.313L27.5396 183.921ZM24.7735 179.574C24.1158 177.886 23.7817 176.044 23.7817 174.037H21.7817C21.7817 176.27 22.1543 178.361 22.91 180.3L24.7735 179.574ZM23.7817 174.037C23.7817 172.03 24.1158 170.195 24.7726 168.522L22.9109 167.791C22.1543 169.719 21.7817 171.804 21.7817 174.037H23.7817ZM24.7735 168.52C25.4346 166.823 26.3577 165.372 27.5396 164.153L26.1038 162.761C24.7257 164.182 23.6621 165.864 22.91 167.794L24.7735 168.52ZM27.536 164.157C28.7287 162.939 30.159 161.987 31.839 161.303L31.0844 159.451C29.1645 160.233 27.5014 161.334 26.1074 162.757L27.536 164.157ZM31.8449 161.301C33.5094 160.61 35.3705 160.257 37.4417 160.257V158.257C35.1396 158.257 33.014 158.65 31.0786 159.453L31.8449 161.301ZM37.4417 160.257C38.8292 160.257 40.1215 160.421 41.3228 160.743L41.8406 158.811C40.4552 158.44 38.9876 158.257 37.4417 158.257V160.257ZM41.3321 160.745C42.5432 161.057 43.6441 161.504 44.6398 162.082L45.6436 160.352C44.4793 159.676 43.2069 159.163 41.8313 158.808L41.3321 160.745ZM44.6479 162.086C45.6436 162.652 46.5329 163.345 47.3186 164.168L48.7648 162.786C47.8438 161.822 46.7998 161.008 45.6355 160.347L44.6479 162.086ZM47.3292 164.179C48.1306 164.992 48.8089 165.905 49.3651 166.918L51.1184 165.956C50.4745 164.782 49.6861 163.721 48.7542 162.775L47.3292 164.179ZM49.3651 166.918C49.9199 167.929 50.3422 169.032 50.6292 170.23L52.5742 169.764C52.2479 168.402 51.7635 167.131 51.1184 165.956L49.3651 166.918ZM50.6316 170.239C50.9304 171.435 51.0817 172.699 51.0817 174.037H53.0817C53.0817 172.548 52.913 171.119 52.5719 169.754L50.6316 170.239ZM51.0817 174.037C51.0817 175.261 50.9556 176.427 50.7061 177.538L52.6574 177.976C52.9412 176.713 53.0817 175.399 53.0817 174.037H51.0817ZM50.7066 177.535C50.4564 178.636 50.0952 179.661 49.625 180.614L51.4185 181.499C51.9616 180.399 52.3737 179.224 52.6569 177.978L50.7066 177.535ZM49.6204 180.624C49.1621 181.577 48.5996 182.455 47.9325 183.258L49.4709 184.536C50.2438 183.606 50.8947 182.59 51.4231 181.49L49.6204 180.624ZM47.9374 183.252C47.2723 184.04 46.5148 184.736 45.6627 185.341L46.8207 186.972C47.8087 186.271 48.6911 185.46 49.466 184.542L47.9374 183.252ZM45.5049 186.833L52.8449 194.833L54.3186 193.481L46.9786 185.481L45.5049 186.833ZM73.413 167.977H74.413V166.977H73.413V167.977ZM73.413 188.497V189.497H74.413V188.497H73.413ZM69.153 187.597L68.1738 187.8L68.1816 187.837L68.1923 187.874L69.153 187.597ZM68.813 185.957L69.7921 185.754L69.4125 183.922L68.1003 185.255L68.813 185.957ZM66.033 188.037L66.4895 188.927L66.4987 188.922L66.033 188.037ZM59.473 188.257L59.0602 189.168L59.0688 189.172L59.0773 189.175L59.473 188.257ZM57.313 186.637L56.5496 187.283L56.5496 187.283L57.313 186.637ZM55.973 184.177L55.0166 184.469L55.0191 184.477L55.0216 184.485L55.973 184.177ZM55.533 167.977V166.977H54.533V167.977H55.533ZM60.473 167.977H61.473V166.977H60.473V167.977ZM61.333 183.937L60.5623 184.574L60.569 184.582L60.5758 184.59L61.333 183.937ZM66.353 184.397L66.8002 185.291L66.8065 185.288L66.8128 185.285L66.353 184.397ZM68.473 182.817L69.1801 183.524L69.473 183.231V182.817H68.473ZM68.473 167.977V166.977H67.473V167.977H68.473ZM72.413 167.977V188.497H74.413V167.977H72.413ZM73.413 187.497H70.393V189.497H73.413V187.497ZM70.393 187.497C70.3053 187.497 70.2498 187.487 70.2187 187.478C70.2034 187.474 70.1938 187.47 70.1885 187.467C70.1834 187.465 70.181 187.463 70.1804 187.463C70.1797 187.462 70.1787 187.461 70.177 187.459C70.1753 187.458 70.1713 187.453 70.1657 187.444C70.1544 187.427 70.1339 187.389 70.1137 187.319L68.1923 187.874C68.3266 188.339 68.5815 188.773 69.0056 189.081C69.4253 189.386 69.9144 189.497 70.393 189.497V187.497ZM70.1321 187.394L69.7921 185.754L67.8338 186.16L68.1738 187.8L70.1321 187.394ZM68.1003 185.255C67.3293 186.039 66.4852 186.669 65.5672 187.152L66.4987 188.922C67.6074 188.338 68.6166 187.582 69.5256 186.658L68.1003 185.255ZM65.5764 187.147C64.7306 187.581 63.6999 187.817 62.453 187.817V189.817C63.9527 189.817 65.3087 189.532 66.4895 188.927L65.5764 187.147ZM62.453 187.817C61.444 187.817 60.5892 187.649 59.8686 187.338L59.0773 189.175C60.0901 189.611 61.2219 189.817 62.453 189.817V187.817ZM59.8857 187.346C59.1631 187.019 58.5642 186.567 58.0764 185.991L56.5496 187.283C57.2351 188.093 58.0762 188.722 59.0602 189.168L59.8857 187.346ZM58.0764 185.991C57.5814 185.406 57.1947 184.703 56.9243 183.869L55.0216 184.485C55.3645 185.544 55.8712 186.481 56.5496 187.283L58.0764 185.991ZM56.9293 183.885C56.6687 183.032 56.533 182.078 56.533 181.017H54.533C54.533 182.249 54.6906 183.402 55.0166 184.469L56.9293 183.885ZM56.533 181.017V167.977H54.533V181.017H56.533ZM55.533 168.977H60.473V166.977H55.533V168.977ZM59.473 167.977V181.017H61.473V167.977H59.473ZM59.473 181.017C59.473 182.412 59.7918 183.642 60.5623 184.574L62.1036 183.3C61.7274 182.845 61.473 182.128 61.473 181.017H59.473ZM60.5758 184.59C61.4046 185.551 62.5929 185.957 63.953 185.957V183.957C62.993 183.957 62.4346 183.683 62.0901 183.284L60.5758 184.59ZM63.953 185.957C64.958 185.957 65.9115 185.736 66.8002 185.291L65.9058 183.502C65.3011 183.805 64.6546 183.957 63.953 183.957V185.957ZM66.8128 185.285C67.661 184.846 68.4495 184.255 69.1801 183.524L67.7659 182.11C67.1631 182.712 66.5383 183.175 65.8931 183.509L66.8128 185.285ZM69.473 182.817V167.977H67.473V182.817H69.473ZM68.473 168.977H73.413V166.977H68.473V168.977ZM91.5311 175.877V176.877H92.5311V175.877H91.5311ZM91.2511 174.077L90.2939 174.366L90.298 174.38L90.3024 174.393L91.2511 174.077ZM89.0711 171.577L88.6506 172.484L88.6638 172.49L88.6772 172.496L89.0711 171.577ZM83.7711 172.417L83.0697 171.704L83.064 171.71L83.7711 172.417ZM82.2111 175.877L81.2224 175.727L81.0479 176.877H82.2111V175.877ZM82.1111 178.857V177.857H81.0323L81.114 178.933L82.1111 178.857ZM82.6711 181.597L81.7361 181.951L81.7382 181.957L82.6711 181.597ZM83.8311 183.497L83.1051 184.185L83.1144 184.194L83.8311 183.497ZM85.5311 184.617L85.1696 185.549L85.1809 185.554L85.1924 185.558L85.5311 184.617ZM89.7911 184.697L89.4879 183.744L89.4815 183.746L89.7911 184.697ZM91.3111 184.077L90.8531 183.188L90.8419 183.194L91.3111 184.077ZM92.4511 183.457L91.9625 182.584L91.9548 182.589L91.9472 182.593L92.4511 183.457ZM94.3311 183.637L93.4935 184.183L93.5181 184.221L93.546 184.256L94.3311 183.637ZM95.7511 185.437L96.5115 186.086L97.0447 185.462L96.5362 184.817L95.7511 185.437ZM93.9111 187.057L94.4426 187.904L94.4543 187.896L93.9111 187.057ZM91.7711 188.097L92.0976 189.042L92.1074 189.039L91.7711 188.097ZM89.5111 188.637L89.3745 187.646L89.3721 187.647L89.5111 188.637ZM83.3111 188.097L82.9467 189.028L82.9555 189.031L83.3111 188.097ZM80.1111 185.997L79.3938 186.694L79.3988 186.699L80.1111 185.997ZM77.9711 182.557L77.0359 182.911L77.037 182.914L77.9711 182.557ZM77.8711 173.857L78.8091 174.203L78.8103 174.2L77.8711 173.857ZM79.8111 170.637L79.0779 169.957L79.0775 169.957L79.8111 170.637ZM82.9111 168.457L82.5124 167.54L82.5087 167.541L82.9111 168.457ZM90.6311 168.277L90.9847 167.341L90.6311 168.277ZM93.4511 170.097L92.738 170.798L92.744 170.804L93.4511 170.097ZM95.2911 173.017L94.356 173.372L94.3611 173.384L95.2911 173.017ZM95.7311 178.477L96.5766 179.011L96.5827 179.001L96.5886 178.991L95.7311 178.477ZM92.5311 175.877C92.5311 175.138 92.4232 174.431 92.1998 173.761L90.3024 174.393C90.4523 174.843 90.5311 175.335 90.5311 175.877H92.5311ZM92.2083 173.787C91.9985 173.093 91.6695 172.47 91.2154 171.932L89.6868 173.222C89.9527 173.537 90.1571 173.914 90.2939 174.366L92.2083 173.787ZM91.2154 171.932C90.746 171.376 90.1548 170.953 89.465 170.658L88.6772 172.496C89.1074 172.68 89.4362 172.925 89.6868 173.222L91.2154 171.932ZM89.4916 170.67C88.7877 170.343 87.9987 170.197 87.1511 170.197V172.197C87.7701 172.197 88.2612 172.304 88.6506 172.484L89.4916 170.67ZM87.1511 170.197C85.526 170.197 84.1246 170.666 83.0698 171.704L84.4724 173.13C85.0709 172.541 85.9228 172.197 87.1511 172.197V170.197ZM83.064 171.71C82.0587 172.715 81.4711 174.088 81.2224 175.727L83.1998 176.027C83.4044 174.679 83.8569 173.745 84.4782 173.124L83.064 171.71ZM82.2111 176.877H91.5311V174.877H82.2111V176.877ZM81.114 178.933C81.1993 180.056 81.4009 181.068 81.7361 181.951L83.6061 181.242C83.3546 180.579 83.1829 179.764 83.1082 178.781L81.114 178.933ZM81.7382 181.957C82.0707 182.819 82.5217 183.569 83.1051 184.185L84.557 182.809C84.1804 182.412 83.8581 181.895 83.604 181.237L81.7382 181.957ZM83.1144 184.194C83.6964 184.792 84.3848 185.245 85.1696 185.549L85.8926 183.684C85.3707 183.482 84.9258 183.188 84.5478 182.799L83.1144 184.194ZM85.1924 185.558C85.9808 185.842 86.8304 185.977 87.7311 185.977V183.977C87.0318 183.977 86.4148 183.872 85.8698 183.676L85.1924 185.558ZM87.7311 185.977C88.604 185.977 89.4008 185.876 90.1007 185.648L89.4815 183.746C89.0347 183.891 88.4582 183.977 87.7311 183.977V185.977ZM90.0943 185.65C90.7235 185.45 91.2884 185.221 91.7802 184.96L90.8419 183.194C90.4805 183.386 90.032 183.571 89.4879 183.744L90.0943 185.65ZM91.769 184.966C92.2198 184.734 92.6159 184.518 92.955 184.321L91.9472 182.593C91.6463 182.769 91.2824 182.967 90.8531 183.188L91.769 184.966ZM92.9397 184.329C93.16 184.206 93.3127 184.177 93.4111 184.177V182.177C92.8962 182.177 92.4089 182.334 91.9625 182.584L92.9397 184.329ZM93.4111 184.177C93.4941 184.177 93.5151 184.192 93.5039 184.186C93.499 184.184 93.4933 184.18 93.4889 184.176C93.4848 184.172 93.4869 184.173 93.4935 184.183L95.1687 183.091C94.7578 182.46 94.1111 182.177 93.4111 182.177V184.177ZM93.546 184.256L94.966 186.056L96.5362 184.817L95.1162 183.017L93.546 184.256ZM94.9907 184.787C94.5044 185.357 93.9635 185.832 93.3678 186.217L94.4543 187.896C95.2187 187.402 95.9045 186.797 96.5115 186.086L94.9907 184.787ZM93.3796 186.21C92.7603 186.598 92.1123 186.913 91.4348 187.155L92.1074 189.039C92.9232 188.747 93.7019 188.369 94.4426 187.904L93.3796 186.21ZM91.4446 187.152C90.7733 187.384 90.0836 187.548 89.3745 187.646L89.6477 189.627C90.4853 189.512 91.3022 189.317 92.0976 189.042L91.4446 187.152ZM89.3721 187.647C88.6552 187.747 87.9617 187.797 87.2911 187.797V189.797C88.0605 189.797 88.847 189.74 89.6501 189.627L89.3721 187.647ZM87.2911 187.797C85.9753 187.797 84.7703 187.582 83.6667 187.162L82.9555 189.031C84.3053 189.545 85.7535 189.797 87.2911 189.797V187.797ZM83.6755 187.166C82.5769 186.736 81.6295 186.113 80.8233 185.295L79.3988 186.699C80.4061 187.721 81.5919 188.498 82.9467 189.028L83.6755 187.166ZM80.8284 185.3C80.0269 184.475 79.3825 183.448 78.9051 182.2L77.037 182.914C77.5997 184.386 78.3819 185.652 79.3938 186.694L80.8284 185.3ZM78.9063 182.203C78.4376 180.965 78.1911 179.502 78.1911 177.797H76.1911C76.1911 179.691 76.4646 181.402 77.0359 182.911L78.9063 182.203ZM78.1911 177.797C78.1911 176.507 78.3996 175.312 78.8091 174.203L76.9331 173.51C76.4359 174.855 76.1911 176.287 76.1911 177.797H78.1911ZM78.8103 174.2C79.2212 173.076 79.8009 172.119 80.5447 171.316L79.0775 169.957C78.1413 170.968 77.4276 172.157 76.9319 173.513L78.8103 174.2ZM80.5443 171.317C81.2994 170.503 82.2182 169.854 83.3135 169.372L82.5087 167.541C81.1773 168.127 80.0294 168.931 79.0779 169.957L80.5443 171.317ZM83.3098 169.374C84.3936 168.903 85.635 168.657 87.0511 168.657V166.657C85.4005 166.657 83.882 166.944 82.5124 167.54L83.3098 169.374ZM87.0511 168.657C88.2365 168.657 89.3086 168.846 90.2775 169.212L90.9847 167.341C89.767 166.881 88.4524 166.657 87.0511 166.657V168.657ZM90.2775 169.212C91.2413 169.577 92.0571 170.105 92.7381 170.798L94.1641 169.396C93.2718 168.488 92.2076 167.804 90.9847 167.341L90.2775 169.212ZM92.744 170.804C93.4197 171.48 93.9605 172.328 94.3561 173.371L96.2261 172.662C95.7417 171.385 95.0559 170.287 94.1582 169.39L92.744 170.804ZM94.3611 173.384C94.7599 174.393 94.9711 175.578 94.9711 176.957H96.9711C96.9711 175.376 96.7289 173.934 96.2211 172.649L94.3611 173.384ZM94.9711 176.957C94.9711 177.299 94.9524 177.557 94.9233 177.741C94.892 177.939 94.8584 177.988 94.8736 177.962L96.5886 178.991C96.7638 178.699 96.8502 178.361 96.8989 178.053C96.9498 177.73 96.9711 177.361 96.9711 176.957H94.9711ZM94.8856 177.943C94.9037 177.914 94.9269 177.888 94.9522 177.868C94.9767 177.848 94.9951 177.839 94.9993 177.838C95.0027 177.836 94.9913 177.841 94.9592 177.847C94.927 177.852 94.8787 177.857 94.8111 177.857V179.857C95.42 179.857 96.1517 179.684 96.5766 179.011L94.8856 177.943ZM94.8111 177.857H82.1111V179.857H94.8111V177.857ZM112.198 171.977L111.352 171.444L111.35 171.447L112.198 171.977ZM111.778 172.437L112.257 173.315L112.287 173.299L112.315 173.28L111.778 172.437ZM110.438 172.357L109.991 173.251L110 173.256L110.008 173.26L110.438 172.357ZM109.498 171.917L109.064 172.818L109.078 172.824L109.092 172.831L109.498 171.917ZM108.258 171.457L107.976 172.416L107.984 172.418L108.258 171.457ZM104.338 171.877L103.744 171.072L103.735 171.079L104.338 171.877ZM103.938 174.617L103.2 175.291L103.215 175.308L103.231 175.324L103.938 174.617ZM105.078 175.397L104.641 176.296L104.651 176.301L105.078 175.397ZM106.698 176.017L106.401 176.972L106.411 176.975L106.421 176.978L106.698 176.017ZM108.518 176.597L108.19 177.541L108.196 177.543L108.518 176.597ZM110.358 177.337L109.935 178.243L109.944 178.247L109.952 178.251L110.358 177.337ZM111.958 178.377L111.284 179.115L111.294 179.125L111.306 179.135L111.958 178.377ZM113.098 179.877L112.196 180.308L112.2 180.316L112.204 180.324L113.098 179.877ZM112.998 184.737L112.079 184.343L112.076 184.35L112.998 184.737ZM111.438 186.897L112.093 187.653L112.101 187.646L111.438 186.897ZM108.858 188.317L109.171 189.267L109.178 189.264L108.858 188.317ZM103.258 188.617L103.451 187.636L103.443 187.634L103.435 187.633L103.258 188.617ZM101.318 188.097L100.972 189.035L100.978 189.037L101.318 188.097ZM99.5983 187.297L99.0903 188.158L99.0998 188.164L99.5983 187.297ZM98.2183 186.297L97.3632 185.778L96.9339 186.486L97.5493 187.04L98.2183 186.297ZM99.3583 184.417L98.5187 183.874L98.5108 183.886L98.5032 183.898L99.3583 184.417ZM99.8783 183.897L100.393 184.754L100.393 184.754L99.8783 183.897ZM101.498 183.977L100.953 184.815L100.963 184.821L100.972 184.827L101.498 183.977ZM102.458 184.537L101.973 185.411L101.973 185.411L102.458 184.537ZM103.718 185.097L103.379 186.037L103.387 186.04L103.718 185.097ZM107.078 185.157L107.385 186.109L107.394 186.106L107.403 186.103L107.078 185.157ZM108.118 184.597L107.489 183.82L107.48 183.827L107.471 183.835L108.118 184.597ZM108.718 183.817L107.801 183.418L107.797 183.428L107.793 183.438L108.718 183.817ZM108.478 181.697L107.74 182.371L107.748 182.38L107.756 182.388L108.478 181.697ZM107.338 180.897L106.901 181.796L106.911 181.801L107.338 180.897ZM105.718 180.297L105.421 181.252L105.434 181.256L105.446 181.259L105.718 180.297ZM103.858 179.697L103.536 180.643L103.542 180.646L103.858 179.697ZM101.998 178.957L101.559 179.855L101.571 179.861L101.583 179.867L101.998 178.957ZM100.378 177.857L99.6922 178.584L99.7026 178.594L100.378 177.857ZM99.2383 176.237L98.3221 176.638L98.3256 176.646L98.3292 176.653L99.2383 176.237ZM99.3183 171.517L98.4025 171.115L98.4025 171.115L99.3183 171.517ZM100.778 169.537L101.437 170.289L101.438 170.288L100.778 169.537ZM103.198 168.177L103.526 169.122L103.534 169.119L103.198 168.177ZM110.418 168.357L110.792 167.429L110.792 167.429L110.418 168.357ZM113.318 170.197L114.165 170.729L114.593 170.048L114.019 169.484L113.318 170.197ZM111.35 171.447C111.309 171.513 111.277 171.554 111.255 171.578C111.233 171.601 111.228 171.602 111.241 171.593L112.315 173.28C112.631 173.08 112.867 172.794 113.046 172.507L111.35 171.447ZM111.299 171.559C111.322 171.547 111.331 171.546 111.319 171.549C111.306 171.552 111.274 171.557 111.218 171.557V173.557C111.555 173.557 111.921 173.498 112.257 173.315L111.299 171.559ZM111.218 171.557C111.164 171.557 111.052 171.541 110.868 171.454L110.008 173.26C110.385 173.439 110.793 173.557 111.218 173.557V171.557ZM110.885 171.462C110.602 171.321 110.274 171.167 109.904 171.003L109.092 172.831C109.442 172.986 109.741 173.126 109.991 173.251L110.885 171.462ZM109.932 171.016C109.511 170.813 109.043 170.641 108.533 170.495L107.984 172.418C108.407 172.539 108.765 172.674 109.064 172.818L109.932 171.016ZM108.54 170.497C107.971 170.33 107.331 170.257 106.638 170.257V172.257C107.199 172.257 107.639 172.317 107.976 172.416L108.54 170.497ZM106.638 170.257C105.534 170.257 104.533 170.49 103.744 171.072L104.932 172.681C105.264 172.437 105.796 172.257 106.638 172.257V170.257ZM103.735 171.079C102.947 171.675 102.518 172.507 102.518 173.497H104.518C104.518 173.154 104.636 172.905 104.941 172.674L103.735 171.079ZM102.518 173.497C102.518 174.17 102.741 174.788 103.2 175.291L104.677 173.943C104.576 173.832 104.518 173.704 104.518 173.497H102.518ZM103.231 175.324C103.62 175.713 104.099 176.033 104.641 176.296L105.515 174.497C105.125 174.308 104.843 174.107 104.645 173.91L103.231 175.324ZM104.651 176.301C105.18 176.551 105.765 176.774 106.401 176.972L106.995 175.062C106.432 174.887 105.936 174.696 105.505 174.493L104.651 176.301ZM106.421 176.978C107.003 177.146 107.593 177.334 108.19 177.541L108.847 175.652C108.217 175.433 107.594 175.235 106.976 175.056L106.421 176.978ZM108.196 177.543C108.788 177.745 109.368 177.978 109.935 178.243L110.781 176.431C110.148 176.135 109.501 175.875 108.841 175.65L108.196 177.543ZM109.952 178.251C110.458 178.475 110.899 178.764 111.284 179.115L112.633 177.639C112.084 177.137 111.459 176.732 110.764 176.423L109.952 178.251ZM111.306 179.135C111.678 179.455 111.974 179.843 112.196 180.308L114.001 179.446C113.663 178.738 113.199 178.125 112.611 177.619L111.306 179.135ZM112.204 180.324C112.412 180.74 112.538 181.286 112.538 181.997H114.538C114.538 181.054 114.371 180.187 113.993 179.43L112.204 180.324ZM112.538 181.997C112.538 182.859 112.382 183.637 112.079 184.343L113.917 185.131C114.335 184.157 114.538 183.108 114.538 181.997H112.538ZM112.076 184.35C111.79 185.033 111.36 185.631 110.776 186.148L112.101 187.646C112.903 186.936 113.514 186.094 113.92 185.124L112.076 184.35ZM110.784 186.141C110.205 186.642 109.464 187.057 108.538 187.369L109.178 189.264C110.306 188.884 111.285 188.352 112.093 187.653L110.784 186.141ZM108.546 187.367C107.655 187.66 106.591 187.817 105.338 187.817V189.817C106.752 189.817 108.035 189.64 109.171 189.267L108.546 187.367ZM105.338 187.817C104.695 187.817 104.066 187.756 103.451 187.636L103.066 189.598C103.81 189.744 104.568 189.817 105.338 189.817V187.817ZM103.435 187.633C102.823 187.522 102.231 187.364 101.658 187.156L100.978 189.037C101.659 189.283 102.36 189.471 103.081 189.601L103.435 187.633ZM101.665 187.159C101.101 186.95 100.579 186.707 100.097 186.43L99.0998 188.164C99.6846 188.5 100.309 188.79 100.972 189.035L101.665 187.159ZM100.106 186.435C99.6369 186.159 99.2321 185.864 98.8872 185.554L97.5493 187.04C98.0045 187.45 98.5197 187.822 99.0903 188.158L100.106 186.435ZM99.0734 186.815L100.213 184.935L98.5032 183.898L97.3632 185.778L99.0734 186.815ZM100.198 184.96C100.275 184.841 100.343 184.784 100.393 184.754L99.3638 183.039C99.0137 183.249 98.7353 183.539 98.5187 183.874L100.198 184.96ZM100.393 184.754C100.396 184.753 100.457 184.717 100.638 184.717V182.717C100.206 182.717 99.7608 182.801 99.3638 183.039L100.393 184.754ZM100.638 184.717C100.744 184.717 100.842 184.743 100.953 184.815L102.043 183.138C101.621 182.864 101.146 182.717 100.638 182.717V184.717ZM100.972 184.827C101.268 185.01 101.602 185.205 101.973 185.411L102.944 183.663C102.594 183.469 102.288 183.29 102.025 183.127L100.972 184.827ZM101.973 185.411C102.389 185.642 102.86 185.85 103.379 186.037L104.058 184.156C103.617 183.997 103.248 183.831 102.944 183.663L101.973 185.411ZM103.387 186.04C104.022 186.263 104.763 186.357 105.578 186.357V184.357C104.9 184.357 104.402 184.277 104.05 184.153L103.387 186.04ZM105.578 186.357C106.235 186.357 106.845 186.283 107.385 186.109L106.771 184.205C106.485 184.297 106.095 184.357 105.578 184.357V186.357ZM107.403 186.103C107.916 185.926 108.381 185.686 108.766 185.359L107.471 183.835C107.322 183.961 107.094 184.094 106.753 184.211L107.403 186.103ZM108.747 185.374C109.14 185.056 109.452 184.665 109.644 184.195L107.793 183.438C107.745 183.556 107.656 183.684 107.489 183.82L108.747 185.374ZM109.635 184.216C109.821 183.789 109.918 183.34 109.918 182.877H107.918C107.918 183.053 107.882 183.231 107.801 183.418L109.635 184.216ZM109.918 182.877C109.918 182.176 109.696 181.523 109.201 181.006L107.756 182.388C107.847 182.484 107.918 182.618 107.918 182.877H109.918ZM109.217 181.023C108.828 180.597 108.332 180.26 107.765 179.993L106.911 181.801C107.305 181.987 107.568 182.183 107.74 182.371L109.217 181.023ZM107.775 179.997C107.245 179.74 106.648 179.52 105.99 179.335L105.446 181.259C106.015 181.42 106.498 181.6 106.901 181.796L107.775 179.997ZM106.015 179.342C105.422 179.157 104.809 178.96 104.175 178.748L103.542 180.646C104.188 180.861 104.814 181.063 105.421 181.252L106.015 179.342ZM104.181 178.75C103.586 178.548 102.997 178.314 102.414 178.047L101.583 179.867C102.226 180.16 102.877 180.419 103.536 180.643L104.181 178.75ZM102.437 178.058C101.921 177.806 101.461 177.493 101.054 177.12L99.7026 178.594C100.255 179.1 100.875 179.521 101.559 179.855L102.437 178.058ZM101.064 177.129C100.7 176.786 100.392 176.355 100.147 175.82L98.3292 176.653C98.6709 177.399 99.1232 178.048 99.6923 178.584L101.064 177.129ZM100.154 175.836C99.9436 175.354 99.8183 174.725 99.8183 173.917H97.8183C97.8183 174.922 97.973 175.84 98.3221 176.638L100.154 175.836ZM99.8183 173.917C99.8183 173.213 99.957 172.55 100.234 171.918L98.4025 171.115C98.0129 172.003 97.8183 172.94 97.8183 173.917H99.8183ZM100.234 171.918C100.507 171.296 100.904 170.755 101.437 170.289L100.12 168.784C99.3721 169.438 98.7963 170.217 98.4025 171.115L100.234 171.918ZM101.438 170.288C101.979 169.813 102.668 169.42 103.526 169.121L102.87 167.232C101.809 167.601 100.884 168.114 100.119 168.785L101.438 170.288ZM103.534 169.119C104.378 168.818 105.381 168.657 106.558 168.657V166.657C105.202 166.657 103.965 166.842 102.863 167.235L103.534 169.119ZM106.558 168.657C107.86 168.657 109.018 168.871 110.045 169.285L110.792 167.429C109.498 166.909 108.083 166.657 106.558 166.657V168.657ZM110.045 169.285C111.101 169.709 111.951 170.256 112.617 170.91L114.019 169.484C113.139 168.618 112.055 167.937 110.792 167.429L110.045 169.285ZM112.472 169.664L111.352 171.444L113.045 172.509L114.165 170.729L112.472 169.664ZM119.976 187.317L119.246 188L119.255 188.009L119.976 187.317ZM118.556 171.677H119.556V170.677H118.556V171.677ZM115.776 171.417L115.096 172.15L115.096 172.15L115.776 171.417ZM115.496 168.677L115.335 167.69L114.496 167.827V168.677H115.496ZM118.796 168.137L118.958 169.124L119.651 169.01L119.78 168.319L118.796 168.137ZM119.836 162.537L118.866 162.294L118.859 162.324L118.853 162.354L119.836 162.537ZM120.216 161.917L119.599 161.131L119.599 161.131L120.216 161.917ZM123.496 161.697H124.496V160.697H123.496V161.697ZM123.496 168.157H122.496V169.157H123.496V168.157ZM128.976 168.157H129.976V167.157H128.976V168.157ZM128.976 171.677V172.677H129.976V171.677H128.976ZM123.496 171.677V170.677H122.496V171.677H123.496ZM123.956 184.297L123.195 184.945L123.202 184.953L123.209 184.961L123.956 184.297ZM126.016 184.737L126.333 185.686L126.35 185.68L126.368 185.673L126.016 184.737ZM126.556 184.497L126.109 183.602L126.093 183.61L126.078 183.619L126.556 184.497ZM126.976 184.277L127.462 185.151L127.497 185.131L127.531 185.109L126.976 184.277ZM127.696 184.277L127.046 185.036L127.079 185.065L127.115 185.091L127.696 184.277ZM127.996 184.597L128.848 184.072L128.828 184.039L128.805 184.009L127.996 184.597ZM129.476 186.997L130.117 187.765L130.783 187.21L130.328 186.472L129.476 186.997ZM124.096 187.817C122.499 187.817 121.419 187.375 120.698 186.624L119.255 188.009C120.454 189.258 122.12 189.817 124.096 189.817V187.817ZM120.707 186.634C119.978 185.853 119.556 184.73 119.556 183.137H117.556C117.556 185.09 118.082 186.754 119.246 187.999L120.707 186.634ZM119.556 183.137V171.677H117.556V183.137H119.556ZM118.556 170.677H116.456V172.677H118.556V170.677ZM116.456 170.677C116.444 170.677 116.438 170.676 116.437 170.676C116.436 170.676 116.439 170.676 116.444 170.678C116.448 170.68 116.453 170.682 116.456 170.684C116.46 170.686 116.46 170.687 116.457 170.684L115.096 172.15C115.477 172.503 115.95 172.677 116.456 172.677V170.677ZM116.457 170.684C116.472 170.698 116.484 170.713 116.494 170.728C116.503 170.742 116.507 170.752 116.508 170.754C116.508 170.756 116.496 170.723 116.496 170.637H114.496C114.496 171.157 114.64 171.726 115.096 172.15L116.457 170.684ZM116.496 170.637V168.677H114.496V170.637H116.496ZM115.658 169.664L118.958 169.124L118.635 167.15L115.335 167.69L115.658 169.664ZM119.78 168.319L120.82 162.719L118.853 162.354L117.813 167.954L119.78 168.319ZM120.807 162.779C120.818 162.732 120.83 162.71 120.834 162.704C120.836 162.701 120.837 162.701 120.836 162.702C120.836 162.702 120.835 162.702 120.835 162.703C120.834 162.703 120.834 162.703 120.834 162.703L119.599 161.131C119.211 161.435 118.978 161.848 118.866 162.294L120.807 162.779ZM120.834 162.703C120.825 162.71 120.82 162.711 120.829 162.708C120.84 162.705 120.872 162.697 120.936 162.697V160.697C120.473 160.697 120 160.815 119.599 161.131L120.834 162.703ZM120.936 162.697H123.496V160.697H120.936V162.697ZM122.496 161.697V168.157H124.496V161.697H122.496ZM123.496 169.157H128.976V167.157H123.496V169.157ZM127.976 168.157V171.677H129.976V168.157H127.976ZM128.976 170.677H123.496V172.677H128.976V170.677ZM122.496 171.677V182.797H124.496V171.677H122.496ZM122.496 182.797C122.496 183.59 122.687 184.349 123.195 184.945L124.718 183.648C124.612 183.524 124.496 183.283 124.496 182.797H122.496ZM123.209 184.961C123.745 185.565 124.467 185.837 125.256 185.837V183.837C124.953 183.837 124.807 183.749 124.704 183.632L123.209 184.961ZM125.256 185.837C125.626 185.837 125.996 185.798 126.333 185.686L125.7 183.788C125.637 183.809 125.5 183.837 125.256 183.837V185.837ZM126.368 185.673C126.61 185.582 126.836 185.484 127.035 185.375L126.078 183.619C125.984 183.67 125.849 183.731 125.665 183.8L126.368 185.673ZM127.004 185.391C127.173 185.307 127.326 185.226 127.462 185.151L126.491 183.403C126.387 183.461 126.26 183.527 126.109 183.602L127.004 185.391ZM127.531 185.109C127.527 185.111 127.508 185.124 127.473 185.136C127.436 185.148 127.39 185.157 127.336 185.157V183.157C126.982 183.157 126.672 183.278 126.422 183.445L127.531 185.109ZM127.336 185.157C127.319 185.157 127.277 185.154 127.22 185.136C127.161 185.116 127.1 185.083 127.046 185.036L128.347 183.518C128.039 183.253 127.673 183.157 127.336 183.157V185.157ZM127.115 185.091C127.096 185.077 127.095 185.073 127.112 185.091C127.128 185.108 127.153 185.138 127.188 185.185L128.805 184.009C128.668 183.819 128.494 183.618 128.278 183.463L127.115 185.091ZM127.145 185.122L128.625 187.522L130.328 186.472L128.848 184.072L127.145 185.122ZM128.836 186.229C128.218 186.744 127.504 187.138 126.684 187.407L127.309 189.307C128.356 188.963 129.295 188.45 130.117 187.765L128.836 186.229ZM126.684 187.407C125.853 187.68 124.992 187.817 124.096 187.817V189.817C125.201 189.817 126.273 189.647 127.309 189.307L126.684 187.407ZM146.259 183.937L146.592 184.88L146.592 184.88L146.259 183.937ZM147.879 182.977L147.184 182.258L147.178 182.264L147.172 182.27L147.879 182.977ZM148.759 181.577L147.815 181.246L147.812 181.257L147.808 181.268L148.759 181.577ZM148.739 178.197L147.809 178.564L147.812 178.573L148.739 178.197ZM147.799 176.917L147.154 177.681L147.161 177.687L147.169 177.693L147.799 176.917ZM146.139 176.097L145.87 177.06L145.875 177.061L146.139 176.097ZM138.299 175.817V174.817H137.299V175.817H138.299ZM138.299 184.297H137.299V185.297H138.299V184.297ZM138.299 163.737V162.737H137.299V163.737H138.299ZM138.299 172.097H137.299V173.097H138.299V172.097ZM146.739 171.097L146.163 170.279L146.158 170.283L146.739 171.097ZM147.739 160.117L147.481 161.083L147.481 161.083L147.739 160.117ZM151.039 161.657L150.424 162.445L150.43 162.449L151.039 161.657ZM153.239 169.237L154.19 169.547L154.192 169.541L153.239 169.237ZM152.299 170.977L151.511 170.362L151.509 170.364L152.299 170.977ZM150.699 172.437L150.141 171.607L150.133 171.613L150.699 172.437ZM148.399 173.557L148.075 172.611L144.734 173.758L148.18 174.532L148.399 173.557ZM153.659 183.397L152.747 182.987L152.747 182.987L153.659 183.397ZM151.619 186.097L152.261 186.864L152.267 186.858L151.619 186.097ZM132.919 188.497H131.919V189.497H132.919V188.497ZM132.919 159.577V158.577H131.919V159.577H132.919ZM143.739 185.297C144.812 185.297 145.773 185.169 146.592 184.88L145.926 182.994C145.386 183.185 144.666 183.297 143.739 183.297V185.297ZM146.592 184.88C147.375 184.603 148.056 184.214 148.586 183.684L147.172 182.27C146.903 182.539 146.503 182.79 145.926 182.994L146.592 184.88ZM148.575 183.695C149.102 183.185 149.485 182.579 149.71 181.886L147.808 181.268C147.687 181.642 147.483 181.969 147.184 182.258L148.575 183.695ZM149.703 181.907C149.929 181.261 150.039 180.582 150.039 179.877H148.039C148.039 180.371 147.963 180.826 147.815 181.246L149.703 181.907ZM150.039 179.877C150.039 179.144 149.922 178.453 149.666 177.821L147.812 178.573C147.956 178.927 148.039 179.357 148.039 179.877H150.039ZM149.669 177.83C149.406 177.162 148.989 176.595 148.43 176.141L147.169 177.693C147.463 177.932 147.673 178.219 147.809 178.564L149.669 177.83ZM148.444 176.153C147.882 175.678 147.188 175.348 146.404 175.132L145.875 177.061C146.45 177.219 146.864 177.436 147.154 177.681L148.444 176.153ZM146.409 175.134C145.629 174.915 144.726 174.817 143.719 174.817V176.817C144.606 176.817 145.316 176.905 145.87 177.06L146.409 175.134ZM143.719 174.817H138.299V176.817H143.719V174.817ZM137.299 175.817V184.297H139.299V175.817H137.299ZM138.299 185.297H143.739V183.297H138.299V185.297ZM137.299 163.737V172.097H139.299V163.737H137.299ZM138.299 173.097H142.579V171.097H138.299V173.097ZM142.579 173.097C144.512 173.097 146.143 172.752 147.32 171.911L146.158 170.283C145.469 170.775 144.327 171.097 142.579 171.097V173.097ZM147.315 171.914C148.596 171.013 149.159 169.602 149.159 167.917H147.159C147.159 169.138 146.776 169.848 146.163 170.279L147.315 171.914ZM149.159 167.917C149.159 166.233 148.677 164.795 147.479 163.897L146.279 165.497C146.788 165.878 147.159 166.587 147.159 167.917H149.159ZM147.479 163.897C146.369 163.064 144.772 162.737 142.879 162.737V164.737C144.613 164.737 145.683 165.05 146.279 165.497L147.479 163.897ZM142.879 162.737H138.299V164.737H142.879V162.737ZM142.879 160.577C144.714 160.577 146.242 160.752 147.481 161.083L147.997 159.151C146.543 158.762 144.831 158.577 142.879 158.577V160.577ZM147.481 161.083C148.733 161.418 149.702 161.881 150.424 162.445L151.655 160.869C150.67 160.099 149.438 159.536 147.997 159.151L147.481 161.083ZM150.43 162.449C151.168 163.018 151.69 163.689 152.018 164.466L153.86 163.688C153.389 162.572 152.643 161.629 151.649 160.864L150.43 162.449ZM152.018 164.466C152.359 165.272 152.539 166.203 152.539 167.277H154.539C154.539 165.977 154.32 164.775 153.86 163.688L152.018 164.466ZM152.539 167.277C152.539 167.857 152.454 168.408 152.287 168.933L154.192 169.541C154.424 168.813 154.539 168.056 154.539 167.277H152.539ZM152.288 168.927C152.127 169.422 151.871 169.9 151.511 170.362L153.088 171.592C153.58 170.961 153.951 170.279 154.19 169.547L152.288 168.927ZM151.509 170.364C151.171 170.801 150.72 171.217 150.141 171.607L151.258 173.266C151.985 172.777 152.601 172.22 153.09 171.589L151.509 170.364ZM150.133 171.613C149.581 171.992 148.9 172.328 148.075 172.611L148.724 174.503C149.685 174.173 150.537 173.762 151.266 173.261L150.133 171.613ZM148.18 174.532C150.044 174.952 151.324 175.639 152.135 176.516C152.93 177.375 153.359 178.505 153.359 179.997H155.359C155.359 178.089 154.795 176.446 153.603 175.158C152.428 173.888 150.728 173.055 148.619 172.581L148.18 174.532ZM153.359 179.997C153.359 181.093 153.151 182.086 152.747 182.987L154.572 183.806C155.1 182.628 155.359 181.354 155.359 179.997H153.359ZM152.747 182.987C152.343 183.888 151.755 184.669 150.971 185.335L152.267 186.858C153.27 186.005 154.042 184.986 154.572 183.806L152.747 182.987ZM150.978 185.33C150.198 185.981 149.216 186.512 148.009 186.906L148.63 188.807C150.036 188.348 151.254 187.706 152.261 186.864L150.978 185.33ZM148.009 186.906C146.822 187.294 145.436 187.497 143.839 187.497V189.497C145.602 189.497 147.203 189.273 148.63 188.807L148.009 186.906ZM143.839 187.497H132.919V189.497H143.839V187.497ZM133.919 188.497V159.577H131.919V188.497H133.919ZM132.919 160.577H142.879V158.577H132.919V160.577ZM175.796 167.977H176.796V166.977H175.796V167.977ZM175.796 188.497V189.497H176.796V188.497H175.796ZM171.536 187.597L170.557 187.8L170.564 187.837L170.575 187.874L171.536 187.597ZM171.196 185.957L172.175 185.754L171.795 183.922L170.483 185.255L171.196 185.957ZM168.416 188.037L168.872 188.927L168.882 188.922L168.416 188.037ZM161.856 188.257L161.443 189.168L161.452 189.172L161.46 189.175L161.856 188.257ZM159.696 186.637L158.932 187.283L158.932 187.283L159.696 186.637ZM158.356 184.177L157.399 184.469L157.402 184.477L157.404 184.485L158.356 184.177ZM157.916 167.977V166.977H156.916V167.977H157.916ZM162.856 167.977H163.856V166.977H162.856V167.977ZM163.716 183.937L162.945 184.574L162.952 184.582L162.959 184.59L163.716 183.937ZM168.736 184.397L169.183 185.291L169.189 185.288L169.196 185.285L168.736 184.397ZM170.856 182.817L171.563 183.524L171.856 183.231V182.817H170.856ZM170.856 167.977V166.977H169.856V167.977H170.856ZM174.796 167.977V188.497H176.796V167.977H174.796ZM175.796 187.497H172.776V189.497H175.796V187.497ZM172.776 187.497C172.688 187.497 172.633 187.487 172.602 187.478C172.586 187.474 172.577 187.47 172.571 187.467C172.566 187.465 172.564 187.463 172.563 187.463C172.563 187.462 172.562 187.461 172.56 187.459C172.558 187.458 172.554 187.453 172.549 187.444C172.537 187.427 172.517 187.389 172.496 187.319L170.575 187.874C170.709 188.339 170.964 188.773 171.388 189.081C171.808 189.386 172.297 189.497 172.776 189.497V187.497ZM172.515 187.394L172.175 185.754L170.217 186.16L170.557 187.8L172.515 187.394ZM170.483 185.255C169.712 186.039 168.868 186.669 167.95 187.152L168.882 188.922C169.99 188.338 170.999 187.582 171.908 186.658L170.483 185.255ZM167.959 187.147C167.113 187.581 166.083 187.817 164.836 187.817V189.817C166.336 189.817 167.692 189.532 168.872 188.927L167.959 187.147ZM164.836 187.817C163.827 187.817 162.972 187.649 162.251 187.338L161.46 189.175C162.473 189.611 163.605 189.817 164.836 189.817V187.817ZM162.269 187.346C161.546 187.019 160.947 186.567 160.459 185.991L158.932 187.283C159.618 188.093 160.459 188.722 161.443 189.168L162.269 187.346ZM160.459 185.991C159.964 185.406 159.578 184.703 159.307 183.869L157.404 184.485C157.747 185.544 158.254 186.481 158.932 187.283L160.459 185.991ZM159.312 183.885C159.052 183.032 158.916 182.078 158.916 181.017H156.916C156.916 182.249 157.073 183.402 157.399 184.469L159.312 183.885ZM158.916 181.017V167.977H156.916V181.017H158.916ZM157.916 168.977H162.856V166.977H157.916V168.977ZM161.856 167.977V181.017H163.856V167.977H161.856ZM161.856 181.017C161.856 182.412 162.175 183.642 162.945 184.574L164.486 183.3C164.11 182.845 163.856 182.128 163.856 181.017H161.856ZM162.959 184.59C163.787 185.551 164.976 185.957 166.336 185.957V183.957C165.376 183.957 164.817 183.683 164.473 183.284L162.959 184.59ZM166.336 185.957C167.341 185.957 168.294 185.736 169.183 185.291L168.289 183.502C167.684 183.805 167.037 183.957 166.336 183.957V185.957ZM169.196 185.285C170.044 184.846 170.832 184.255 171.563 183.524L170.149 182.11C169.546 182.712 168.921 183.175 168.276 183.509L169.196 185.285ZM171.856 182.817V167.977H169.856V182.817H171.856ZM170.856 168.977H175.796V166.977H170.856V168.977ZM193.574 173.217H194.574V172.858L194.346 172.581L193.574 173.217ZM191.734 171.777L191.34 172.696L191.347 172.699L191.734 171.777ZM187.594 171.777L188.017 172.683L188.017 172.683L187.594 171.777ZM186.054 173.057L186.849 173.663L186.856 173.654L186.054 173.057ZM185.074 175.217L186.041 175.47L186.042 175.466L185.074 175.217ZM185.014 181.357L184.038 181.574L184.04 181.583L184.042 181.592L185.014 181.357ZM185.854 183.397L185.025 183.956L185.032 183.966L185.854 183.397ZM187.174 184.537L186.755 185.445L186.765 185.449L186.774 185.454L187.174 184.537ZM191.534 184.237L191.024 183.377L191.024 183.377L191.534 184.237ZM193.574 182.417L194.35 183.048L194.574 182.772V182.417H193.574ZM198.514 158.777H199.514V157.777H198.514V158.777ZM198.514 188.497V189.497H199.514V188.497H198.514ZM194.254 187.597L193.276 187.804L193.283 187.84L193.293 187.874L194.254 187.597ZM193.834 185.617L194.812 185.409L194.397 183.452L193.081 184.959L193.834 185.617ZM190.974 187.917L190.497 187.038L190.492 187.041L190.974 187.917ZM184.154 188.097L184.601 187.202L184.601 187.202L184.154 188.097ZM181.734 186.077L180.932 186.675L180.937 186.682L180.943 186.688L181.734 186.077ZM180.174 182.777L179.21 183.042L179.212 183.052L180.174 182.777ZM180.254 174.057L179.3 173.755L179.3 173.755L180.254 174.057ZM182.034 170.657L182.813 171.284L182.813 171.284L182.034 170.657ZM184.814 168.417L185.257 169.313L185.266 169.309L184.814 168.417ZM191.394 168.137L190.989 169.051L190.989 169.051L191.394 168.137ZM193.574 169.597L192.882 170.319L194.574 171.94V169.597H193.574ZM193.574 158.777V157.777H192.574V158.777H193.574ZM194.346 172.581C193.705 171.803 192.967 171.21 192.121 170.855L191.347 172.699C191.835 172.904 192.323 173.271 192.802 173.853L194.346 172.581ZM192.128 170.858C191.342 170.521 190.5 170.357 189.614 170.357V172.357C190.248 172.357 190.82 172.473 191.34 172.696L192.128 170.858ZM189.614 170.357C188.74 170.357 187.919 170.521 187.171 170.871L188.017 172.683C188.468 172.472 188.995 172.357 189.614 172.357V170.357ZM187.171 170.871C186.409 171.226 185.769 171.764 185.252 172.46L186.856 173.654C187.192 173.203 187.579 172.887 188.017 172.683L187.171 170.871ZM185.258 172.451C184.731 173.143 184.356 173.994 184.106 174.967L186.042 175.466C186.245 174.68 186.523 174.091 186.849 173.663L185.258 172.451ZM184.106 174.964C183.852 175.935 183.734 177.051 183.734 178.297H185.734C185.734 177.17 185.842 176.232 186.041 175.47L184.106 174.964ZM183.734 178.297C183.734 179.544 183.83 180.641 184.038 181.574L185.99 181.14C185.824 180.393 185.734 179.45 185.734 178.297H183.734ZM184.042 181.592C184.261 182.499 184.581 183.298 185.025 183.956L186.683 182.837C186.407 182.429 186.166 181.868 185.986 181.122L184.042 181.592ZM185.032 183.966C185.483 184.617 186.056 185.122 186.755 185.445L187.593 183.629C187.252 183.471 186.945 183.216 186.676 182.828L185.032 183.966ZM186.774 185.454C187.436 185.742 188.154 185.877 188.914 185.877V183.877C188.394 183.877 187.952 183.785 187.573 183.62L186.774 185.454ZM188.914 185.877C190.079 185.877 191.138 185.634 192.044 185.097L191.024 183.377C190.49 183.693 189.802 183.877 188.914 183.877V185.877ZM192.044 185.097C192.884 184.599 193.65 183.907 194.35 183.048L192.798 181.786C192.217 182.5 191.624 183.021 191.024 183.377L192.044 185.097ZM194.574 182.417V173.217H192.574V182.417H194.574ZM197.514 158.777V188.497H199.514V158.777H197.514ZM198.514 187.497H195.494V189.497H198.514V187.497ZM195.494 187.497C195.406 187.497 195.351 187.487 195.32 187.478C195.304 187.474 195.295 187.47 195.289 187.467C195.284 187.465 195.282 187.463 195.281 187.463C195.281 187.462 195.28 187.461 195.278 187.459C195.276 187.458 195.272 187.453 195.267 187.444C195.255 187.427 195.235 187.389 195.215 187.319L193.293 187.874C193.428 188.339 193.682 188.773 194.107 189.081C194.526 189.386 195.015 189.497 195.494 189.497V187.497ZM195.232 187.389L194.812 185.409L192.856 185.824L193.276 187.804L195.232 187.389ZM193.081 184.959C192.33 185.818 191.47 186.509 190.497 187.038L191.451 188.796C192.638 188.151 193.684 187.309 194.587 186.275L193.081 184.959ZM190.492 187.041C189.597 187.533 188.521 187.797 187.234 187.797V189.797C188.8 189.797 190.218 189.474 191.456 188.793L190.492 187.041ZM187.234 187.797C186.258 187.797 185.386 187.595 184.601 187.202L183.707 188.991C184.789 189.532 185.97 189.797 187.234 189.797V187.797ZM184.601 187.202C183.811 186.807 183.119 186.234 182.525 185.465L180.943 186.688C181.708 187.679 182.63 188.453 183.707 188.991L184.601 187.202ZM182.535 185.479C181.955 184.701 181.483 183.717 181.135 182.502L179.212 183.052C179.612 184.45 180.179 185.666 180.932 186.675L182.535 185.479ZM181.138 182.511C180.807 181.309 180.634 179.908 180.634 178.297H178.634C178.634 180.046 178.821 181.631 179.21 183.042L181.138 182.511ZM180.634 178.297C180.634 176.868 180.828 175.558 181.207 174.358L179.3 173.755C178.853 175.169 178.634 176.686 178.634 178.297H180.634ZM181.207 174.358C181.587 173.157 182.126 172.137 182.813 171.284L181.255 170.029C180.396 171.097 179.747 172.343 179.3 173.755L181.207 174.358ZM182.813 171.284C183.497 170.435 184.31 169.781 185.257 169.313L184.371 167.52C183.158 168.119 182.117 168.959 181.255 170.029L182.813 171.284ZM185.266 169.309C186.19 168.841 187.246 168.597 188.454 168.597V166.597C186.968 166.597 185.597 166.899 184.362 167.525L185.266 169.309ZM188.454 168.597C189.5 168.597 190.334 168.761 190.989 169.051L191.799 167.222C190.827 166.792 189.701 166.597 188.454 166.597V168.597ZM190.989 169.051C191.697 169.364 192.326 169.786 192.882 170.319L194.266 168.875C193.542 168.181 192.718 167.629 191.799 167.222L190.989 169.051ZM194.574 169.597V158.777H192.574V169.597H194.574ZM193.574 159.777H198.514V157.777H193.574V159.777ZM216.269 173.217H217.269V172.858L217.041 172.581L216.269 173.217ZM214.429 171.777L214.035 172.696L214.042 172.699L214.429 171.777ZM210.289 171.777L210.712 172.683L210.712 172.683L210.289 171.777ZM208.749 173.057L209.545 173.663L209.551 173.654L208.749 173.057ZM207.769 175.217L208.737 175.47L208.738 175.466L207.769 175.217ZM207.709 181.357L206.733 181.574L206.735 181.583L206.737 181.592L207.709 181.357ZM208.549 183.397L207.72 183.956L207.727 183.966L208.549 183.397ZM209.869 184.537L209.45 185.445L209.46 185.449L209.47 185.454L209.869 184.537ZM214.229 184.237L213.719 183.377L213.719 183.377L214.229 184.237ZM216.269 182.417L217.045 183.048L217.269 182.772V182.417H216.269ZM221.209 158.777H222.209V157.777H221.209V158.777ZM221.209 188.497V189.497H222.209V188.497H221.209ZM216.949 187.597L215.971 187.804L215.978 187.84L215.989 187.874L216.949 187.597ZM216.529 185.617L217.507 185.409L217.092 183.452L215.776 184.959L216.529 185.617ZM213.669 187.917L213.192 187.038L213.187 187.041L213.669 187.917ZM206.849 188.097L207.296 187.202L207.296 187.202L206.849 188.097ZM204.429 186.077L203.628 186.675L203.633 186.682L203.638 186.688L204.429 186.077ZM202.869 182.777L201.905 183.042L201.908 183.052L202.869 182.777ZM202.949 174.057L201.996 173.755L201.996 173.755L202.949 174.057ZM204.729 170.657L205.508 171.284L205.508 171.284L204.729 170.657ZM207.509 168.417L207.952 169.313L207.961 169.309L207.509 168.417ZM214.089 168.137L213.684 169.051L213.684 169.051L214.089 168.137ZM216.269 169.597L215.577 170.319L217.269 171.94V169.597H216.269ZM216.269 158.777V157.777H215.269V158.777H216.269ZM217.041 172.581C216.4 171.803 215.662 171.21 214.816 170.855L214.042 172.699C214.53 172.904 215.018 173.271 215.497 173.853L217.041 172.581ZM214.823 170.858C214.037 170.521 213.195 170.357 212.309 170.357V172.357C212.943 172.357 213.515 172.473 214.035 172.696L214.823 170.858ZM212.309 170.357C211.435 170.357 210.615 170.521 209.866 170.871L210.712 172.683C211.164 172.472 211.69 172.357 212.309 172.357V170.357ZM209.866 170.871C209.104 171.226 208.464 171.764 207.947 172.46L209.551 173.654C209.887 173.203 210.274 172.887 210.712 172.683L209.866 170.871ZM207.954 172.451C207.426 173.143 207.052 173.994 206.801 174.967L208.738 175.466C208.94 174.68 209.219 174.091 209.545 173.663L207.954 172.451ZM206.802 174.964C206.548 175.935 206.429 177.051 206.429 178.297H208.429C208.429 177.17 208.537 176.232 208.737 175.47L206.802 174.964ZM206.429 178.297C206.429 179.544 206.526 180.641 206.733 181.574L208.685 181.14C208.519 180.393 208.429 179.45 208.429 178.297H206.429ZM206.737 181.592C206.957 182.499 207.276 183.298 207.72 183.956L209.378 182.837C209.102 182.429 208.862 181.868 208.681 181.122L206.737 181.592ZM207.727 183.966C208.178 184.617 208.751 185.122 209.45 185.445L210.288 183.629C209.947 183.471 209.641 183.216 209.371 182.828L207.727 183.966ZM209.47 185.454C210.131 185.742 210.849 185.877 211.609 185.877V183.877C211.089 183.877 210.648 183.785 210.269 183.62L209.47 185.454ZM211.609 185.877C212.775 185.877 213.833 185.634 214.739 185.097L213.719 183.377C213.185 183.693 212.497 183.877 211.609 183.877V185.877ZM214.739 185.097C215.579 184.599 216.346 183.907 217.045 183.048L215.494 181.786C214.913 182.5 214.319 183.021 213.719 183.377L214.739 185.097ZM217.269 182.417V173.217H215.269V182.417H217.269ZM220.209 158.777V188.497H222.209V158.777H220.209ZM221.209 187.497H218.189V189.497H221.209V187.497ZM218.189 187.497C218.102 187.497 218.046 187.487 218.015 187.478C218 187.474 217.99 187.47 217.985 187.467C217.98 187.465 217.977 187.463 217.977 187.463C217.976 187.462 217.975 187.461 217.973 187.459C217.972 187.458 217.968 187.453 217.962 187.444C217.951 187.427 217.93 187.389 217.91 187.319L215.989 187.874C216.123 188.339 216.378 188.773 216.802 189.081C217.222 189.386 217.711 189.497 218.189 189.497V187.497ZM217.927 187.389L217.507 185.409L215.551 185.824L215.971 187.804L217.927 187.389ZM215.776 184.959C215.026 185.818 214.165 186.509 213.192 187.038L214.147 188.796C215.333 188.151 216.379 187.309 217.282 186.275L215.776 184.959ZM213.187 187.041C212.292 187.533 211.216 187.797 209.929 187.797V189.797C211.495 189.797 212.913 189.474 214.151 188.793L213.187 187.041ZM209.929 187.797C208.953 187.797 208.081 187.595 207.296 187.202L206.402 188.991C207.484 189.532 208.666 189.797 209.929 189.797V187.797ZM207.296 187.202C206.506 186.807 205.815 186.234 205.221 185.465L203.638 186.688C204.404 187.679 205.325 188.453 206.402 188.991L207.296 187.202ZM205.231 185.479C204.65 184.701 204.178 183.717 203.831 182.502L201.908 183.052C202.307 184.45 202.875 185.666 203.628 186.675L205.231 185.479ZM203.833 182.511C203.502 181.309 203.329 179.908 203.329 178.297H201.329C201.329 180.046 201.516 181.631 201.905 183.042L203.833 182.511ZM203.329 178.297C203.329 176.868 203.523 175.558 203.903 174.358L201.996 173.755C201.548 175.169 201.329 176.686 201.329 178.297H203.329ZM203.903 174.358C204.283 173.157 204.821 172.137 205.508 171.284L203.95 170.029C203.091 171.097 202.442 172.343 201.996 173.755L203.903 174.358ZM205.508 171.284C206.192 170.435 207.005 169.781 207.952 169.313L207.066 167.52C205.853 168.119 204.813 168.959 203.95 170.029L205.508 171.284ZM207.961 169.309C208.886 168.841 209.942 168.597 211.149 168.597V166.597C209.664 166.597 208.293 166.899 207.058 167.525L207.961 169.309ZM211.149 168.597C212.195 168.597 213.03 168.761 213.684 169.051L214.494 167.222C213.522 166.792 212.397 166.597 211.149 166.597V168.597ZM213.684 169.051C214.392 169.364 215.021 169.786 215.577 170.319L216.961 168.875C216.237 168.181 215.413 167.629 214.494 167.222L213.684 169.051ZM217.269 169.597V158.777H215.269V169.597H217.269ZM216.269 159.777H221.209V157.777H216.269V159.777ZM244.725 167.977L245.644 168.37L246.239 166.977H244.725V167.977ZM233.545 194.137L232.625 193.744L232.624 193.747L233.545 194.137ZM232.965 194.917L232.379 194.106L232.353 194.125L232.329 194.145L232.965 194.917ZM228.225 195.197L227.318 194.774L226.655 196.197H228.225V195.197ZM232.065 186.957L232.971 187.379L233.162 186.97L232.981 186.556L232.065 186.957ZM223.765 167.977V166.977H222.236L222.848 168.377L223.765 167.977ZM229.005 168.257L228.346 169.009L228.357 169.019L228.369 169.029L229.005 168.257ZM229.505 168.897L230.43 168.518L230.424 168.504L230.418 168.491L229.505 168.897ZM233.865 179.537L234.791 179.16L234.79 179.158L233.865 179.537ZM234.225 180.617L233.257 180.868L233.261 180.884L233.266 180.901L234.225 180.617ZM234.525 181.717L233.554 181.959L234.404 185.359L235.477 182.023L234.525 181.717ZM234.885 180.617L235.833 180.933L235.837 180.923L234.885 180.617ZM235.285 179.517L236.211 179.894L236.214 179.886L236.217 179.879L235.285 179.517ZM239.405 168.897L238.476 168.525L238.472 168.535L239.405 168.897ZM239.925 168.237L239.36 167.412L239.349 167.419L239.339 167.426L239.925 168.237ZM243.805 167.584L232.625 193.744L234.464 194.53L245.644 168.37L243.805 167.584ZM232.624 193.747C232.529 193.971 232.436 194.065 232.379 194.106L233.55 195.728C233.973 195.422 234.267 194.996 234.465 194.526L232.624 193.747ZM232.329 194.145C232.35 194.127 232.345 194.141 232.274 194.16C232.202 194.179 232.084 194.197 231.905 194.197V196.197C232.48 196.197 233.112 196.091 233.6 195.689L232.329 194.145ZM231.905 194.197H228.225V196.197H231.905V194.197ZM229.131 195.619L232.971 187.379L231.158 186.534L227.318 194.774L229.131 195.619ZM232.981 186.556L224.681 167.576L222.848 168.377L231.148 187.357L232.981 186.556ZM223.765 168.977H228.105V166.977H223.765V168.977ZM228.105 168.977C228.338 168.977 228.372 169.032 228.346 169.009L229.663 167.504C229.21 167.108 228.645 166.977 228.105 166.977V168.977ZM228.369 169.029C228.49 169.129 228.554 169.221 228.591 169.303L230.418 168.491C230.242 168.093 229.972 167.758 229.64 167.485L228.369 169.029ZM228.579 169.276L232.939 179.916L234.79 179.158L230.43 168.518L228.579 169.276ZM232.938 179.914C233.069 180.235 233.175 180.553 233.257 180.868L235.193 180.366C235.088 179.961 234.953 179.559 234.791 179.16L232.938 179.914ZM233.266 180.901C233.368 181.247 233.464 181.6 233.554 181.959L235.495 181.474C235.398 181.087 235.294 180.707 235.183 180.333L233.266 180.901ZM235.477 182.023C235.595 181.653 235.714 181.29 235.833 180.933L233.936 180.301C233.815 180.664 233.694 181.034 233.573 181.411L235.477 182.023ZM235.837 180.923C235.949 180.573 236.074 180.23 236.211 179.894L234.358 179.14C234.202 179.523 234.06 179.914 233.933 180.311L235.837 180.923ZM236.217 179.879L240.337 169.259L238.472 168.535L234.352 179.155L236.217 179.879ZM240.333 169.268C240.367 169.183 240.419 169.113 240.51 169.048L239.339 167.426C238.95 167.707 238.655 168.077 238.476 168.525L240.333 169.268ZM240.489 169.062C240.576 169.002 240.66 168.977 240.765 168.977V166.977C240.256 166.977 239.779 167.124 239.36 167.412L240.489 169.062ZM240.765 168.977H244.725V166.977H240.765V168.977Z" fill="#262626" mask="url(#path-2-outside-1_329_1392)"/>
</svg>
